<?xml version="1.0" encoding="utf-8"?>
<!-- Generator: Adobe Illustrator 19.1.0, SVG Export Plug-In . SVG Version: 6.00 Build 0)  -->
<svg version="1.1" id="Laag_1" xmlns="http://www.w3.org/2000/svg" xmlns:xlink="http://www.w3.org/1999/xlink" x="0px" y="0px"
	 viewBox="0 0 841.9 1190.6" style="enable-background:new 0 0 841.9 1190.6;" xml:space="preserve">
<style type="text/css">
	.st0{fill:none;stroke:#000000;stroke-miterlimit:10;}
	.st1{fill:none;stroke:#000000;stroke-width:2;stroke-miterlimit:10;}
	.st2{fill:none;}
</style>
<g>
	<g>
		<g>
			<path class="st0" d="M592.8,426.5c0,0,11-16.9,0-17.9c-2.2,1.5-6.6,15.4-5.2,17.4"/>
			<path class="st0" d="M592.7,408.6c0,0,0.3-3.3-2.7-21.1c-3-17.8-0.8-17.6-0.1-25.6c17.1-17.3,6.5,48.2,6.5,48.2s1.5,19.7,7.9,9.8
				c6.4-9.9-3.4-45.8,0.8-51.8c2.4-3.4,11.4-13.8,9.4,6c-3.1,30.2,0.3,44.8,4.1,41.8"/>
			<path class="st0" d="M583.6,425.7c0,0-0.7-16.6-14.4-13.8c-2.3,3.4-6.3,3.1-5.6,9.3c0.8,6.1,10.5,18.8,10.5,18.8"/>
			<path class="st0" d="M582.5,420c0,0,5.2-15.2-11.7-18.4c-3.2,2.1-2.8,4.8-1.6,10.3"/>
			<path class="st0" d="M590.2,413.1c0,0-12,3.6-7.7-18.2c4.3-21.8,12-30.9-0.5-41.8c-1.9-1.9-5.6-5.2-7.1,4.1
				c0,0,0.9,34.4-2.4,44.5c-4.1,0.6-15.2,4.7-11.2-9.8c4-14.4,20.4-43.2,7.9-49.8c0,0-6.8-7-9.2-2.9c-2.4,4.2-4.3,24.9-4.3,24.9
				s-2.5,46.2-13.7,28c0,0,1.9-10.3,9.6-39.2c3.6-14.1,7.7-21.5-7.4-25.6c0,0-9.3-0.8-9.3,9.2c-0.7,6.7-1.6,14.3-1.6,14.3
				c-2.1,45.2-12.5,40.9-12.5,40.9s-14-4.9,0.1-31c0,0,21.6-37.7,8.9-41.9c0,0-17.5-11.3-21.7-5.7c-4.2,5.7-2.2,23.7-2.2,23.7
				s0.3,59.3-12.8,40.9c-3.6-4.7-8.5-6.2,3.2-35.4c11.7-29.2,12-32.5-6.1-32.8c-18.1-0.3-18.9,15.1-18.9,15.1s4.8,54.3-8.4,36.9
				c0,0-4.9-5.6,2.1-23c1.4-4.6,9.3-21-2.2-27.1c-3.5-2-6.4-3.9-9.1,3.9s-1.8,52.7-14.9,38.4c0,0-1.8-5.9,5.8-22.7
				s6.9-24.3,0.8-27.5c-6.1-3.2-10.7-7.7-11.6,1.3s-6.8,52.6-19.2,44.4c0,0-5.2-0.1,2.2-48.6"/>
			<path class="st0" d="M458.5,374.5"/>
			<path class="st0" d="M440.4,366.8"/>
			<path class="st1" d="M551.2,410c0,0-2.7-10.1-5.3-4.4c-2.6,5.6-8.9,19.5-10.3,13s5.4-14.1,5.5-17.7c-3-2.2-20.8-10.3-22.5,1
				c-1.7,11.3-6.1,15.3-8.2,9.3c-2.2-5.9,1.4-15,1.4-15s2.4-8.2-6.8-10c-9.3-1.9-9,2.8-9,2.8s5.4,29.6-7,22.5s-0.3-29.8-0.3-29.8
				s-15.9-11.9-20.6-6.3s-1,37.3-11.3,20.8c0.6-6.3,9.4-23.8-6.5-24.9c-14.8-1-6.9,5.2-7.8,15.2s-5.6,13.3-5.3-0.5
				s0.5-13.4-6.1-18.4c-15.6-2.4-14.1,10.8-14.1,10.8c-8.6,16.4-9.3-0.8-9.3-0.8s-2.2-2.9,7.4-4.4c9.6-1.5,7-25,7-25
				s2.1-2.9,10.1-4.1c8-1.2,7.5,13.5,4.7,22.3c-2.8,8.8,1.8,9.9,6,4.2c0.7-1,1.2-2,1.7-3.1c2.1-5.5,1.3-12.1,3.6-15.5
				c20.3,0.6,11.9,11.1,10.6,22.4c-1.4,11.3,10.3,5.6,9.3,0.8c-2.2-12.7,4.6-13,4.6-13c23.7,5.9,14.9,13.6,14.9,13.6
				c-2,4.3,1.2,8.8,1.2,8.8c9.6,9.3,8.3,1.1,9.4-0.2c1.1-1.2,2.5-8.9,10-6.5c7.5,2.4,4.6,9.2,4.1,14.5c7.3,16.1,11,1.3,13.9-3.5
				c2.9-4.8,16.3-6.9,15.3,8.2c-1,15.1,4.4,14.5,6.2,2.2s11.5-4.3,13.8,1.3c-13.3,14.6,2.4,20.4,2.4,20.4"/>
			<path class="st0" d="M503.3,408.3"/>
			<path class="st0" d="M617.5,332.2c6.7-10.5,2.7,14.7-0.3,21.8c-3,7.1-3.7-0.3-3.7-0.3c-2.1-14.3-7.1-9.1-10.2-2.6
				c4.9,13.2-2.7,19.3-2.7,19.3l-1.1,1.5"/>
			<path class="st0" d="M611.5,346.4c0,0,16.2-33.7,1-29.4c-4.3,3-4.6,13.4-4.6,28"/>
			<path class="st0" d="M601.1,350.1c0,0-4.3-19.4-7.6-8.6s1.7,17.5,1.7,17.5"/>
			<path class="st1" d="M585.7,356.9c0,0,8.2-29.8-2.6-26.1c-10.8,3.7-3,20.7-3,20.7"/>
			<path class="st0" d="M566.2,321.2"/>
			<path class="st0" d="M573,346.6"/>
			<path class="st1" d="M562.2,338c0,0-0.4-17.2,4-16.8c12,1.1,6.8,25.4,6.8,25.4"/>
			<path class="st0" d="M569.5,321.5"/>
			<path class="st1" d="M553.5,332.4c0,0,10.8-15.1-3.1-17c-13.9-1.9-9,12.3-9,12.3"/>
			<path class="st1" d="M533.2,322.2c0,0,4.1-13.4-13.1-17c-6.7-0.6-11.1-0.7-12,9.2"/>
			<path class="st1" d="M503.5,312.8c0,0,6.5-12.5-10.7-15.5c-17.2-2.9-14.9,15.8-14.9,15.8"/>
			<path class="st1" d="M467.4,315.9c0,0,12.3-17.8,1.9-20.7c-10.4-2.9-10.6,14.7-10.6,14.7"/>
			<path class="st1" d="M448.4,306.1c0,0,11.6-13.7-3.7-23.2c-4.5-2.4-4.4,8-4.4,8s-0.9,7.7-4.8,9.4"/>
			<path class="st1" d="M436.2,300.4c0,0-19.8,4.3-21.7-2.8c-1.8-7.2,10.8-24.5,10.8-24.5s8.7-3.2,19.3,9.8"/>
			<path class="st0" d="M599.3,343.8c0,0,18-38.5,2.9-32.1c-3,2.4-6.1,4.2-5.6,9.9c0.5,5.8-1.5,16.6-1.5,16.6"/>
			<path class="st0" d="M425.3,273.1c0,0-10.5,6.8-8.4,0.9c2.1-5.9,1.2-13,1.2-13c13.4-3.8,19.1,1.5,20,9.4
				c0.9,7.9,2.5,8.2,4.4,10.1c1.9,1.8,1.8-0.7,6.5-2.8s4.9,2,4.6,7.2c-1.8,10.7,0.2,12.3,2.7,12.5c8.9,4.3,9.3-7.4,10.1-16.9
				c0.9-9.5,2.6-7.3,7.1-8.2c8.9,2.3,0.9,19.3-0.8,23c3.4,12.3,10.4,3.4,10.4,3.4s2-12.5,7.4-18.3s6.2-4,12.1-2.4
				c9.3,5.6,0.5,14.2-0.1,20.2c1.4,17.8,7.4,8.9,7.4,8.9s2.5-2.4,4.3-13.6c1.8-11.3,9.7-10.2,9.7-10.2c13.3-0.6,8.2,21.7,9,30.6
				c0.8,8.9,5.5,10.4,9.4,3.4s1.6-17.1,1.6-17.1c0.2-10.6,5.8-8,5.8-8c13.8,3.9,7.3,20.8,6.8,26.2c3.8,11.4,9.8,2.8,9.8,2.8
				s-1.9-12.2,4.7-15.5c6.5-3.2,5.7,7,4,20c-1.6,12.9,8.1,5.2,8.1,5.2s-1.2-4.5,0.7-17.1c1.9-12.6,7.8-6.2,7.8-6.2s2.6,2.5-1.8,19.4
				s3.6,14.5,3.6,14.5"/>
			<path class="st0" d="M619.3,330"/>
			<path class="st0" d="M619.2,320.3c0,0,4.8-5.2,5.6-14.6c1-11.5-11.6,0.8-12.2,6C612.3,316.1,618.3,315.9,619.2,320.3"/>
			<path class="st0" d="M612.7,312.6c0,0-8.2,6.1-2.4-4.8s-0.5-12.5-0.5-12.5s-6.5-2.1-8.9,7c-2.3,9.1-0.4,18.5-8.6,8.5
				c-0.5-5.8,3.8-10.8,3-14.5c0,0,0.5-7.6-5.2-6.1c-5.7,1.5-2.3,11.7-2.3,11.7s2.4,7.5-8.2,11.4c-4.2,0-6.6-9.2-5-12.6
				c1.6-3.5,8.6-19.4-2.1-12.5c-1.8,5.8,1,3.3-1.1,12.5c-2.1,9.2-5.4,8.2-13,2.4c-1.6-5.2,3.4-14-1.4-18.9s-9.8-2.9-10.2,1.1
				c-0.3,3.7,1.2,10.1-3.8,10c-0.5,0-1-0.1-1.6-0.2c0,0-12.7-2.7-8.9-13.1c0,0,1.6-2.9-2.9-5.7c-4.5-2.8-7.6-4.7-9.9,1.1
				c-2.2,5.9,0.4,12.5-10.2,9c-2.7-1.4-4.4-5.3-1.7-11.8c2.7-6.5,0.2-8.7-4.7-10.2s-9.3-4-11,5.9s0.1,13.8-9,11.5
				c-1.6-0.7-8.9-2.2-4.2-13s-1.4-14.4-5.8-12c0,0-4.4-0.1-3.7,11.4c0.7,11.5-12.1,12-13.2,13.1c-1.1,1.1-6.2-0.4-1.6-8.4
				c4.6-8,9.2-13.3,0.3-18.8c-3.6-0.3-5.1,0.8-7.6,7.2c-2.5,6.4,2.7,20.9-3.8,17.5c-6.6-3.4-5-12.7-5-12.7"/>
			<path class="st0" d="M424.2,190.9c0,0.6-0.1,1.1-0.2,1.7"/>
			<path class="st0" d="M625.6,250.8c1.6-5.7,4.6-11.4,3.7-18.1c-0.3-2-2.2-3.7-4.2-3.4c-1.5,0.4-3,0.2-3.7,1.7
				c-1.9,4.4-1.4,9.5-2.8,13.9c-0.7,2.5-4.2,1.6-5-1c-1.1-4.1,1.3-8.5,1.7-13c-0.2-3,0.6-7-2.8-8.3c-4-0.9-9.4-2.4-10.8,2.5
				c-2,5.9-2.1,11.9-3.6,17.8c-0.6,1-1.1,1.4-2.1,0.8c-3.8-2.9-4.8-8.5-3.4-12.9c2-4.9,2.9-9.8-1.3-13.7c-3.8-2.9-8-0.7-10.8,2
				c-0.9,4.5-1.8,8.9-2.7,13.4c-0.7,2-1,5.5-3,5.8c-3.6,1.2-4.7-4-4.9-7c0.3-3.5,2.6-6.3,3.9-9.7c1.6-6.9-7.1-11.2-12.7-9.7
				c-6.7,1.9-5,10.7-7.1,16.5c-0.6,1.5-1.7,2.4-2.7,2.3c-3-0.8-4.2-3.9-4-6.4c-0.2-3.6,1.6-6.9,0.9-10c-2-5.2-6.2-9.6-11.7-10.6
				c-2-0.2-3.7,1.7-4.4,3.6c-0.8,3-1.6,6.4-1.9,9.4c-0.6,1.5-0.9,4-3.3,3.2c-2.5-0.7-2.7-3.3-2.5-5.3c-0.2-3,2.6-6.8,0.4-9.6
				c-3.2-3.8-7.6-4.7-12.1-5.6c-5.5-0.5-7.5,4.9-9.4,9.2c-1.2,1.9-2.4,3.8-4.5,4.6c-3.6,0.7-4.7-4-4-6.4c0.5-5.5-2-11.3-7.5-11.8
				c-6.6-0.1-4.9,9.1-6.3,13.6c-0.7,2.5-2,4.9-4.6,5.6c-4.1,0.6-7.4-2.2-8.6-5.8c-0.3-2.5,1-5,1.7-7.4c1.5-4.9,1.5-11-4.4-12.5
				c-4-0.9-8.5-1.3-11.7,1.5c-2.8,2.8-2.1,6.9-1.5,10.5c0.3,2.5-0.1,6.6-2.6,6.8c-3.6,0.7-8.6,0.2-11.4-2.5
				c-1-5.1,0.5-10.6-0.1-15.7c-3.6-4.9-9.1,0.2-13.4,1.4l-0.9,4.3c-0.7,2.5-1.4,5.5,0.9,7.7c3.7-1.7,7.2-1.9,11.1-0.9"/>
			<path class="st1" d="M633.2,188.8c0,0-5.6-41.1-4.3-47.3s-4.6-5.5-8.1-2s0.6,12.4,3.4,24c2.7,11.6,9.9,31.9-0.4,30.8
				c-10.3-1.2-13.9-3.8-10.6-20.6s6.5-38.3-1-31.1c-7.5,7.1-6.8,16.8-4.8,25.3c2,8.5,3.8,30.4-6.2,26.7c0,0-8.9,0.5-7-14.8
				c1.9-15.2,12.7-31.7-1.6-38c-14.3-6.3-9.1,8.5-7.6,17.2c0,0,8.6,35.6-3.7,29.7s-9.1-11.1-4.4-26.2c4.7-15.2,5.8-24.6-2.7-26.2
				s-4.8,9.7-6.9,26.4c-2.1,16.7-1.3,26.1-10.1,20c0,0-11-3.5-7.3-11.3c3.7-7.7,13.8-34.8,1.2-32.7c-12.6,2.1-5.7,10.3-6.6,19.3
				s2.1,23.5-9.7,22.6c-11.8-0.9-17.3-0.8-9.3-13.2c7.9-12.4,15-34.5,3.6-36.5s-17.8-9.2-16.3,9.6s3.6,36.7-4,35.2
				c-7.6-1.5-16.4-1.2-5.1-24.4c11.4-23.2-0.3-29.6-7.6-30.2c-7.3-0.7-12.5-1.4-11.1,13.4c1.4,14.8,9,39.4-2.9,37.6
				c-11.9-1.8-13.5-6.5-12-12.7c1.6-6.2,12.1-36.3-0.2-39.1c-12.4-2.9-14.9-2.9-15.3,7.7s11.9,43.7-5.9,45.4
				c-17.8,1.7-13.5-17.6-13-20.4c0.5-2.7,15.7-37.2,0.2-41.1c-3.5-0.3-3.5-0.3-3.5-0.3s-4.8,0.1-6.3,2.7c-1.5,2.6,11.1,36.6,1,47.8"
				/>
			<path class="st0" d="M628.8,144.3c0,0,5.4-32.5-4.7-20.6s-3,12.6,0.8,13.5"/>
			<path class="st0" d="M614,141.3c0,0,5.4-22.1-3.4-17.5s0.2,7.6-1.5,17s-4.7,17-12.2,3.7c0.5-5.8,2.6-24.5-2.9-23.1
				c-5.5,1.3-9.4,6.7-8.3,18.9c-2.7,3.8-7.7,1.3-6.2-3.6c1.5-4.9-2.4-18.2-5.6-12.4c-3.2,5.8-3.5,16.3-8,17.5
				c-4.5,1.3-11.4,3.7-8.4-4.1c3.1-7.8,0.3-14-4-15.3c-4.3-1.3-9.9-0.7-9.2,9c0.7,9.7-0.3,16.3-5.2,10c-4.9-6.3-6.3-5.3-4.7-13.9
				s-9.9-7.7-9.9-7.7s-7.3,0.5-8.8,4.7c-1.5,4.2-7,9.8-7.4,7.4c-0.2-1.2-1.2-4.4-2.4-10.4c-1.2-6.1-7.5-6.6-10.8-6.9
				c-3.3-0.3-4.9,1.9-6.9,5.3c-2,3.5-2,3.5-2,3.5s-7,9.9-10.6,3.8c-3.6-6.1,4.3-8-4.4-12.1c-8.7-4.1-15.3-4.3-15.7,1.9
				c-0.3,6.2-0.3,8.6-6.6,5.9s-8.8-7.4-6.5-10.4c2.3-3.1-3.9-10-7.4-10.3c-3.4-0.3-0.9,9.6-0.9,9.6"/>
			<path class="st0" d="M629.9,134.7c0,0,9.3,10.4,8.6-4.3c-0.7-14.8-7.8-4.3-7.8-4.3l-0.5,1.6"/>
			<path class="st0" d="M638.6,130.3c0,0,5.5-14.6-1.8-24s-1.5,16.1-1.5,16.1"/>
			<path class="st0" d="M629.6,123.2c0,0,1.2,0.2,1.5-1.2c0,0,4.2-21.9-1.4-19.7c-5.6,2.2-3.7,5-4.2,19.9c0,0-9.7,10.6-11.5,1.3
				c-1.8-9.3,11-17.3,5.6-20.6c-5.4-3.3-12.1-0.2-11.6,8.9c0.5,9.1,0,17.3-5.4,15.2c-5.4-2-7.5,1.3-4.6-8.7
				c2.9-9.9-0.5-20.3-5.1-14.7c-4.6,5.6,0,5.4-3.6,17.8c-3.7,12.5-12.6,7.4-11.7,3.2c1-4.2,11.1-25.8,1.9-21.3
				c-9.2,4.5-3.4,14.8-5.7,20.9s-12.1,5.6-16.2,1.9c-4.1-3.7,2.4-7,1.3-14.2c0,0,1-8.4-6.5-7.3c-7.5,1-3.7,11-4.7,14.7
				c-1,3.7-9.4,13.7-13.6,4.7c-4.2-9,4.4-14.6-5.9-16.7c-10.2-2.1-13.2,0.3-11.7,6.1c1.5,5.9,2,13.9-6.1,8.4s-6.7-4-6-12.1
				c0.7-8.1-12-9.2-13.3-5.8s5.3,8.5-1.2,12.7c-6.4,4.2-22,5-17.9-9.9c0,0,4.4-4.4-13.5-10.4c-5.6,6.5,4.9,12.7-2.1,17.2
				c-7,4.5-18.2-5-15.6-11.8c2.6-6.8,1.2-13.7-2.6-15.5s-3.3,15.7-3.3,15.7"/>
			<path class="st0" d="M634.6,87.6l-0.2-2c1-6.7-0.6-10.2-3-13.4c-2.4-3.2-4.4,0.3-3.8,8.7s-3.5,20.2-0.3,20.9
				c3.2,0.7,6.9,2.4,6-7.7c-0.3-3.7,5.5-19.3,8.3-14.4c4.4,7.8-2.7,30-2.7,30"/>
			<path class="st0" d="M627.3,101.9c0,0-2.6,7.5-5.9,2.4c-3.2-5.1-3.7-6.9-2.3-11.6c1.4-4.7,6-7.3,4.9-17.2
				c-1-9.9-4.5-13.8-10-10.8c-5.6,3-3.8,8.7-3,19.3c0.8,10.6,2.2,25.3-7.6,25.7s-5.1-18.4-3.8-19.8c1.4-1.4,14-21.1,6.5-27.2
				c0,0-10.6-2.7-12.8,10s2.3,41.5-7,35.5c-9.3-6-1.1-18.6,0-25.3c1.1-6.7,7.7-15.7-1.2-19.3S573.9,75,574.4,77.5
				c0.5,2.5,7.1,33.6-2.1,33.9c-0.4,0-0.7,0-1.2-0.1c0,0-18,0.8-12.9-8.8c5.2-9.6,15-31.4,4.7-31.8c-10.3-0.4-14,7.1-13.8,10.4
				s4.2,28.6-4.5,32.5c-8.7,3.9-14.1-2.6-11.1-7.9c3-5.3,12.4-35.5,2.5-34.1c-9.9,1.4-20.1,11.3-18.4,20.4
				c1.7,9.1,1.8,22.3-7.4,20.2s-8.5-9.6-5.9-15.9s2.1-20.3-4.5-22.9c-6.6-2.6-15.2-5.4-13.5,3.7c1.7,9.1,8.3,33.6-0.5,33
				c-8.8-0.6-16.8-1.4-14-9.7s5.2-29.3,1.7-35.7c-3.5-6.4-20.2-16.2-19-2c1.2,14.2,6.9,40.3,0.1,38.2s-17.9-9-13.9-19.7
				c4-10.7,6.5-19,2-27c0,0-3.2-5.6-5.6-3.6c-2.4,2.1-5.5,5.3-3.9,15.8c1.6,10.5,7.4,17.3,4.9,20.2"/>
			<path class="st0" d="M640,78.9c0,0,10.4-42.7,0-30.3c-10.5,12.4-2.3,32.5-2.3,32.5"/>
			<path class="st0" d="M631.4,72.2c0,0,9.5-21.7,4.5-23.4c-4.9-1.7-3,5-5,12.9s-1.8,12.4-4.9,10c-3.1-2.4-3.1-7-0.5-11.8
				s3.2-15.1-4.3-12.6c-7.5,2.5-8,10.7-7.6,14.1c0.5,3.4-4,8.1-6.3,2.6s1.8-14.8-6-14.5c-7.9,0.3-7,10.5-6.3,13.8
				c0.7,3.3-0.6,7.6-6.5,2.6c-0.7-3.5,2.9-6.5,1-10.7s-9.4-5.6-10.8-1.2c-1.4,4.4,1.9,9.7-2.6,15c-4.5,5.3-8,7.7-10.6,2.5
				c-2.6-5.3,3.5-10.6-2.6-12.7c-6.1-2.2-9.5-0.6-10.1,5.3c-0.5,6,0.4,15.4-5.3,14.4c-5.7-1-10.3-6.5-10.5-9.3
				c-0.3-2.8,1.7-10.2-4.6-11.3s-10.9,1.8-11.7,5.5s-0.4,26.2-5.1,25.3c0,0-2.8,2-6.4-2.1c-3.6-4.1-5.5-3-4.1-10.5
				c1.4-7.4,3-16.6-2.9-17.9c-5.9-1.3-11.8-0.3-12.5,4.7s-2.1,12.4-5.1,11.7c-3-0.8-8.4-2.4-9.6-6.1c-1.2-3.7,1.1-6.7-1.2-11.5
				c-2.3-4.8-15.2-18.6-17.1-6.4s-3.4,12.8-8.7,9.8c-4.3-2.4-4.6-5-3.7-10.1c0.2-1.2,0.5-2.5,0.7-4.1c1.5-7.9-4.5-13.2-6.4-7.6
				s-7.8,10-3.4,11.6c4.4,1.6,5.6,1,5.6,1"/>
			<path class="st0" d="M642.9,46.4c0,0,5.5-5.5,3.1-9.3c-2.4-3.8-3.7-2.9-4.9,4.3s-2.4,10.4-5.2,7.4c-2.8-3,1.4-10.2-1.4-12.7
				c-2.8-2.5-4.9-4.5-5.6,3.8s-3.4,7.2-3.3,9s5.2,7.5,7.4,0.7"/>
			<path class="st0" d="M631.4,33.9c0,0-3.1-4.1-8.2-0.8c-2.5,1.6-4.2,3.3-5.3,5.8c-1.2,2.7-1.6,6.2-1.4,11.5"/>
			<path class="st0" d="M614,55.1c0,0-8.6,4.3-8.1-4.5c0.5-8.8,2.8-13.9-2.9-12.9c-5.6,1-7.2,1.6-6.5,10.8c0.7,9.2-5,11.4-7.1,6.7
				s0.9-11-2.3-11.6c-3.2-0.6-7.6,2.6-6.1,7.9"/>
			<path class="st0" d="M578.4,60.1c0,0-9.2,6.7-12.9,1c-3.7-5.7-3.1-12.2-7.6-10.1c-4.5,2.1-3.3,2.9-3.4,6.9
				c-0.1,3.9-3.3,8.3-5.8,8.3c-2.5-0.1-10.8,2.7-11.5-1"/>
			<path class="st0" d="M439.9,36.3"/>
			<path class="st0" d="M532.2,57.8c0,0,0.6-8.3-7.2-8.5c-7.8-0.2-2.7,8-2.6,10.7c0.1,2.7-4.7,6-7.3,6.6c-2.6,0.5-10.9,2.8-9.6-5.5
				c1.3-8.3,2.2-16.1-3.4-18.4s-8.7-1.3-10.6,3.1c-1.9,4.4,3.4,10.1-0.1,13.5c-3.5,3.4-14.4,5.3-16.9,0.2c-2.5-5.1-4.3-9.3-0.8-17.8
				c-0.1-4.3-1.5-8.7-8.9-10.1s-6.6,12-6.6,12s-0.7,7.4-4.4,6.6c-3.7-0.8-7.4,3.6-10.2-12c0,0,4.7-13.5,12.7-2.4
				c2.8,3.9,3.8-5,1.7-12.7s6.5-5.2,10.5-4.5c4,0.7,3.5,6,2.4,12.2c-1.1,6.2,6.4,12.7,14.3,16.2s8.5-4.3,7.3-14.3
				c-1.3-9.9,10.6,0,13.8,6.5s-0.1,8.8,0.2,11.5c0.3,2.7,7.9,1.7,10.9,1.9s5-2.9,5-5.4c0.1-2.5-1.6-6.9,3.1-9.2s7.9,5,5.8,11.4
				s4.3,5.4,6.9,5.1c2.6-0.3,11.3,2.9,11.3,2.9c7.8,0.6,5-1.3,2.6-9.2c-2.4-7.9-0.8-8.4,0.9-10c1.7-1.6,7.3-0.3,6.5,5.8
				s3.7,12.4,12.4,11.7c8.6-0.7,6.7-1.8,8.1-12.8c1.4-11,4.5-1.9,4.5-1.9"/>
			<path class="st0" d="M642.8,35.4c0,0-6.2-6.4-7.2-2.9c-1.1,3.5-1.1,3.5-1.1,3.5"/>
			<path class="st0" d="M604.8,32"/>
			<path class="st0" d="M585.7,19.1c0,0,12.8-8.1,14.1-2.2s-0.3,15.9-0.3,15.9s-8.6,1.5-11.4-1c-1.5-1.4-2.8-2.5-3.7,7.3
				s9.5,0.6,14-0.1c4.5-0.7,0.6-5.2,0.7-8.2c0.1-1.9,3.9,0.6,5.8,2.5c0.7,0.7,1.1,1.3,1,1.6c-2.8,8.3,12.4,2.6,12.4,2.6
				s0.9-7.4-5.5-7c0,0-2-0.7-4.4,1.7c-2.4,2.3-2.4,2.3-2.4,2.3"/>
			<path class="st0" d="M596.4,44.4c0,0-3.6,7.3-7.7,2.3"/>
			<path class="st0" d="M457.8,20"/>
			<path class="st0" d="M581.8,37.6c0,0-1,6.6-8.4,7c-7.4,0.4-12.8,3.2-14.9-5.2s-2.1-14.5,2.7-14.6c4.9,0,16.8-1,18.4,3.9
				S581.8,37.6,581.8,37.6z"/>
			<path class="st0" d="M550.4,28.4c0,0,2.5,13.7-1.3,14.7s-24.2,2.6-18.1-11.4C532,28,543.3,22.7,550.4,28.4z"/>
			<path class="st0" d="M557.3,29c0,0-3.1-6.3-6.9-0.6"/>
			<path class="st0" d="M597.7,361.2l0.2-2c2.7-14.4,5.4-8.1,5.4-8.1"/>
			<path class="st0" d="M614.4,356.9c0,0-10.7,16.8-10.2,7.9"/>
			<path class="st0" d="M586.4,427.5c4.1-3.5,8.1,0.2,9,2.5c1.5,7.9,3.8,19.2-2.3,25.2c-2.4,2-10.2,2.4-9.8-2
				c-0.3-8.9,3.8-17.4,2.4-26.3c0.1-1.1-2.1-1.3-3.2-1.4c-9.3,4.7-9.2,15.8-6.9,24.1l4.1,6.6"/>
			<path class="st0" d="M582.4,452.8"/>
			<path class="st0" d="M563.8,447c0.6-6.2,1-12.5,2.9-18.4"/>
			<path class="st0" d="M536.4,460.1l3-22.7c0.4-7.9,1-25.7,11.4-27.6c9-1.6,6.3,13.3,5.4,17.9c-1.2,6.1-2.7,12.1-4.7,18
				c0,0-2.3,5.7-2.1,11.1"/>
			<path class="st0" d="M525,451.3c0.9-9.9,6-14.6,6-14.6c6.9-6.4,8.8-15,2.8-22.2c-4-4.8-11.6-6.6-17.5-2.7c0,0-7.9,10-7.8,38.9
				c2.2,10.6,2.7,17.3,0.1,21.8c-2.6,4.5-6.4,8.7-0.3,15"/>
			<path class="st0" d="M511.3,443.4"/>
			<path class="st0" d="M513,453.4"/>
			<path class="st0" d="M498.5,474.3c1-6.2,6.7-41.4,9.2-47.3c1.8-4.2,4.4-11,2.5-15.7c-1.3-3.3-7.6-2.7-10.7-1.8
				c-11.2,2.9-8.3,16.8-8.7,25.8c0,0,1.2,11.1-1.1,16c0,0-16.3,28.3-7.2,32.6C491.6,488.2,497.8,478.4,498.5,474.3z"/>
			<path class="st0" d="M490.6,438.1"/>
			<path class="st0" d="M490.3,443.8"/>
			<path class="st0" d="M463.2,449.8c3.1-4.5,0.9-16.3,0.9-16.3c0.4-11.1-3-22.5-0.9-33.3c0.1-1.1,1.4-3.2,2.5-3.1
				c5.4,1.6,13.2,1.2,17.1,7.1c4.5,11.5-1.1,24.3-5.7,34.8c0,0-5.1,13.1-1,28.2"/>
			<path class="st0" d="M440.8,430.6c-1.4-12.6-6.8-25.2-1.4-36.9c8.1-3.7,18.8,0.6,21.2,9.7c3.1,14.7-4.8,28.3-9.8,40.8"/>
			<path class="st0" d="M407.4,440.3c-2-4.8,3-5.2,3-5.2c0.7-9.7,0.7-20.8,0.5-30.8c0.6-6.6-0.9-14.5,1.9-20.8
				c9.1-2.5,18.7,1.7,21.3,8.6c6.5,13.9-0.4,28.7-5.3,41.9l-1.9,7"/>
			<path class="st0" d="M579,27.6c6.1-1.5,7.6,3.4,7.6,3.4"/>
			<path class="st0" d="M517.7,25.4c0,0-6.7-8.7-10.1-0.9"/>
			<path class="st0" d="M493.3,21.4c0,0-14.3-7.3-24.8-2.9c0,0,2,1.1,3.2,4.8c1.2,3.7,13.8,8.3,16.8,9s5.4-3.8,4.6-9.1
				c-0.8-5.4,8.6-3.3,13.3-0.8s-5,6.3-1.3,14.7c3.6,8.4,15,6.4,19.2,1.7s-10.2-13-6.1-16.1s10,0.6,13.5,1.2c3.5,0.7-0.7,7.7-0.7,7.7
				s1.5-10.6,8.2-14.6c6.7-4,14.2-8.7,16.8-3.4s4.4,8.4,2.9,11.8"/>
			<path class="st0" d="M439.9,22.5"/>
			<path class="st0" d="M451.5,20"/>
			<path class="st1" d="M421.7,260.1c0,0-0.3-53.4,12-58.3c12.3-4.9,0.6,54.1,0.7,60.6s18.9,9.6,16.5-24.7
				c-2.4-34.3-0.3-35.9,4.9-36.9c16.5,2,15.1,17.5,9.7,34.2c-5.4,16.7-11,24.2-0.5,28.2c10.5,3.9,10-29.8,10.7-34.8
				c0.7-5,1.9-23.3,14.4-22.9c12.6,0.4,3.4,23.8-5.3,41.2c-8.6,17.4-3,18.7,2.4,20.7c17,7.4,12.2-49.6,12.2-49.6
				c1.2-11.8,5.9-10.8,20.3-5.7c14.4,5.1-5.3,36.1-7.6,42.5c-2.3,6.3-8.8,18.9,4.1,22.1c12.8,3.2,9.5-37.5,11-50.2
				c1.5-12.7,5.1-9.6,16.6-3.5c11.6,6.1-8.6,39.1-9,40.8c-0.4,1.7-9.7,23.6,6.5,22.6c16.2-1,8.6-35.9,10-49.4
				c1.5-13.5,6-13.4,16.2-8.7c10.2,4.7-3.1,39.3-7.6,48c-4.6,8.7-1,17,9.1,14.2s6.7-40.3,6-46.4c-0.7-6.1-0.8-10.4,11.9-9.8
				c12.7,0.6,0.2,26.8-6,42.1s0.6,17.2,4,17c12.8-3.1,8.1-34.1,10.5-43.5s3.3-11.6,8.6-11.1c18.3,3.7,7.3,15.6,3.7,21.5
				c-18.8,33.4-12.5,33.3-8.1,38.5c4.4,5.2,13.6-19.1,13.7-37c0.1-17.9,4.6-16.7,7.5-16.5c2.9,0.3,8.7,3.1,1.9,22.4
				c-6.8,19.3-12.1,35.8-7.3,37.1c3,0.9,4.9-2.7,6.3-11.4c0.8-5.1,1.4-11.9,2-20.6c1.6-23.6,6.9-17.3,6.9-17.3s3.7-1.2,0.3,35.6
				c0,0-0.5,8.8-4.1,6.2s-5.3-0.2-5.3-0.2"/>
			<path class="st0" d="M630.5,255.5c0,0,10.7-13.9,1.9-21c-0.9-0.7-1.9-1.3-3.1-1.8c0,0,11.6,6.3,12.2-4.4c0.6-10.7-5.4-14-8.8-8.5
				s-5.9,9.8-5.9,9.8s13.9-21.8,1.9-21.3c0,0-5.9-2.3-5.3,7.8c0.6,10.1,0.2,17.5-4.4,12.8c-4.6-4.8-5.8-3.4-2.1-13.4
				c0,0,5.3-10.9-11.6-11.7c-3.9,1.7,1.5,11.6-1.7,18.6c-3.2,7-14.1,1.9-10.3-8.4c3.7-10.2,0-17.1-4.7-14.5c0,0-4.7,2.1-4.7,7.7
				s-2.3,17.4-7.8,14.2s-4-8.8-2.9-12.9s3.7-15.3-9.4-13.4c-3.2,2-5.3,2.9-4.9,9.1c0.4,6.2-3.5,18.9-9,9.9s2.1-11.9,0.4-17.9
				c0,0,2.4-9.4-8.6-7.6c-4.7,1.8-6.1,0.2-6.6,6.2s-3.4,19.1-8.5,13.3c-5.1-5.7-1.1-9.9-2.2-14.3c-1.1-4.4-1.6-16-11-12.1
				c-9.4,3.9-2.6,13.6-4.6,17.1c-2,3.4-6.2,11-10.6,6c-4.4-5-2.9-10.1,0-16.9c2.9-6.8-1.6-10.2-3.6-10.4c-2-0.2-10.3-3.1-10,7.7
				c0.3,10.8-0.7,18.8-8.6,14.6c-7.9-4.2-7.2-9.9-3.9-18.2c-0.2-3-1.1-5-9-7c-5.3-0.5-9.1-0.4-9.3,7.7c-0.2,8.1-1.5,14.8-8.6,11.8
				c-7.1-3-11.4-5.8-9.5-12.4s2.8-17.2-2.9-18.2s-5.7-1-5.7-1c-5.6,0.3-6.6,19.8-1.6,16.5c5-3.3,10.2,2.7,10.2,2.7
				c-1.3,6.4,9.7,3.9,14.6,0.8c4.8-3.1,6-7,6.5-10.5c0.5-3.5-1.2-9.4,8.5-7.7c9.7,1.7,6.5,9.3,6.5,9.3c-4.9,7.1,7.1,8.3,7.1,8.3
				c7,1.9,7.9-3.5,7.6-8.2c-0.3-4.8,2.5-8.1,9.2-6.5c6.7,1.6,2.8,8.3,2.6,13.2c-0.2,4.8,7.9,4,12.7,3.1c4.8-0.9-0.5-10.1,3-9.7
				c3.5,0.3,9.4-0.9,9.3,8.9c-0.1,9.8,3.4,6.6,8.5,9.6c5.1,3,5.7-7.1,8-10.1c2.3-3.1,2.3-5.8,7.1-5.4c4.8,0.4,5.1,5.5,3.6,8.1
				c-1.5,2.6-1.4,9.7,5.6,13.6c7,3.9,7-7.2,7.8-13.4c0.8-6.2,2.6-6.6,5.9-6.3c3.3,0.3,6.7,6.9,4.2,12.2c-2.5,5.3,0.6,12.9,7.8,14.7
				c7.2,1.7,2.3-11.2,4.6-16.8s6.9-4.2,8.5-2.3s0.6,4.9,0.6,4.9c-2.5,8.6-3.2,10.1,4.9,15.9s3.4-6.8,6.9-14.8c3.5-8,6.5-4.5,8,0.5
				c-0.4,15.4,1.9,15.6,2.6,16.8c0.6,1.2,9.3,5,10.6-6.3c1.3-11.2-1.3-10.7,1.3-14.8c9.3-4.7,2.6,20.6,2.6,20.6"/>
			<path class="st0" d="M625.5,302"/>
			<path class="st0" d="M424.5,190.5c0,0-4.6-6.3-1-11.8"/>
			<path class="st0" d="M414.9,373.2c0,0-17-5.2-0.2-23.9"/>
			<g>
				<path class="st0" d="M397.5,464.8c0,0-11,16.9,0,17.9c2.2-1.5,6.6-15.4,5.2-17.4"/>
				<path class="st0" d="M393.8,481.2c0,0-10.5,65.5,6.5,48.2c0.7-8,2.9-7.8-0.1-25.6c-3-17.8-2.7-21.1-2.7-21.1"/>
				<path class="st0" d="M406.6,465.7c0,0,0.7,16.6,14.4,13.8c2.3-3.4,6.3-3.1,5.6-9.3c-0.8-6.1-10.5-18.8-10.5-18.8"/>
				<path class="st0" d="M407.7,471.4c0,0-5.2,15.2,11.7,18.4c3.2-2.1,2.8-4.8,1.6-10.3"/>
				<path class="st0" d="M400,478.2c0,0,12-3.6,7.7,18.2c-4.3,21.8-12,30.9,0.5,41.8c1.9,1.9,5.6,5.2,7.1-4.1c0,0-0.9-34.4,2.4-44.5
					c4.1-0.6,15.2-4.7,11.2,9.8c-4,14.4-20.4,43.2-7.9,49.8c0,0,6.8,7,9.2,2.9s4.3-24.9,4.3-24.9s2.5-46.2,13.7-28
					c0,0-1.9,10.3-9.6,39.2c-3.6,14.1-7.7,21.5,7.4,25.6c0,0,9.3,0.8,9.3-9.2c0.7-6.7,1.6-14.3,1.6-14.3
					c2.1-45.2,12.5-40.9,12.5-40.9s14,4.9-0.1,31c0,0-21.6,37.7-8.9,41.9c0,0,17.5,11.3,21.7,5.7c4.2-5.7,2.2-23.7,2.2-23.7
					s-0.3-59.3,12.8-40.9c3.6,4.7,8.5,6.2-3.2,35.4c-11.7,29.2-12,32.5,6.1,32.8c18.1,0.3,18.9-15.1,18.9-15.1s-4.8-54.3,8.4-36.9
					c0,0,4.9,5.6-2.1,23c-1.4,4.6-9.3,21,2.2,27.1c3.5,2,6.4,3.9,9.1-3.9s1.8-52.7,14.9-38.4c0,0,1.8,5.9-5.8,22.7
					c-7.6,16.8-6.9,24.3-0.8,27.5c6.1,3.2,10.7,7.7,11.6-1.3s6.8-52.6,19.2-44.4c0,0,5.2,0.1-2.2,48.6"/>
				<path class="st0" d="M531.7,516.8"/>
				<path class="st0" d="M549.8,524.5"/>
				<path class="st0" d="M575.3,518.1c-9.6,1.5-7,25-7,25s-2.1,2.9-10.1,4.1c-8,1.2-7.5-13.5-4.7-22.3c2.8-8.8-1.8-9.9-6-4.2
					c-0.7,1-1.2,2-1.7,3.1c-2.1,5.5-1.3,12.1-3.6,15.5c-20.3-0.6-11.9-11.1-10.6-22.4c1.4-11.3-10.3-5.6-9.3-0.8
					c2.2,12.7-4.6,13-4.6,13c-23.7-5.9-14.9-13.6-14.9-13.6c2-4.3-1.2-8.8-1.2-8.8c-9.6-9.3-8.3-1.1-9.4,0.2
					c-1.1,1.2-2.5,8.9-10,6.5c-7.5-2.4-4.6-9.2-4.1-14.5c-7.3-16.1-11-1.3-13.9,3.5c-2.9,4.8-16.3,6.9-15.3-8.2s-4.4-14.5-6.2-2.2
					c-1.8,12.3-11.5,4.3-13.8-1.3c13.3-14.6-2.4-20.4-2.4-20.4"/>
				<path class="st1" d="M439,481.4c0,0,2.7,10.1,5.3,4.4c2.6-5.6,8.9-19.5,10.3-13c1.4,6.5-5.4,14.1-5.5,17.7
					c3,2.2,20.8,10.3,22.5-1c1.7-11.3,6.1-15.3,8.2-9.3c2.2,5.9-1.4,15-1.4,15s-2.4,8.2,6.8,10c9.3,1.9,9-2.8,9-2.8
					s-5.4-29.6,7-22.5c12.5,7.1,0.3,29.8,0.3,29.8s15.9,11.9,20.6,6.3c4.8-5.6,1-37.3,11.3-20.8c-0.6,6.3-9.4,23.8,6.5,24.9
					c14.8,1,6.9-5.2,7.8-15.2c0.9-10,5.6-13.3,5.3,0.5s-0.5,13.4,6.1,18.4c15.6,2.4,14.1-10.8,14.1-10.8"/>
				<path class="st0" d="M487,483.1"/>
				<path class="st0" d="M372.7,559.1c-6.7,10.5-2.7-14.7,0.3-21.8c3-7.1,3.7,0.3,3.7,0.3c2.1,14.3,7.1,9.1,10.2,2.6
					c-4.9-13.2,2.7-19.3,2.7-19.3l1.1-1.5"/>
				<path class="st0" d="M378.7,545c0,0-16.2,33.7-1,29.4c4.3-3,4.6-13.4,4.6-28"/>
				<path class="st0" d="M389.1,541.3c0,0,4.3,19.4,7.6,8.6c3.3-10.8-1.7-17.5-1.7-17.5"/>
				<path class="st0" d="M404.6,534.4c0,0-8.2,29.8,2.6,26.1c10.8-3.7,3-20.7,3-20.7"/>
				<path class="st0" d="M424,570.1"/>
				<path class="st0" d="M417.2,544.8"/>
				<path class="st0" d="M428,553.3c0,0,0.4,17.2-4,16.8c-12-1.1-6.8-25.4-6.8-25.4"/>
				<path class="st0" d="M420.8,569.8"/>
				<path class="st0" d="M436.7,558.9c0,0-10.8,15.1,3.1,17s9-12.3,9-12.3"/>
				<path class="st0" d="M457,569.1c0,0-4.1,14.4,13.1,18c6.7,0.6,11.1,0.7,12-9.2"/>
				<path class="st0" d="M486.7,578.5c0,0-6.5,12.5,10.7,15.5c17.2,2.9,14.9-15.8,14.9-15.8"/>
				<path class="st0" d="M522.8,575.5c0,0-12.3,17.8-1.9,20.7c10.4,2.9,10.6-14.7,10.6-14.7"/>
				<path class="st0" d="M541.8,585.2c0,0-11.6,13.7,3.7,23.2c4.5,2.4,4.4-8,4.4-8s0.9-7.7,4.8-9.4"/>
				<path class="st0" d="M554.8,591.1c0,0,19-4.5,20.9,2.7s-10.8,24.5-10.8,24.5s-8.7,3.2-19.3-9.8"/>
				<path class="st0" d="M390.9,547.5c0,0-18,38.5-2.9,32.1c3-2.4,6.1-4.2,5.6-9.9c-0.5-5.8,1.5-16.6,1.5-16.6"/>
				<path class="st0" d="M396.8,549.8c0,0,8-2.4,3.6,14.5c-4.4,17-1.8,19.4-1.8,19.4s5.9,6.4,7.8-6.2s0.7-17.1,0.7-17.1
					s9.8-7.7,8.1,5.2c-1.6,12.9-2.4,23.2,4,20c6.6-3.3,4.7-15.5,4.7-15.5s6-8.5,9.8,2.8c-0.5,5.4-7,22.3,6.8,26.2c0,0,5.6,2.6,5.8-8
					c0,0-2.2-10.1,1.6-17.1s8.6-5.4,9.4,3.4c0.8,8.9-4.3,31.2,9,30.6c0,0,7.9,1,9.7-10.2s4.3-13.6,4.3-13.6s6-8.9,7.4,8.9
					c-0.5,6-9.4,14.6-0.1,20.2c5.8,1.5,6.8,3.4,12.1-2.4c5.3-5.8,7.4-18.3,7.4-18.3s7-8.9,10.4,3.4c-1.7,3.7-9.7,20.7-0.8,23
					c4.5-0.9,6.2,1.3,7.1-8.2c0.9-9.5,1.2-21.2,10.1-16.9c2.5,0.2,4.5,1.9,2.7,12.5c-0.3,5.3-0.2,9.3,4.6,7.2s4.6-4.6,6.5-2.8
					s3.5,2.2,4.4,10.1c0.9,7.9,6.6,13.2,20,9.4"/>
				<path class="st0" d="M564.9,618.3"/>
				<path class="st0" d="M370.9,561.3"/>
				<path class="st0" d="M371,571c0,0-4.8,5.2-5.6,14.6c-1,11.5,11.6-0.8,12.2-6C377.9,575.2,371.9,575.4,371,571"/>
				<path class="st1" d="M377.6,578.7c0,0,8.2-6.1,2.4,4.8c-5.8,10.9,0.5,12.5,0.5,12.5s6.5,2.1,8.9-7c2.3-9.1,0.4-18.5,8.6-8.5
					c0.5,5.8-3.8,10.8-3,14.5c0,0-0.5,7.6,5.2,6.1c5.7-1.5,2.3-11.7,2.3-11.7s-2.4-7.5,8.2-11.4c4.2,0,6.6,9.2,5,12.6
					c-1.6,3.5-8.6,19.4,2.1,12.5c1.8-5.8-1-3.3,1.1-12.5c2.1-9.2,5.4-8.2,13-2.4c1.6,5.2-3.4,14,1.4,18.9c4.9,4.9,9.8,2.9,10.2-1.1
					c0.3-3.7-1.2-10.1,3.8-10c0.5,0,1,0.1,1.6,0.2c0,0,12.7,2.7,8.9,13.1c0,0-1.6,2.9,2.9,5.7c4.5,2.8,7.6,4.7,9.9-1.1
					c2.2-5.9-0.4-12.5,10.2-9c2.7,1.4,4.4,5.3,1.7,11.8c-2.7,6.5-0.2,8.7,4.7,10.2c4.9,1.5,9.3,4,11-5.9c1.7-9.9-0.1-13.8,9-11.5
					c1.6,0.7,8.9,2.2,4.2,13s1.4,14.4,5.8,12c0,0,4.4,0.1,3.7-11.4c-0.7-11.5,12.1-12,13.2-13.1c1.1-1.1,6.2,0.4,1.6,8.4
					s-9.2,13.3-0.3,18.8c3.6,0.3,5.1-0.8,7.6-7.2c2.5-6.4-2.7-20.9,3.8-17.5c6.6,3.4,6.5,13.1,6.5,13.1"/>
				<path class="st0" d="M566,700.4c0-0.6,0.1-1.1,0.2-1.7"/>
				<path class="st0" d="M554.6,689.8"/>
				<path class="st0" d="M364.7,640.5c-1.6,5.7-4.6,11.4-3.7,18.1c0.3,2,2.2,3.7,4.2,3.4c1.5-0.4,3-0.2,3.7-1.7
					c1.9-4.4,1.4-9.5,2.8-13.9c0.7-2.5,4.2-1.6,5,1c1.1,4.1-1.3,8.5-1.7,13c0.2,3-0.6,7,2.8,8.3c4,0.9,9.4,2.4,10.8-2.5
					c2-5.9,2.1-11.9,3.6-17.8c0.6-1,1.1-1.4,2.1-0.8c3.8,2.9,4.8,8.5,3.4,12.9c-2,4.9-2.9,9.8,1.3,13.7c3.8,2.9,8,0.7,10.8-2
					c0.9-4.5,1.8-8.9,2.7-13.4c0.7-2,1-5.5,3-5.8c3.6-1.2,4.7,4,4.9,7c-0.3,3.5-2.6,6.3-3.9,9.7c-1.6,6.9,7.1,11.2,12.7,9.7
					c6.7-1.9,5-10.7,7.1-16.5c0.6-1.5,1.7-2.4,2.7-2.3c3,0.8,4.2,3.9,4,6.4c0.2,3.6-1.6,6.9-0.9,10c2,5.2,6.2,9.6,11.7,10.6
					c2,0.2,3.7-1.7,4.4-3.6c0.8-3,1.6-6.4,1.9-9.4c0.6-1.5,0.9-4,3.3-3.2c2.5,0.7,2.7,3.3,2.5,5.3c0.2,3-2.6,6.8-0.4,9.6
					c3.2,3.8,7.6,4.7,12.1,5.6c5.5,0.5,7.5-4.9,9.4-9.2c1.2-1.9,2.4-3.8,4.5-4.6c3.6-0.7,4.7,4,4,6.4c-0.5,5.5,2,11.3,7.5,11.8
					c6.6,0.1,4.9-9.1,6.3-13.6c0.7-2.5,2-4.9,4.6-5.6c4.1-0.6,7.4,2.2,8.6,5.8c0.3,2.5-1,5-1.7,7.4c-1.5,4.9-1.5,11,4.4,12.5
					c4,0.9,8.5,1.3,11.7-1.5c2.8-2.8,2.1-6.9,1.5-10.5c-0.3-2.5,0.1-6.6,2.6-6.8c3.6-0.7,8.6-0.2,11.4,2.5c1,5.1-0.5,10.6,0.1,15.7
					c3.6,4.9,9.1-0.2,13.4-1.4l0.9-4.3c0.7-2.5,1.4-5.5-0.9-7.7"/>
				<path class="st0" d="M357,702.5c0,0,5.6,41.1,4.3,47.3c-1.3,6.2,4.6,5.5,8.1,2c3.6-3.5-0.6-12.4-3.4-24
					c-2.7-11.6-9.9-31.9,0.4-30.8c10.3,1.2,13.9,3.8,10.6,20.6s-6.5,38.3,1,31.1c7.5-7.1,6.8-16.8,4.8-25.3
					c-2-8.5-3.8-30.4,6.2-26.7c0,0,8.9-0.5,7,14.8s-12.7,31.7,1.6,38s9.1-8.5,7.6-17.2c0,0-8.6-35.6,3.7-29.7
					c12.3,5.9,9.1,11.1,4.4,26.2s-5.8,24.6,2.7,26.2c8.4,1.5,4.8-9.7,6.9-26.4s1.3-26.1,10.1-20c0,0,11,3.5,7.3,11.3
					s-13.8,34.8-1.2,32.7c12.6-2.1,5.7-10.3,6.6-19.3c0.8-9-2.1-23.5,9.7-22.6c11.8,0.9,17.3,0.8,9.3,13.2s-15,34.5-3.6,36.5
					c11.4,2,17.8,9.2,16.3-9.6c-1.6-18.8-3.6-36.7,4-35.2s16.4,1.2,5.1,24.4c-11.4,23.2,0.3,29.6,7.6,30.2
					c7.3,0.7,12.5,1.4,11.1-13.4s-9-39.4,2.9-37.6c11.9,1.8,13.5,6.5,12,12.7c-1.6,6.2-12.1,36.3,0.2,39.1
					c12.4,2.9,14.9,2.9,15.3-7.7c0.5-10.6-11.9-43.7,5.9-45.4s13.5,17.6,13,20.4c-0.5,2.7-15.7,37.2-0.2,41.1
					c3.5,0.3,3.5,0.3,3.5,0.3s4.8-0.1,6.3-2.7s-11.1-36.6-1-47.8"/>
				<path class="st1" d="M650,1025.2c0,0,7.3-29.1,14.4-29.9c1.8,5.1,18.7,23.5,20.4,24.8c1.7,1.3,22.4-19.4,22.8-19.8
					c0.4-0.5,15.3,12.8,12.8,21.6c0,0-4.5,18.3-12,32.8c-7.5,14.5-11.3-2.4-18.3-24c-7-21.7-6.6-5.3-14.2,8.7
					c-7.6,14-15.6,10.2-15.6,10.2s-9.5-33.7-11.9-21.6c-2.3,12-23.6,18.4-23.6,18.4c-3.4-3.8,0.9-13.6,0.9-13.6s11-28.8,8.7-31.9
					s-3,2.2-13.3-1.5c-10.3-3.7-7.5,30.7-6.7,40.1c0.8,9.4-6.5,7.5-13.6,4.9c-7.1-2.6,1.3-16.2,4.2-27.8c2.9-11.6-3.2-13.8-12-17.5
					c-8.8-3.7-4.8,34.4-4.8,40.4c0,6-12,6.1-18.6,0c-6.6-6,7-17.6,12.5-36.4c5.5-18.8-9.8-18.3-22-18.3s-14.2,7.9-14.2,7.9
					c-10.1,11.5,2.4,46.2,0.9,48.9c-1.5,2.7-6.3,2.8-6.3,2.8s0,0-3.5-0.3c-15.5-4-0.4-39.4,0.3-42.1c4.7-17.7-3.3-36.2-22.7-28.5
					c-16.7,6.6,4.1,43.4,3.7,54.2c-0.5,10.8-3,10.8-15.4,7.9c-12.4-2.9-1.9-33.8-0.1-40.1c2.5-8.9,3.3-47.7-18.9-20.3
					c-7.6,9.4,2.6,30.7,4,45.8c1.4,15.1-3.8,14.4-11.1,13.7c-7.3-0.7-17.8-6.6-7.5-30.9c11-26.1-0.5-39.2-5-25
					c-2.4,7.4-5.6,16.8-4.1,36.1c1.5,19.3-4.9,12-16.3,9.9c-11.4-2.1-3.5-24.2,3.7-37.4c8.2-15.2-1.7-30.7-14.9-16.2
					c-7.9,8.8-3.3,16.6-4.2,25.8c-0.8,9.2,6,17.6-6.6,19.8c-12.6,2.2-2.5-25.6,1.3-33.5c3.7-7.9-5.4-19.8-5.4-19.8
					c-8.8-6.2-9.9,11.6-12.1,28.8s1.4,28.6-7,27c-8.4-1.5-7-11.2-2.6-26.8c4.8-17,8.8-30.9-4.1-31.5c-13.7-0.6-4.1,35-4.1,35
					c1.5,8.9,6.6,24.1-7.7,17.7c-14.3-6.5-3.4-23.3-1.5-38.9c1.9-15.6-6.9-11.7-6.9-11.7c-10-3.8-8.3,15.3-6.3,24s2.6,18.6-4.9,25.9
					c-7.5,7.3-4.2-14.6-0.9-31.9c3.3-17.3-0.2-19.9-10.5-21.1c-10.3-1.2-3.2,19.6-0.5,31.5s6.9,21.1,3.3,24.6s-3.1,2-8.1-2
					c-7.4-6-9.2-59.3-5.2-59.5"/>
				<path class="st1" d="M634.6,1000.6"/>
				<path class="st0" d="M361.5,747c0,0-5.4,32.5,4.7,20.6c10.2-11.9,3-12.6-0.8-13.5"/>
				<path class="st0" d="M376.2,750c0,0-5.4,22.1,3.4,17.5c8.8-4.6-0.2-7.6,1.5-17c1.8-9.4,4.7-17,12.2-3.7
					c-0.5,5.8-2.6,24.5,2.9,23.1c5.5-1.3,9.4-6.7,8.3-18.9c2.7-3.8,7.7-1.3,6.2,3.6c-1.5,4.9,2.4,18.2,5.6,12.4
					c3.2-5.8,3.5-16.3,8-17.5c4.5-1.3,11.4-3.7,8.4,4.1c-3.1,7.8-0.3,14,4,15.3c4.3,1.3,9.9,0.7,9.2-9c-0.7-9.7,0.3-16.3,5.2-10
					c4.9,6.3,6.3,5.3,4.7,13.9c-1.6,8.6,9.9,7.7,9.9,7.7s7.3-0.5,8.8-4.7c1.5-4.2,7-9.8,7.4-7.4c0.2,1.2,1.2,4.4,2.4,10.4
					c1.2,6.1,7.5,6.6,10.8,6.9s4.9-1.9,6.9-5.3s2-3.5,2-3.5s7-9.9,10.6-3.8c3.6,6.1-4.3,8,4.4,12.1s15.3,4.3,15.7-1.9
					c0.3-6.2,0.3-8.6,6.6-5.9c6.3,2.7,8.8,7.4,6.5,10.4s3.9,10,7.4,10.3c3.4,0.3,0.9-9.6,0.9-9.6"/>
				<path class="st0" d="M360.3,756.7c0,0-9.3-10.4-8.6,4.3c0.7,14.8,7.8,4.3,7.8,4.3l0.5-1.6"/>
				<path class="st0" d="M351.7,761c0,0-5.5,14.6,1.8,24c7.3,9.4,1.5-16.1,1.5-16.1"/>
				<path class="st0" d="M360.6,768.1c0,0-1.2-0.2-1.5,1.2c0,0-4.2,21.9,1.4,19.7c5.6-2.2,3.7-5,4.2-19.9c0,0,9.7-10.6,11.5-1.3
					s-11,17.3-5.6,20.6c5.4,3.3,12.1,0.2,11.6-8.9c-0.5-9.1,0-17.3,5.4-15.2s7.5-1.3,4.6,8.7c-2.9,9.9,0.5,20.3,5.1,14.7
					s0-5.4,3.6-17.8c3.7-12.5,12.6-7.4,11.7-3.2s-11.1,25.8-1.9,21.3s3.4-14.8,5.7-20.9c2.3-6.1,12.1-5.6,16.2-1.9s-2.4,7-1.3,14.2
					c0,0-1,8.4,6.5,7.3s3.7-11,4.7-14.7c1-3.7,9.4-13.7,13.6-4.7c4.2,9-4.4,14.6,5.9,16.7s13.2-0.3,11.7-6.1s-2-13.9,6.1-8.4
					c8.2,5.5,6.7,4,6,12.1c-0.7,8.1,12,9.2,13.3,5.8c1.3-3.4-5.3-8.5,1.2-12.7c6.4-4.2,22-5,17.9,9.9c0,0-4.4,4.4,13.5,10.4
					c5.6-6.5-4.9-12.7,2.1-17.2c7-4.5,18.2,5,15.6,11.8c-2.6,6.8-1.2,13.7,2.6,15.5c3.9,1.9,3.3-15.7,3.3-15.7s5.5-7.9,10.6-5.9
					c5.1,2,10.1,7.7,8.3,13.7"/>
				<path class="st0" d="M340.9,941.7c0,0-1.2-0.2-1.5,1.2"/>
				<path class="st0" d="M351.4,781.5c0,0-7.2,22.2-2.7,30c2.8,5,8.7-10.7,8.3-14.4c-0.9-10,2.7-8.4,6-7.7
					c3.2,0.7-0.9,12.5-0.3,20.9c0.6,8.5-1.4,12-3.8,8.7c-2.4-3.2-4-6.7-3-13.4l-0.2-2"/>
				<path class="st0" d="M292.1,802.4"/>
				<path class="st1" d="M363,789.5c0,0,2.6-7.5,5.9-2.4c3.2,5.1,3.7,6.9,2.3,11.6c-1.4,4.7-6,7.3-4.9,17.2s4.5,13.8,10,10.8
					c5.6-3,3.8-8.7,3-19.3c-0.8-10.6-2.2-25.3,7.6-25.7c9.9-0.4,5.1,18.4,3.8,19.8c-1.4,1.4-14,21.1-6.5,27.2c0,0,10.6,2.7,12.8-10
					s-2.3-41.5,7-35.5c9.3,6,1.1,18.6,0,25.3c-1.1,6.7-7.7,15.7,1.2,19.3c8.9,3.6,11.2-11.3,10.7-13.9c-0.5-2.5-7.1-33.6,2.1-33.9
					c0.4,0,0.7,0,1.2,0.1c0,0,18-0.8,12.9,8.8c-5.2,9.6-15,31.4-4.7,31.8c10.3,0.4,14-7.1,13.8-10.4c-0.2-3.3-4.2-28.6,4.5-32.5
					c8.7-3.9,14.1,2.6,11.1,7.9c-3,5.3-12.4,35.5-2.5,34.1c9.9-1.4,20.1-11.3,18.4-20.4c-1.7-9.1-1.8-22.3,7.4-20.2
					c9.1,2.1,8.5,9.6,5.9,15.9c-2.6,6.3-2.1,20.3,4.5,22.9c6.6,2.6,15.2,5.4,13.5-3.7c-1.7-9.1-8.3-33.6,0.5-33
					c8.8,0.6,16.8,1.4,14,9.7c-2.8,8.3-5.2,29.3-1.7,35.7s20.2,16.2,19,2c-1.2-14.2-6.9-40.3-0.1-38.2c6.9,2.2,17.9,9,13.9,19.7
					s-6.5,19-2,27c0,0,3.2,5.6,5.6,3.6c2.4-2.1,5.5-5.3,3.9-15.8c-1.6-10.5,10-16.6,12.5-19.6"/>
				<path class="st0" d="M352.8,810.4"/>
				<path class="st0" d="M319.7,813.9c0,0-5.4,19.1-3.4,21.6c1.9,2.6,4.2,8.3,12.5,1.6c8.3-6.8,4.3-26.8,10.6-26.9s6.4-2.7,10.9,2.2
					c-4.3-2.2-12.5,42.8,1.3,29.4"/>
				<path class="st0" d="M316.7,826.4"/>
				<path class="st0" d="M358.8,819.1c0,0-9.5,21.7-4.5,23.4c4.9,1.7,3-5,5-12.9s1.8-12.4,4.9-10c3.1,2.4,3.1,7,0.5,11.8
					s-3.2,15.1,4.3,12.6s8-10.7,7.6-14.1c-0.5-3.4,4-8.1,6.3-2.6c2.3,5.6-1.8,14.8,6,14.5c7.9-0.3,7-10.5,6.3-13.8
					c-0.7-3.3,0.6-7.6,6.5-2.6c0.7,3.5-2.9,6.5-1,10.7c1.9,4.2,9.4,5.6,10.8,1.2s-1.9-9.7,2.6-15c4.5-5.3,8-7.7,10.6-2.5
					c2.6,5.3-3.5,10.6,2.6,12.7c6.1,2.2,9.5,0.6,10.1-5.3c0.5-6-0.4-15.4,5.3-14.4c5.7,1,10.3,6.5,10.5,9.3s-1.7,10.2,4.6,11.3
					s10.9-1.8,11.7-5.5s0.4-26.2,5.1-25.3c0,0,2.8-2,6.4,2.1c3.6,4.1,5.5,3,4.1,10.5c-1.4,7.4-3,16.6,2.9,17.9
					c5.9,1.3,11.8,0.3,12.5-4.7c0.7-5,2.1-12.4,5.1-11.7c3,0.8,8.4,2.4,9.6,6.1c1.2,3.7-1.1,6.7,1.2,11.5s15.2,18.6,17.1,6.4
					c1.9-12.2,3.4-12.8,8.7-9.8c4.3,2.4,4.6,5,3.7,10.1c-0.2,1.2-0.5,2.5-0.7,4.1c-1.5,7.9,4.5,13.2,6.4,7.6c2-5.6,6.9-7.2,2.5-8.7
					c-4.4-1.6-4.6-3.9-4.6-3.9"/>
				<path class="st0" d="M328.8,837.1c-1.8,10.1,0,27.2,7.3,22.4c4-2.7-0.3-16.6,2.5-18.5s4.5-3.7,6.4,1.2c0,0-3.1,8.4-0.7,12.1
					s3.7,2.9,4.9-4.3c1.2-7.2,2.4-10.4,5.2-7.4c2.8,3-1.4,10.2,1.4,12.7c2.8,2.5,4.9,4.5,5.6-3.8c0.8-8.3,3.4-7.2,3.3-9
					c-0.1-1.8-7.2-4.9-9.4,2"/>
				<path class="st1" d="M328.8,837.1"/>
				<path class="st1" d="M323.9,854.9"/>
				<path class="st0" d="M358.9,857.5c0,0,3.1,4.1,8.2,0.8c2.5-1.6,4.2-3.3,5.3-5.8c1.2-2.7,1.6-6.2,1.4-11.5"/>
				<path class="st0" d="M376.2,836.3c0,0,8.6-4.3,8.1,4.5c-0.5,8.8-2.8,13.9,2.9,12.9c5.6-1,7.2-1.6,6.5-10.8
					c-0.7-9.2,5-11.4,7.1-6.7s-0.9,11,2.3,11.6c3.2,0.6,7.6-2.6,6.1-7.9"/>
				<path class="st0" d="M411.8,831.3c0,0,9.2-6.7,12.9-1s3.1,12.2,7.6,10.1c4.5-2.1,3.3-2.9,3.4-6.9s3.3-8.3,5.8-8.3
					c2.5,0.1,10.8-2.7,11.5,1"/>
				<path class="st0" d="M458,833.5c0,0-0.6,8.3,7.2,8.5c7.8,0.2,2.7-8,2.6-10.7c-0.1-2.7,4.7-6,7.3-6.6c2.6-0.5,10.9-2.8,9.6,5.5
					c-1.3,8.3-2.2,16.1,3.4,18.4c5.6,2.3,8.7,1.3,10.6-3.1c1.9-4.4-3.4-10.1,0.1-13.5s14.4-5.3,16.9-0.2c2.5,5.1,4.3,9.3,0.8,17.8
					c0.1,4.3,1.5,8.7,8.9,10.1s6.6-12,6.6-12s0.7-7.4,4.4-6.6c3.7,0.8,7.4-3.6,10.2,12c-1.1,4.5-5.5,11.9-1.4,15
					c4.1,3.1,6.4,1.6,5.7-5.8s-0.6-7.4-0.6-7.4"/>
				<path class="st0" d="M347.4,855.9c0,0,6.2,6.4,7.2,2.9c1.1-3.5,1.1-3.5,1.1-3.5"/>
				<path class="st0" d="M385.4,859.3"/>
				<path class="st0" d="M390.6,858.5c0,0,8.6-1.5,11.4,1c1.5,1.4,2.8,2.5,3.7-7.3s-9.5-0.6-14,0.1c-4.5,0.7-0.6,5.2-0.7,8.2
					c-0.1,1.9-3.9-0.6-5.8-2.5c-0.7-0.7-1.1-1.3-1-1.6c2.8-8.3-12.4-2.6-12.4-2.6s-0.9,7.4,5.5,7c0,0,2,0.7,4.4-1.7
					c2.4-2.3,2.4-2.3,2.4-2.3"/>
				<path class="st0" d="M393.8,846.9c0,0,3.6-7.3,7.7-2.3"/>
				<path class="st0" d="M408.5,853.7c0,0,1-6.6,8.4-7c7.4-0.4,12.8-3.2,14.9,5.2c2.1,8.4,2.1,14.5-2.7,14.6s-16.8,1-18.4-3.9
					C409,857.9,408.5,853.7,408.5,853.7z"/>
				<path class="st0" d="M439.8,862.9c0,0-2.5-13.7,1.3-14.7s24.2-2.6,18.1,11.4C458.2,863.3,446.9,868.6,439.8,862.9z"/>
				<path class="st0" d="M432.9,862.3c0,0,3.1,6.3,6.9,0.6"/>
				<path class="st0" d="M392.5,530.1l-0.2,2c-2.7,14.4-5.4,8.1-5.4,8.1"/>
				<path class="st0" d="M375.8,534.5c0,0,10.7-16.8,10.2-7.9"/>
				<path class="st0" d="M407.4,438c-2.6-3.3-7.7-3.3-10.8-0.6c-1.4,1.2-1.3,1.9-1.7,3.8c-1.1,6.5-2.7,16.2,1.3,22.1
					c0,0,1.2,4.2,10.4,2.4"/>
				<path class="st0" d="M410.4,435.1l3.9,5.6c1.5,7.8,3.5,15.1-2.7,21.8c-8.3,9-7.4-4.4-6.6-9.7c0.6-4.2,1.4-8.3,2.3-12.4"/>
				<path class="st0" d="M426.8,441c-0.9,7.1-1.1,15-3.3,21.8"/>
				<path class="st0" d="M450.9,444.2c-4,12.5,3.2,30.5-10.6,36.9c-2.3,0.9-6.6-0.6-7.3-5.1c-0.1-11.1,1.9-20.8,5.7-30.4"/>
				<path class="st0" d="M476.1,467.2c-0.5,0,3,5.5-3.1,12.9c-3.4,3.8-9.2,2.4-13.1,0.1c-4.5-2.7-7.2-7.5-6.4-12.8
					c1-6.7,6.2-12,9.6-17.6"/>
				<path class="st0" d="M478.5,434.8"/>
				<path class="st0" d="M514.2,451.1"/>
				<path class="st0" d="M525,451.3c-1.1,11.1,1,24.4,3.4,34.6c0.7,4.5-4,7.4-7.3,7.1c-4.4-0.4-9.8-2-12.8-5.6"/>
				<path class="st0" d="M549.5,455.3c-0.9,14.7,7.8,28.8,1.1,41.4c-1.2,1-3.5,1.9-5.8,2.8c-6.8,1.6-10.8-3.2-13.6-9
					c-3.6-9.2,3.6-17.4,4.7-27.2c0.1-1.1,0.3-3.3,0.8-5.4"/>
				<path class="st0" d="M583.7,454.9c1.3,2.1-3.9,1.3-3.9,1.3c-4.4,16.4-2.7,31.8,0.2,46.5c0.6,3.2-2.7,5.3-6.1,6.1
					c-7.8,0.4-16.4-2.6-18.9-10.6c-5.3-14.9,4.9-29.4,8-43.4"/>
				<path class="st0" d="M670.6,484.5"/>
				<path class="st0" d="M681.8,457.5"/>
				<path class="st1" d="M603.7,480.1c0,0,6.8-25.7,11.5-15.8c4.7,9.9,11.6,18.4,11.6,18.4s18.8-27.8,25.9-20.8
					c7.1,7,18,22.6,18,22.6s7-26.4,11.2-17.8c4.2,8.6,8.4,22.4,8.4,22.4s-7.3,27-10.9,24.1c-3.5-2.9-8.7-21.5-8.7-28.7
					c-3.2,0.2-15,18.8-20.2,24.2c-5.1,5.4-19.3-19.4-23.7-26c-6,0.2-11.2,19.2-16,20C603.5,503.9,603.5,486.8,603.7,480.1
					c0.2-6.6-23.7,22.7-23.7,22.7"/>
				<path class="st0" d="M403.6,860.4c0,0,1.5,4.9,7.6,3.4"/>
				<path class="st0" d="M472.5,865.9c0,0,6.7,8.7,10.1,0.9"/>
				<path class="st0" d="M459.3,859.6c0,0-4.2,7.1-0.7,7.7c3.5,0.7,9.5,4.3,13.5,1.2c4.1-3.1-10.4-11.3-6.1-16.1
					c4.2-4.7,15.6-6.7,19.2,1.7c3.6,8.4-6,12.2-1.3,14.7c4.7,2.5,14,4.6,13.3-0.8c-0.8-5.4,1.7-9.9,4.6-9.1s15.6,5.3,16.8,9
					c1.2,3.7,3.2,4.8,3.2,4.8c-10.5,4.5-24.8-2.9-24.8-2.9s4.5,10.7-0.9,22.6c-5.4,11.9,6.1,10.1,13.8,10s13-1.4,11.9-10.4
					c-1.1-9-3.4-14.9,1.2-16.7c4.5-1.8,9.5-2.2,9.5-2.2l4.6,0.5c4.5,2.7,6.8,2.7,7.2-1.3c0.4-4-1.7-3.4-0.7-8.6c1-5.2-5-6.8-9.6-8.2
					c-4.6-1.4-3.8,5-1.7,12.7c2.1,7.8-6.5,5.2-10.5,4.5c-4-0.7-3.5-6-2.4-12.2s-6.4-12.7-14.3-16.2c-7.9-3.5-8.5,4.3-7.3,14.3
					c1.3,9.9-10.6,0-13.8-6.5s0.1-8.8-0.2-11.5c-0.3-2.7-7.9-1.7-10.9-1.9c-3-0.2-5,2.9-5,5.4c-0.1,2.5,1.6,6.9-3.1,9.2
					c-4.8,2.3-7.9-5-5.8-11.4c2.1-6.4-4.3-5.4-6.9-5.1s-11.3-2.9-11.3-2.9c-7.8-0.6-5,1.3-2.6,9.2c2.4,7.9,0.8,8.4-0.9,10
					s-7.3,0.3-6.5-5.8s-3.7-12.4-12.4-11.7c-8.6,0.7-6.7,1.8-8.1,12.8c-1.4,11-4.5,1.9-4.5,1.9"/>
				<path class="st0" d="M568.5,631.2c0,0,5.2-2,8.9-3c3.8-1,9.6,8.2,6.2,16.4c0,0-11.3,44.8-5.5,45.8c5.9,1.1,13.3-0.6,15.2-19.8
					s-12.2-46.7-3-47.2c0,0,5.3-1.9,10.1,3.8c4.8,5.8-3.2,43.5,4.5,44.9s21.3,8.7,20.3,0.9c-1-7.8-21.3-22.7-18-48.2
					c3.4-10.1,10.3-13,17.9-0.5c7.6,12.5,8.8,46.2,8.8,46.2"/>
				<path class="st0" d="M368.9,594.2c0,0-1.8,2.4-5.3-0.2c-3.6-2.6-4.1,6.2-4.1,6.2c-3.4,36.7,0.3,35.6,0.3,35.6s5.3,6.3,6.9-17.3
					c0.6-8.7,1.2-15.5,2-20.6c1.4-8.7,3.2-12.3,6.3-11.4c4.8,1.4-0.5,17.8-7.3,37.1c-6.8,19.3-1,22.1,1.9,22.4
					c2.9,0.3,7.4,1.4,7.5-16.5c0.1-17.9,9.3-42.2,13.7-37c4.4,5.2,10.7,5.1-8.1,38.5c-3.6,6-14.6,17.9,3.7,21.5
					c5.2,0.5,6.2-1.7,8.6-11.1s-2.3-40.3,10.5-43.5c3.4-0.2,10.2,1.7,4,17c-6.2,15.3-18.7,41.5-6,42.1c12.7,0.6,12.6-3.7,11.9-9.8
					c-0.7-6.1-4.2-43.6,6-46.4c10.1-2.8,13.7,5.5,9.1,14.2c-4.6,8.7-17.8,43.3-7.6,48c10.2,4.7,14.7,4.8,16.2-8.7
					c1.5-13.5-6.2-48.4,10-49.4c16.2-1,6.9,20.9,6.5,22.6c-0.4,1.7-20.6,34.7-9,40.8s15.1,9.2,16.6-3.5c1.5-12.7-1.9-53.4,11-50.2
					c12.8,3.2,6.4,15.7,4.1,22.1s-22.1,37.4-7.6,42.5c14.4,5.1,19.1,6,20.3-5.7c0,0-4.8-57.1,12.2-49.6c5.5,2,11.1,3.3,2.4,20.7
					c-8.6,17.4-17.8,40.8-5.3,41.2c12.6,0.4,13.7-17.9,14.4-22.9c0.7-5,0.2-38.7,10.7-34.8c10.5,3.9,4.9,11.5-0.5,28.2
					c-5.4,16.7-6.8,32.2,9.7,34.2c5.1-1,7.3-2.6,4.9-36.9c-2.4-34.3,21.4-28.7,21.5-16.7c0,0-11.2,40.1-8.5,49.7
					c1.7,6.2,6.1,13.6,13.4,2.2c0,0-3.2-10.6,2.9-10.7c6.2,0,5.6,11.7,9.6,12.3c4,0.6,19.4,4.6,18.1-0.5c-1.3-5.1-7.7-12.2-1.6-14.7
					c6.1-2.6,11.6-3.2,12.7,0c1.1,3.2,2.9,9.7,3.5,11.2c0.6,1.5,13.8,8.7,14.4,1c0.6-7.7-3.8-12.7,0-14.4c3.8-1.7,9.4-4.1,10.6-1
					s0,13.5,0,13.5"/>
				<path class="st0" d="M337.2,662.7c0,0-5.9-28.2,1.4-28.3c7.4,0,7.4,10.3,6.8,22.5c-0.6,12.2,1,15,5.5,0.9s-6.8-26,0.3-25.7
					c7.1,0.4,8.4,3.6,8.4,3.6s-10.7,13.9-1.9,21c0.9,0.7,1.9,1.3,3.1,1.8c0,0-11.6-6.3-12.2,4.4c-0.6,10.7,5.4,14,8.8,8.5
					c3.4-5.4,5.9-9.8,5.9-9.8s-13.9,21.8-1.9,21.3c0,0,5.9,2.3,5.3-7.8c-0.6-10.1-0.2-17.5,4.4-12.8c4.6,4.8,5.8,3.4,2.1,13.4
					c0,0-5.3,10.9,11.6,11.7c3.9-1.7-1.5-11.6,1.7-18.6c3.2-7,14.1-1.9,10.3,8.4s0,17.1,4.7,14.5c0,0,4.7-2.1,4.7-7.7
					c0-5.5,2.3-17.4,7.8-14.2c5.5,3.3,4,8.8,2.9,12.9c-1.1,4.1-3.7,15.3,9.4,13.4c3.2-2,5.3-2.9,4.9-9.1c-0.4-6.2,3.5-18.9,9-9.9
					c5.5,9.1-2.1,11.9-0.4,17.9c0,0-2.4,9.4,8.6,7.6c4.7-1.8,6.1-0.2,6.6-6.2c0.5-6,3.4-19.1,8.5-13.3c5.1,5.7,1.1,9.9,2.2,14.3
					c1.1,4.4,1.6,16,11,12.1c9.4-3.9,2.6-13.6,4.6-17.1c2-3.4,6.2-11,10.6-6c4.4,5,2.9,10.1,0,16.9c-2.9,6.8,1.6,10.2,3.6,10.4
					c2,0.2,10.3,3.1,10-7.7c-0.3-10.8,0.7-18.8,8.6-14.6c7.9,4.2,7.2,9.9,3.9,18.2c0.2,3,1.1,5,9,7c5.3,0.5,9.1,0.4,9.3-7.7
					s1.5-14.8,8.6-11.8c7.1,3,11.4,5.8,9.5,12.4c-1.9,6.6-2.8,17.2,2.9,18.2c5.7,1,5.7,1,5.7,1c5.6-0.3,6.6-19.8,1.6-16.5
					c-5,3.3-10.2-2.7-10.2-2.7c1.3-6.4-9.7-3.9-14.6-0.8c-4.8,3.1-6,7-6.5,10.5c-0.5,3.5,1.2,9.4-8.5,7.7s-6.5-9.3-6.5-9.3
					c4.9-7.1-7.1-8.3-7.1-8.3c-7-1.9-7.9,3.5-7.6,8.2c0.3,4.8-2.5,8.1-9.2,6.5c-6.7-1.6-2.8-8.3-2.6-13.2c0.2-4.8-7.9-4-12.7-3.1
					c-4.8,0.9,0.5,10.1-3,9.7c-3.5-0.3-9.4,0.9-9.3-8.9c0.1-9.8-3.4-6.6-8.5-9.6c-5.1-3-5.7,7.1-8,10.1c-2.3,3.1-2.3,5.8-7.1,5.4
					c-4.8-0.4-5.1-5.5-3.6-8.1c1.5-2.6,1.4-9.7-5.6-13.6c-7-3.9-7,7.2-7.8,13.4c-0.8,6.2-2.6,6.6-5.9,6.3c-3.3-0.3-6.7-6.9-4.2-12.2
					c2.5-5.3-0.6-12.9-7.8-14.7s-2.3,11.2-4.6,16.8c-2.3,5.6-6.9,4.2-8.5,2.3c-1.5-1.9-0.6-4.9-0.6-4.9c2.5-8.6,3.2-10.1-4.9-15.9
					c-8.1-5.8-3.4,6.8-6.9,14.8c-3.5,8-6.5,4.5-8-0.5c0.4-15.4-1.9-15.6-2.6-16.8c-0.6-1.2-9.3-5-10.6,6.3
					c-1.3,11.2,1.3,10.7-1.3,14.8c-9.3,4.7-2.6-20.6-2.6-20.6c-19.3-8.4-9.5,10.4-9.5,13.9c0,3.6-3.5,4.9-11.4,5
					c-8,0-1.2-16.7-1.2-16.7c-0.1-7.2-7.1-5.3-15.4-4.3s0,18.9,0,18.9"/>
				<path class="st0" d="M364.7,589.3"/>
				<path class="st0" d="M598.4,703.5"/>
				<path class="st0" d="M665.9,726.9c0,0-6.9-13.1-10.1-14.4c-3.3-1.3-13.1,9.5-18.2,9.5s-5.5-8.7-10.5-6.7s-9.4,6.8-9.4,6.8
					c-6.8-9.1-14.2,0-14.2,0c-3.3,2.8-12.9,9.3-18.9,0c-5.9-9.3,2.5-16.1-5-17.8c-7.5-1.8-12.8,8.4-12.8,8.4c3.6-5.6-1-11.8-1-11.8
					s6.6-13.3,12.5-10.4c6,3-6.8,15.7,6.3,13.8c0,0,14.5,4.3,13.8-2.4c0,0-5.8-9-2-11.9c3.8-2.9,12.4-7.4,14.6-3.5
					c2.1,3.8-0.5,9.1,3.1,10.6s11.5,5.9,13.3,3.2c1.8-2.6-6-13.5,0-13.9c6-0.3,9.5-3.6,10.2,2.5c0.7,6.1-0.1,8,6.2,8.2"/>
				<path class="st0" d="M575.3,518.1c0,0,17,5.2,0.2,23.9"/>
			</g>
			<path class="st0" d="M439.9,427.6c0.6,2.2,2.1,9.1-1.8,20"/>
			<path class="st0" d="M488.3,448.8"/>
			<path class="st0" d="M489.9,432.1"/>
			<line class="st0" x1="564" y1="444.8" x2="562.1" y2="457.8"/>
		</g>
		<path class="st1" d="M238.5,824.2c0,0-5,0.9-4.2,6.8c0.9,5.9-5.1,7.1,6.7,6.7c12.3-0.4,25.9,1.3,41.1,1.4
			c14.5,0.1,26.3,9.4,29.3,2.2c3.1-7.4,1.3-10.1-2.8-11.1c-5.9-1.4-24.2-4.7-28.9-4.7C272.2,825.5,248.9,825,238.5,824.2z"/>
		<path class="st1" d="M230.8,940.4c0,0-10,13.5-2.6,15.6s6.1,4,24.7,4.4c19.5,0.4,51.3,7.7,55.1,1.1c-2.4,4.3,3.3-10.6,1.6-15.8
			c-3.4-10.2-10.5-6.8-22.6-5.7c-10.5,0.9-12.4-1.6-18.7-1.5C250.7,938.4,238.6,936.7,230.8,940.4z"/>
		<g>
			<path class="st0" d="M645.1,724.8"/>
			<path class="st0" d="M658,719.2"/>
			<path class="st0" d="M655.6,719.7"/>
			<path class="st0" d="M610,737.7c0,0,3.6-15.7,7.5-15.7c3.9,0,10.3,17.5,10.3,17.5s4.4-18.5,9.6-17.5c5.1,1,7.6,17.1,18,15.7
				l10.4-10.9c0,0,10.9,7.3,14.5,13.1c1.3,2.1,1.6,4,0,5.3c-6.1,4.6-8.1,3.1-6.9,7.6c0.7,2.7-17.9-15-17.9-15s-7,10.1-8.4,14.4
				s-19.2-12.6-19.2-12.6s-9.9,25-3.4,24.2c6.5-0.8,16,0.5,9.2,5.8s-12.1,7.9-3.1,10.3s14.8,6.8,11.9,8.1s-12.4,6.9-6.6,12.7
				c5.8,5.8,20.1,15.2,20.1,15.2s3.4,1.3,0.5,4.2c-2.9,2.9-11.3,14.3-7.6,17.7c3.7,3.4,24,17.9,17.5,27.1
				c-6.6,9.2-7.6,15.6-6.3,18.2c1.3,2.6,12.4,27.9,14.7,29.5c2.4,1.6,11.1,7.4,7.1,9.8c0,0-3.9,2.5-8.8,2.5s-3.4,5.3-1.9,7
				s9.3,8.7,3.9,12c0,0-13.6,7.8-12.9,14"/>
			<path class="st0" d="M693.1,840.3c0,0,17.1,11.9,15,15.6c0,0,8.9-10.8,7.4-15.6c-1.5-4.9-11.3-13.2-11.3-13.2
				c-5.8-4.7,0.5-21.9,5.2-28s-1.4-8.7-7.8-12.8c-10.7-3.5,2.2-11,2.2-11c6.6-6.6-4.2-5-13.2-8.4c-9-3.4,3.1-8.7,5.9-14
				c2.7-5.3-16.2-13.1-16.2-13.1"/>
			<path class="st0" d="M707.8,719.1"/>
			<path class="st0" d="M578.4,752.3"/>
			<path class="st0" d="M588.3,736.3c0,0-11.7,13.7-9.8,16c1.9,2.3,13.3,16.7,11.3,19.6c0,0,16.9,5.2,11.9,9.3s-14,19.7,0.1,23.6
				c14,3.9,10.9,6.6,7.7,8.9c-3.2,2.4-8.9,9.8-4.4,14.8c4.5,5,23.7,3.6,13.5,15.5c0,0-6.6,8.2-6.6,16.1s-3.3,9,1.8,10.5
				s24.2,4.2,15,14.7c-8.7,4.8-21.8,9.7-13.4,22.5c5.9,4.4,23.1,11.2,16,15.3s-9.1,6-3.8,11c5.3,5,12.9,4.5,9,8.9
				c-3.9,4.5-11.3,9.5-2.7,15.3c8.6,5.8,12.8,12.6,9.1,18.2s-9.2,15.1-9.2,15.1c1-3.7-3.7-5-8.7-9.5c-5-4.5,1-19.3,3.9-26.4
				c2.9-7.1-7.1-7.4-10-7.4c-2.9,0-3.5-10.5,3.9-17.7s-11.6-5-11.6-5c-4.5,0-4.5-6.6,2.8-14.5c7.3-7.9-14.4-16.3-18.7-19.2
				c-4.2-2.9-9.3-10.3-0.6-12.7c8.7-2.4,10.8-3.5,15-8.7s-3.2-8.2-12.7-15.8c-9.5-7.6,1.8-24.5,5.7-30.2c3.9-5.7-8.7-6.1-15-7.2
				s-0.8-9.8,5-14s-2.1-8.4-6.6-8.7c-4.5-0.3-7.4-5.7-5.9-8.1"/>
			<path class="st0" d="M643.9,864c-4.6-5.9,4.1-24.9,4.1-24.9c1.8-4.8-13.3-12.5-15.9-14.4c-5.2-3.8-5.3-8.6-4.8-7.9"/>
			<path class="st0" d="M627.3,818.2"/>
			<path class="st0" d="M627.1,815.8"/>
			<path class="st0" d="M621.2,839.8c0,0-2,11.9,10.6,16.1s14.2,11.1,12,11.7s-12.7,7.8-14.2,19.6s2.8,16.6,9.4,18.7
				c6.6,2.1,8.6,8.2,5.7,9.7c0,0-12.2,2.7-11.1,5.7c1.1,3,1.2,3.2,3.8,3.6c2.6,0.4,14.4-2.8,11.7,4.5c-2.6,7.3-6.3,4.6-8.8,6.6
				c-2.5,2-4.6,7.9-1.4,8.8c3.2,0.9,13.3,4.4,8.5,12.4s-4.7,10.6-4.7,10.6s11,9.5,8.2,11.7c-14.6,11.4-3.9,13.2-13.4,19
				c-9.5,5.8-4-6.6-4-6.6"/>
			<path class="st0" d="M644.5,867c0,0,16.5,6.6,15.4,10.4c-1.1,3.8,1.3,20.1-4.6,23.3c-5.9,3.2-12.7,9.5-9.2,11.7
				c3.5,2.2,5.6,0.7,9.4,1.2s5.1,1.7,4.6,3.5c-0.5,1.8,0.5,1.8-2.2,3c-2.8,1.2-10.8,3.1-9.1,5.2c1.7,2.1,0.4,3.2,3.7,5.7
				s6.9,5.8,4.5,7.5c-2.4,1.6-11.6,8.2-7.5,17.6c4.1,9.4,8.7,17.6,6,19c-2.8,1.3-4.5,4.2-4.5,4.2"/>
			<path class="st0" d="M671.1,906.6c0,0-3.6,5.7-7.8,5.9c-4.2,0.1-4.1,5.9-0.9,7.7c3.2,1.9,8.7,6.4,7.4,8.3c-1.2,2-2.9,3.6-8.3,3.6
				c-5.4,0-3.8,5.5-3.8,5.5s-0.6,11.5,2.6,15.8c3.2,4.3,3.2,11.3-5.2,15.1"/>
			<path class="st0" d="M682,921.7"/>
			<path class="st0" d="M664.5,994.6"/>
			<path class="st0" d="M656.2,974.1"/>
			<path class="st0" d="M642.3,991.8c0,0,9.8-0.8,12.6,1.7c2.8,2.5,9.2,4,9.6,1.9c0.3-1.5,5.6-15.7,6.8-17.5
				c1.1-1.7,0.3-6.5-3.8-7.2c-4.1-0.8-6-7.8-6-7.8"/>
			<path class="st0" d="M684.1,923.2c0,0,12.5,16.1,6,18.8c-6.6,2.7-9.9-5.8-13.2-1.5c-3.3,4.3,2.4,8.6,3.8,9.6s8.1,9.9,5.9,14.9"/>
			<path class="st0" d="M698.5,922.3c2.5,4.4-7.5,16.2-6.6,19.2c0.9,3,6.5,16,8,16.5c1.4,0.5,0.4,5.3-2.3,5.3
				c-2.6,0-12.3-1.4-11.6,4.2c0.7,5.6,3.1,6.8,4.2,7.2c1.1,0.3,11.3,5.1,7.8,7.2c0,0-6.7,3-10.4,6.6s-7.3,5.3-5.5,6.1"/>
			<path class="st0" d="M695.9,883.1"/>
			<path class="st0" d="M635.9,766.1l17.3,7.5c0,0,11.2-2.1,12.2-6.6c1-4.5-3-3.1,7.8-14.2c0,0,16.5,12,15.2,13.1
				c-1.3,1.1-15.8,1.4-5.5,6.7s19.7,8.7,10.2,17.9c-9.6,9.3,14.4,19,7.1,29.5c0,0-7.9,13.7-7.4,16.1"/>
			<path class="st0" d="M696,999.8c-1.9,2.3-10.7-3.5-17.1-5.9s-7.3-12-7.2-16.9c0.1-4.9,4.5-6.1,9.3-6.5c4.9-0.4,4.9-3.1,4.9-3.1"
				/>
			<path class="st0" d="M697.9,981.9"/>
			<path class="st0" d="M698.7,925.4c0,0,11.4,8,5.8,15c-5.5,7-11.5,1.7-9.2,9.5"/>
			<path class="st0" d="M705.1,939.6c0,0,0.1,5.5,3.1,9.4c3,3.9,4.6,8.2,2.7,9.4c-2,1.2-6.3,4.8-2.4,9.1c3.9,4.3,9.8,7.5,6.1,9.5
				s-2.2,2.5-8.8,0.7c-6.6-1.8-7.2,3.2-7.2,3.2"/>
			<path class="st0" d="M699.8,958c0,0,5,7.9,7.4,8.5"/>
			<path class="st0" d="M695,1000.3c0,0,4.9-0.8,6.7,0c0,0,4.9,1,9.8-1.8c4.9-2.8,12.8,0.6,7.1-16.4c-2.7-4.3-2.4-6-3.8-5.1"/>
			<path class="st0" d="M708.3,924.1"/>
			<path class="st0" d="M713.5,898.7"/>
			<path class="st0" d="M537.1,904.5c0,0,7.7,5.5,2.4,11.3s25.6,11,23.2,15.5c-2.4,4.5-8.9,8.2-6.3,10c2.6,1.8,19,11.7,11.9,19.2
				c-7.1,7.4-16,24.9-8.1,24.1c0,0,6.8,0.3,12.2,0s12.7,7.9,11.9,10.2"/>
			<path class="st0" d="M568.3,920c-4-8.4-31.2-15.5-31.2-15.5c8.2-8.2,11-15.8,11.8-17.4c0.8-1.6-1.8-12-5.8-12"/>
			<path class="st0" d="M555.7,845c0,0,1.6-6.7,6.8-4.6c0,0,4.2,1.3,2,9.8c-7.5-0.1-23.1,32-13.9,35.5c6.5,2.5,13.3-11.1,13-1.1
				c-0.3,10-9.8,21.5,4.7,35.4c0,0,2.9,2.7,9.5,1.9c6.6-0.8,8.2,7.5,5.6,7.8c-2.6,0.3-12.9,5.8-5.2,12.1c7.7,6.3,14.2,11,9.2,16.4
				s-10.7,16.3-4.1,16c6.6-0.3,16.6,3.6,11.6,6.8c-5,3.2-13.7,14.3-9.2,15.5c4.5,1.2,13.5,4.2,16.4,6c2.9,1.8,11.1-3.9,12.5-7.8
				c1.2-3.3-12-8.6-16.9-13.7c-4.9-5.1,4.9-12,8.4-14.4c3.5-2.4-5.8-4.2-9.9-3.7c-4,0.6-5.5-1.6-6.7-2.5s1.2-17.7,8.4-24.6
				c7.2-6.9-4.1-6.8-7.9-7.2s-10.6-3.1-2.3-11.8c8.2-8.6-8.1-12.3-14.3-14.9s-9-15.6-9.9-19.5s8-12.3,8.5-13.6s0-4.8,0.5-10.8
				c0.5-6-8-7.9-8-7.9c-1.1-1.2,10.4-17.8,12.1-20.2c1.7-2.4-2.4-2-9.1-1.3c-6.7,0.7-11.5-6.1-11.5-6.1"/>
			<path class="st0" d="M568.3,920c0,0-10.5,12.9-2.8,12.4c7.6-0.5,13.4,4,7.4,7.6c-6.1,3.5-3.1,17.7,1.4,18.4
				c4.5,0.7,10.8,8.7,6.6,10.5c-4.2,1.8-20.2,13-15.2,15.8"/>
			<path class="st0" d="M695.6,877.4c0,0-4.4,5.2-3.2,14.3c1.3,9.1-2.5,11.4-2.5,11.4s7.6,13,8.5,19.1"/>
			<path class="st0" d="M695.9,878"/>
			<path class="st0" d="M719.6,781.8"/>
			<path class="st2" d="M719.6,781.8"/>
			<path class="st0" d="M653.3,773.7c0,0,2.4,6.3,6.4,8.3c4,2,14.6,7.5,11,10.2c0,0-2.8,3-5.1,3.7c-2.4,0.7-4.1,4.1,0,7.7
				s16,9.8,12.8,17.2c-3.3,7.4-8,15.3-3.4,20.1c4.6,4.7,12.1,11.2,12.1,11.2s5.5,5.6,1.1,10.2c-4.4,4.6-7.5,20.6-6.2,25.3
				c1.2,4.7,8.3,10,8.1,15.6c0,0-4.9,2.6-6.3,6.5c-1.4,3.9-3.2,5.5,0.4,13.5"/>
			<path class="st0" d="M653.3,773.7c0,0-4.2,8.1-8,8.3c-3.8,0.2-4.1,4.4,0,6.5c4.2,2.1,24.2,11.8,16.7,16.3c0,0-6.7,12.7-3.8,16.4
				s19.3,17.4,15.6,22.9c-3.7,5.5-9.9,12.4-4.9,19c5,6.6,11.6,16.8,11.6,16.8s2.9,3.9,0,5.8c-2.9,1.9-11.8,17.6-8.9,22.3"/>
			<path class="st2" d="M653.3,773.7"/>
			<path class="st0" d="M695.6,877.4c-10.3-22.7-4.6-32.3-2.5-37.1c2.1-4.8-6.9-13.2-12.7-20.3s1-12.4,2.6-12.9s8-10.4,8-10.4"/>
			<path class="st0" d="M665.5,767c0,0,12.3,4.2,13.8,2.5c1.4-1.7,0,0,0,0s3.4,4.9-0.6,8.2c-3.9,3.3-11,12.8-5.3,13.3
				s18.2,3.3,17.6,5.7"/>
			<path class="st0" d="M665.5,767"/>
			<path class="st0" d="M647,752.2c0,0,1.1,9.4,18.5,14.9"/>
			<path class="st0" d="M647,752.2c0,0-2.3,5.7-6.2,6.2c-4,0.5-8.5,6.5-4.8,7.7"/>
			<path class="st0" d="M647,752.2"/>
			<path class="st0" d="M607.4,742.1c0,0,22.2,19.1,12,21.9s-11.5,5.8-4.6,9.5c6.9,3.7,16.8,4,10.8,10.2c-5.9,6.2-9.4,8.8-4.6,9.3
				c4.7,0.5,15.5,0.8,12.7,6.8c-2.9,6.1-8.3,13.2-6.1,17.7"/>
			<path class="st0" d="M607.4,742.1"/>
			<path class="st0" d="M621.4,840.5c-1.3-4,3.7-6.6,6.6-15.6c2.9-9-7.7-9.7-13.3-10.8s-2.1-8.7,3.7-16.1s-10.6-12.9-15.3-17.4
				s-1.2-7.4,5.7-10.3c6.9-2.9-8.2-7.1-9.9-8.9c-1.7-1.8,2.7-15,8.5-19.3c5.8-4.2,0-10.8,0-10.8l-4.1-9.2l-6.6,3.8
				c0,0-14.5,6.8-4.2,20c10.3,13.2,5.9,12.6,2.9,17.7c-3.1,5-16.5,24.2-21.2,33.5l-4.8,8.5c0,0,17.8,8,15.3,12.1
				c-2.5,4.1-13.2,10.6-6.2,15.8c0,0,0.9,0.8,5.1,0.8c4.2,0,10.6,0.6,10.7,3.4c0.1,2.7-4.9,17.1-12.8,21.2s-14.4,16.2-8.6,18.9
				c5.8,2.7,22.2,5,17.1,13.9s-0.5,20.2,1.3,21.8c1.8,1.6,23.1,10.1,14.8,13.5s-6.5,9.3-3.1,9.9c3.3,0.5,21.6,1.7,10.4,12.3
				c-11.2,10.6-6.6,20.2-4.2,20.9c2.5,0.7,6.5,0.5,9.7,2.6c3.2,2.1,6.5,6.5,5.1,8.4c-1.4,1.9-10,10.4-9.4,13.8
				c0.5,3.3,17,8.5,17.7,3.9"/>
			<path class="st0" d="M556.7,825.1"/>
			<path class="st0" d="M719.8,804.6"/>
		</g>
		<path class="st0" d="M343.2,791.3"/>
		<path class="st0" d="M306.2,812.4"/>
		<path class="st1" d="M272.5,790.1c0,0-11.2,10.5-2.9,13.6c8.4,3.1,28.2-3.5,36.6-0.1c8.4,3.4,14.4,7.2,15,2.3
			c0.7-4.9,4.8-15-4.3-16S277.2,784.3,272.5,790.1z"/>
		<path class="st1" d="M219.1,881.2c0,0-8.2,2.5-4.8,6.5c3.4,4,3.9,17.5,13.5,19.6c9.6,2.1,56.7-3.8,62.6-2.4s29.6,8.7,32.6,2.2
			c3.1-6.6,15.3-27.8,8.4-29.2s-24,7.1-50,1.1C255.4,872.7,245.2,874,219.1,881.2z"/>
		<path class="st0" d="M305.9,788.8c0,0-7.1-11.2,0-16.8c7.1-5.6,3.2,14.3,7.1,15.5s8.3,7.3,6.1-6.1c-2.3-14.2,14.4-13.7,15-1.8
			c0,0-0.8,9.3,2.1,10.3c0,0,8.9,3.6,7.6-8c-1.2-11.7,0.4-16.6,4.6-11.2l1.3,2"/>
		<path class="st0" d="M312.5,757.2"/>
		<path class="st0" d="M331.7,773.5c0,0,12.1,11.9,11.6,2.5c-0.5-9.3-3.4-20.2,7.8-15.8"/>
		<path class="st0" d="M310,773.5c0,0-6.2-10.8,1.4-10.9c7.6,0,9.8-3.2,10.2,3c0.4,6.2-0.3,4.8,7.1,5.7s-4.8-9.6-1.3-14.1
			c3.5-4.6,10.9-3.4,10.3,2.1c-0.6,5.5,1,16.1,5.1,10.2"/>
		<path class="st0" d="M337.4,757.2c0,0-0.6-7.1,4-6.5c4.6,0.6,8.2,6,3.5,8.6"/>
		<path class="st0" d="M320.4,762c0,0-6.3-11.7,0-11.4c6.3,0.3,7.6,5.1,6.3,8.6"/>
		<path class="st1" d="M228.3,918.1c0,0-9.1,14,1,14c10.1,0,74.8-5.7,80.5-4.4c5.7,1.3,3.8-12.4,2.9-12.1c-4.1,1.6,5.7-0.8-15.3-1
			C250.2,914.1,231.4,909.3,228.3,918.1z"/>
		<path class="st1" d="M323.9,854.9c0,0-15.9-7.4-31.6-7.9c-4.4-2-77.8,1-65.9-1.2c0,0-9.6-0.5-15.9,15c2.5,6.6,1.6,15.3,8.5,13.2
			c6.9-2.1,46-10.6,54.6-9s48.1,11.9,49,5.1C332.4,862.6,323.9,854.9,323.9,854.9z"/>
		<path class="st1" d="M307.8,980.8c-1.3,3.4-14.6-0.4-14.6-0.4c-9.9-3.7-63.5-0.4-67.6-3.7c-2.6-2.1,0-8.4,0-8.4
			c0-6.3,32.8-1.5,56.2,0.7c0,0,19.8,0.8,23,2.7C307.9,973.6,310.8,973.3,307.8,980.8z"/>
		<path class="st1" d="M302.1,991.8c-0.5-5.1-8.7-7.1-26.9-6.9c-32.2,0.4-38.1-1.7-47.3,0.1c0,0-2.2,6.7,2.9,10.3
			c5.1,3.6,43.4-3.8,49,1.2c0,0,19.5,7.5,21.7,4.9C303.7,998.8,302.1,991.8,302.1,991.8z"/>
		<path class="st0" d="M230.5,1002.1c0,0-3.8,11.8,2.4,12.3c6.3,0.5,57.8,7.2,63,2.2c9.5-9-2.4-13.4-7.6-11.8
			C269.4,1005.6,237.7,996.6,230.5,1002.1z"/>
		<path class="st0" d="M231.5,1019.4c0,0-5.2,4.2-2.1,7.1s7.9,5.8,20.5,6.2c12.5,0.5,37.5,4.2,40.9-0.1c3.4-4.3,9.6-12.1-2.9-9.6
			C275.3,1025.4,231.5,1019.4,231.5,1019.4z"/>
		<path class="st0" d="M233,1034.7c0,0-1.4,7.1,3.9,7.6c5.3,0.5,40.5,8.1,45.8,2.3c5.3-5.8,4.5-6.8-5.2-6.7
			C267.6,1037.9,229.6,1031,233,1034.7z"/>
		<path class="st0" d="M323.1,751.2c0,0-15.9-51.7-2.4-51.9c13.5-0.2,14-3,13.6,10.4c-0.4,13.5-5.1,49.1,7.1,40.9
			c12.2-8.2,4.3-3.7,3.8-49.3c3.5-9,11.2-2.8,11.7,1.1"/>
		<path class="st0" d="M348.8,667.8c0,0-19.6-11.5-20,0c-0.4,11.6,8.9,16.4,13.7,15c4.8-1.4,8.8-2.4,8.8-2.4s4.6-3.8,1.7-6.3"/>
		<path class="st0" d="M343.7,637.5c0,0-4.9-24.1,1.5-28.2s12.9-4.2,13.2,2.3"/>
		<path class="st0" d="M708.1,855.9c0,0-6.5,17.3-12.5,21.5"/>
		<path class="st0" d="M563.2,729.3c0,0,16.4-3.5,17.3,3.6c0.9,7.1-2,19.4-2,19.4l-6.5,33.4"/>
		<path class="st0" d="M603.3,722.1c0,0-6-14.6-5-18.6c1-4,20.9-8.1,22.4-2.8c1.5,5.3-6.6,14.9,6.1,14.6c12.7-0.4-0.1-14.3,10.5-17
			c10.6-2.7,21.4-3.1,18.3,14.1"/>
		<path class="st0" d="M613.6,616.3c0,0-1.2-5.9-3.1-10.5c-1.8-4.5-14.1-6.5-12.6,2.9c1.5,9.4-1.6,15.3-7.7,14.7s-4.3-5.8-4.9-14.7
			c-0.5-8.9-4.9-14.7-10.7-8.2c-5.9,6.5,1.1,8.9,2.6,18.1c1.5,9.1-5.3,11.8-5.3,11.8s-6.7-0.3-7.2,11.6c-0.5,11.9,2.5,36,0.1,39.5"
			/>
		<path class="st0" d="M690.6,684.7"/>
		<path class="st1" d="M679.2,513.2c0,0-10.6,12.2-14,18.5c-3.4,6.3-8.8-22.3-14.9-23c-6.1-0.7-19.4,21.2-19.4,21.2
			c-3.1-10.4-20.3-27.2-20.3-27.2c-4.1-3.6-27.8,24.8-27.8,24.8s31.3,22.9,37.4,14.6c0,0,7.9-16.2,15.7-12.3
			c7.8,3.9,15.4,12.8,19.3,9.9s10.1-8.2,10.1-8.2"/>
		<path class="st0" d="M655.3,582.6c7-15.5,15.7-25.7,10-30.1c-8-10.9-10.1-12.6-10.1-12.6c-5.2-3.6-18.2,17.1-18.2,17.1
			S659.7,578.6,655.3,582.6c-4.4,3.9-18.2,13.7-15,17c3.2,3.3,25.6,15.3,21.3,21.6c0,0-13.2,20.1-18.2,18.2
			c-4.2-1.6-21.1-19-21.1-19s17.3-18.5,17.9-20.9c0.6-2.4-14.6-18.6-14.6-18.6c-3.8-4.2,11.4-24.1,11.4-24.1
			c-2.3,3.4-16.8-14.8-16.8-14.8s-15.2,18.6-8.2,23.6c7,5,16.4,13.5,13.8,19.2c-2.6,5.8-15.2,20.8-15.2,20.8"/>
		<path class="st0" d="M633.8,670.5"/>
		<path class="st0" d="M655.3,582.6c0,0,5.4,11.1,10.1,13.6c4.7,2.5-3.5,22.2-3.5,22.2"/>
		<path class="st0" d="M579.6,456.3"/>
		<path class="st0" d="M579.6,456.3c0,0,8.2,0.6,9.1,0.4c0.9-0.1,6.6,2.2,3.7,14.2s3.2,13.8,3.2,13.8"/>
		<path class="st0" d="M597,441.1c0,0,11.6,20.2,16.2,21c4.6,0.8,12.7-13.7,17.6-11.9c4.9,1.8,14.7,11.7,19.3,10.6
			c4.6-1.2,13.2-16.1,16.8-12.5c3.5,3.6,12.6,16.7,12.6,16.7"/>
		<path class="st0" d="M592.6,426.5c0,0,17.3-12.5,21.9-1s16.4,24.7,16.4,24.7s14.3-13,19.2-13.2c4.9-0.2,16.8,11.3,16.8,11.3"/>
		<path class="st0" d="M614.5,425.5c0,0,5.6-17.5,10.6-14.9c5,2.6,16.2,26.6,24.9,26.4"/>
		<path class="st0" d="M620.2,543.9"/>
		<path class="st0" d="M601,602.4"/>
		<path class="st0" d="M573.2,590.6c0,0,9.3,14.4,15.9,7.2s2.6-41.9,2.6-41.9s-0.2-15.5,4.7-16.2c-0.9,0.6,3.8-1.9,11,2.4
			c10.9,10.2-5.8,49.6-5,52.1c0,0-3.1,7.6,0.3,8c3.4,0.4,5.8,1.5,5.8,1.5"/>
		<path class="st0" d="M620.2,542.2"/>
		<path class="st0" d="M620.2,542.2"/>
		<path class="st1" d="M573.3,512.9"/>
		<path class="st1" d="M573.3,512.9"/>
		<path class="st1" d="M573.3,512.9c0,0-2.1-3.4,3.7-5.3s14.3,0.8,10.7,5.3c-3.5,4.5-4.9,14.7-4.9,14.7"/>
		<path class="st0" d="M338.8,954.5"/>
		<path class="st0" d="M338.8,954.5"/>
		<path class="st0" d="M364.7,878.7c0,0-7.3,17.4,0,19.3c0,0,14.6,2.4,14.8-5.3c0.2-7.7-5-12.2,0-12.5c5-0.3,8.6,2.6,5.9,6.7
			c-2.7,4.1-1.5,6.5,1,8.1c2.5,1.5,3.8,1.3,4.5-2.3c0,0-1.1-6.5,1.5-7.3s5-1.6,5.3,0c0.2,1.6-1.8,10.3,0,12.6c0,0,1.8,3.8,5.9,2.9
			s-2.1-7.4,2.2-11c4.3-3.6,12.7-6.2,13,0c0.3,6.2-5.8,11.7-1.2,13c4.6,1.3,13,3.7,11.8-2.1c-1.2-5.8-4.6-10.3,0.1-10.7
			c4.7-0.4,9.7-2.1,10.3,0c0.6,2.2-5.3,7-3.4,11.1c0,0,3.4,4,6.5,1.5s-1.6-10.9,2.7-11.3c4.3-0.4,4.5-1.4,7.5,2.1
			c3,3.5-5.1,9.2-1.5,10.8c3.6,1.6,7.2,2.1,8.9-2.7c0-6.3-3.5-7.1-1.6-11.9s13.4-0.5,12.7,4.2c-0.7,4.7-3.8,9.3-2.1,11.5
			c1.7,2.2,5.6,4.1,8.2,3.1c2.6-1-1.2-10.9,1.9-14.6c3.1-3.6,14.3-3.2,15.1,4.6c0.8,7.8-5,8.3-2.5,14.4s24.6,6.4,28.2,2
			s-6.3-11.8-1.7-14c4.6-2.2,11.8-1.2,12.3,1.7c0.5,2.9-8.2,10.3-6,13.2c2.2,2.9,9.6,9,14.8,0c0,0-12.1,13.6-6.3,18.2
			c5.8,4.6,22.7,5.9,22.7,5.9"/>
		<path class="st0" d="M271.9,1084.5c5.4,19-14.6,6.4-28.1,5.2c-13.5-1.3-4.1-8.7-4.1-8.7C242.8,1081.2,260.7,1084.1,271.9,1084.5z"
			/>
		<path class="st0" d="M268,1102.7c-12.9,9.3-2.3-1.8-28.4,2c-14,2-0.7-11.9-0.7-11.9S272.5,1097.5,268,1102.7z"/>
		<path class="st0" d="M272.6,1070.2c2.8,3.3,1,7.8-2.4,9.5c-7,3.4-23.5-1.6-29.4-4.7c-7.1-3.9-3.2-12.4-3.2-12.4
			C239.1,1063.3,266,1069.3,272.6,1070.2"/>
		<path class="st0" d="M234.9,1052.9c4.4,4.8,9.6,5.3,28.8,12c19.2,6.7,13.6-2,17.9-7.3c4.3-5.3-1.9-5.3-7.7-3.8
			c-4.6,1.2-24.9-3.9-33.1-6c-2.1-0.6-3.5-0.9-3.5-0.9S229.9,1047.6,234.9,1052.9z"/>
		<path class="st0" d="M342.7,919.2c0.8-4.8,10-18.8,14.1-24.9c4.1-6.2,8.9,5.1,4.7,8.8c-5.2,6.5-8.4,9.2-2.6,19.4
			s24.1,2.7,21.1-9.2c-2.9-11.9-5.1-21.3,6.3-18.3c11.4,3-3.3,22.3,0.1,30c3.3,7.7,9.8,11,15.2,5.9c5.4-5-10.7-31-1.2-30.3
			c9.5,0.7,12.1,1.3,10.8,14.7c-1.3,13.4-4.5,15.2,0.7,17.9c5.2,2.7,12.3,5,12.1-2.4s-15.5-29.6-6.5-28c9,1.6,17.9,1.5,15.5,10.3
			s-9.1,21.1-3.8,22.7c5.3,1.5,14.5,5.8,13-5c0,0-13.2-28.2-3.8-27.9c0,0,16.7-1.8,15.8,6.5c-0.9,8.3-13.4,24.6-6.4,28.5
			c7.1,3.9,12.2,2.6,12.7-4.1c0.5-6.7-7.2-27.6-2.1-29c5.1-1.5,4.7-2.6,11,0.8c6.3,3.4-10.3,30.5-4.8,33.1c3.5,5.3,8.9,4.2,13.1-1.6
			c4.2-5.8-5.3-22.6-0.1-28.3c5.2-5.7,13.7-2.8,14.5,4.4c0.7,7.2-10.5,17.7-8.1,29.5c5.7,7.3,14.3,5.6,13-2.4
			c-1.3-9.5-9.7-24.2,1.5-23.2s14.5,2.9,11.9,13.6c-2.5,10.7-4.5,15.5-2.2,19.2s6.8-0.3,9-2.8c5.5-8.2-10.2-31-0.5-30.1
			c9.7,0.9,12.8,1.2,12.2,5.9s-9.9,16.9-5.1,22.4c4.8,5.4,14.1,4.1,13.3-0.4s-5.5-10.2,0-8.5"/>
		<path class="st1" d="M342.7,919.2c0,0-8.9,14-2.4,19.5s7,2,9.1-0.3c2.2-2.3,2.3-21.6,9.4-15.9c1.9,1.5,5.4,5.7,5.3,12.1
			c0,4.5-5.2,9.5,0,10.3s13,0.6,12.1-9.8c-0.9-10.4-4-14,6.1-10.1c10.1,3.8,5.5,12.2,3,15.5c-2.5,3.3-0.9,9.8,3.4,9.7
			c4.3-0.1,11.7-0.7,8.9-17.1c0,0,8.9-6.4,14.2,0.2c5.2,6.6-5.6,13.1-0.7,16.8c5,3.7,11.1,5.9,12.8,0c1.7-5.9-11.7-14.3-3.3-14.3
			c8.4,0,13.6-0.2,11.7,4.5c-1.9,4.8-4.2,15.1,3.9,14c8.2-1.1,8.6-5.7,6.7-11.7s-0.3-10.9,4.6-4.7c5,6.2,2.8,9.4,2,14.7
			c-0.8,5.4,9.3,8.6,10.7,0s-7.6-14.1-1.8-14.1c5.8,0,8.2,1.9,7.7,6.1c-0.6,4.2-6.5,13.1,0.1,13.7c6.6,0.6,10.9,0.7,8.6-5.8
			c-2.3-6.5-10.9-9.6,3-13.9c4.6,0.2,5.8,0.5,5.8,3.9c1.8,5-9.4,10.1-3.6,14.4c5.8,4.3,12.5,4.4,13.5-2.8c1.1-8.5-2.6-6.2,2.7-9.6
			c7.7-5,9.3-1.8,11.8,5.3c2.4,7.1-8.2,11.1,0,13.4c8.2,2.3,9.6-0.7,10.6-2.6c1-1.9-7.7-8.1-4.6-10.9c3-2.8,6.8-6,14.4-1.6
			c7.5,4.3-4.5,10.8,2.3,15c6.8,4.2,15.8,6.3,17,0c1.3-6.3-12.2-26.3-3.6-24.9c8.6,1.4,15.8,1.4,12.7,11.4s-5.6,29.5,0.8,34.2"/>
		<path class="st0" d="M340.4,938.7l-1.6,15.8c0,0,3.1,8.3,8.7,0c5.6-8.3-7.3-13.5,0.3-14s15.4-7.1,13.7,3.6
			c-1.7,10.7-1.6,9.9,2.7,15.2c4.3,5.2,12.7,1.8,12.1-2s-8.5-12.7-1.4-15c7-2.3,8.7,0.1,9.3,2.6c0.6,2.5-5.1,10.8-2.7,13.3
			c2.4,2.5,10.4,6.1,12.4,0.4c2-5.7,0.4-6.8,3.6-13.7c3.2-6.9,11.1-3.8,13.7,5.3c2.6,9-1.3,12.5,6.4,13.4c7.7,0.9,2.2-13.3,6.4-13.4
			c4.2-0.1,10.9,3.2,8.5,7.1s-5.2,9.9,0.6,9.5c5.7-0.4,9.1-1.4,9.1-5.7c0-4.3-7.4-5.2,0.6-9.4s6.8,6,7,9.4c0.1,3.4-3.5,5.8,0,7.2
			c3.5,1.5,7.5,5.4,8.3-2.6c2.2-6.4-1.5-3,0.6-9.1c2.7-3.3,10.2,3.9,7.7,6.9c-3.1,3.8-0.3,8.4,3.5,8.8c3.9,0.5,7-1.7,6.7-5.7
			c-0.3-4-4.7-6-1.3-9.5c3.3-3.5,5.4,0.4,6.3,0.9s-0.8,5.6-1.3,9.9c-0.5,4.3,3.4,8.3,6.8,4.4c3.4-3.9-2.3-10.1,1.6-12.3
			c3.9-2.2,15.7-6.6,16.5,1.2c0,0-4.8,4.9-1.4,9.5c3.4,4.6,7.2,3.8,9.4,3.1c2.2-0.7,4.1-2.4,3.4-10.3c0,0,7.2-7.8,13-1.5
			c5.8,6.2-0.5,9.1,5.8,14.9s10.4,3.5,10.6,0c0.2-3.6-5.8-8.9,0-10.4c5.8-1.6,5.9,0,7,4c1.2,4,2.4,10,2.4,10"/>
		<path class="st1" d="M625,1046.2c4.9-1.8,17.4,25.7,17.4,25.7s17.4-20.8,22.2-22.5c4.8-1.7,11.9,2.7,14.1,14.6
			c2.7,14.6,15.4,7.3,23.6-3.9"/>
		<path class="st1" d="M611.6,1045.9"/>
		<path class="st0" d="M335.9,814.6"/>
		<path class="st0" d="M322.4,793.7c0,0-2.2,18.4-2.7,20.2c0,0-0.1,6.9,5.6,8.1s9.8-1.2,10.6-7.4c0.8-6.1-7-26,0.1-24.7
			c7.2,1.3,1.9,16.6,4.6,18.2c2.6,1.6,6.7,2.5,6.7,0"/>
		<path class="st1" d="M333.4,859.1"/>
		<path class="st1" d="M336,859.5c0,0,1.7,15.6,7.4,15.3c5.7-0.3,9.7,0.7,8.2-4.5s-1.2-10.1,3-11.5c0,0,1.3-4.5,8.5,1.4
			c0,0-0.6,15,1.5,18.5c2.1,3.5,15,7.7,12.7-2.4c-2.3-10.1,6.1-22.7,7.7-18.3c1.6,4.3,4.6,3.4,0.2,14.8s5.7,13.6,7.6,11.4
			c1.9-2.3-1.2-28.3,4.7-26s9.5,4.8,5.9,11.1c-3.6,6.3-8.8,16.3-3.9,17.5c4.8,1.3,11.6,6.8,11.5-8.1c0-14.9,1.9-13.3,7.3-12.2
			c0,0,9.3-2.1,5.8,6.9c-3.5,9.1-10,13.9-3.5,15.3c6.5,1.4,10.7,3,12.3-2.1s-7-21.9-2.1-20.6c0,0,3.3-1.8,5.4,0.6
			c2.1,2.3,5.1,5.9,3.5,12.3s-2.5,10.6,0,11.2c2.5,0.7,4.7,3.2,7.6,0c2.9-3.2-5.3-25.1,2.2-24.6c0,0,7.1,1.5,4.8,7.1
			c-2.3,5.6-5.1,21.3-1.4,21c0,0,5,2.4,5.7-3.8c0.8-6.3-1.7-21.5,3.6-20.7c5.3,0.8,7.5,0.2,10.9,2.2c1.5,3.4,0.7,7.2-2.2,12.2
			c-2.9,5-1.1,7.4,0.7,8.2c0,0,7.8,3.8,10.7-1.3c2.9-5.1-6.1-13.1,1.2-21.4"/>
		<path class="st0" d="M351.6,873.4c0,0-2.4,16.8,1.4,18.8s8-0.7,8.4,0"/>
		<path class="st1" d="M316.7,824.5c0,0-4.3-1.6-13.9-4.1c-9.6-2.5-57.6,0.9-52.4,0.1c3.1-0.4-1.3,1.7-4.5-5.8
			c-2.6-6,5.2-5.5,13.8-5.3c24,3.5,52-1.6,60,4.3"/>
		<path class="st1" d="M235.6,815.7"/>
		<path class="st1" d="M672.2,1094.4c0,0-0.3-9-16.9-12.8c-16.7-3.8-12.8-9.7-12.8-9.7l-10.1,14.9c0,0-3.4-9.6-13.7-14.8"/>
		<path class="st1" d="M631.8,1085.5c0,0,0.7,20.5,8.1,25c7.4,4.5,14,7,14.7,9.3c0.7,2.2,6.6,2.9,17.6-25.4c0,0,17.3,14.1,20.2,24.7
			s-17.4,19.6-20.8,26.7c-3.3,7.1-17.5-26.6-17.5-26.6"/>
		<path class="st1" d="M672.2,1094.4c0,0,10.2-21.4,13.8-22.3"/>
		<path class="st0" d="M352.1,1016"/>
		<path class="st0" d="M428.6,1147.7l9.8-8.6c11-7.3-3.4-13.5-15-17.8c-11.6-4.3,1.9-22.2,7.6-26.3s1.4-11.2-8.2-11.1
			c-9.6,0.1-0.5-4.9-14.5-24.2c-14-19.2,13.7-43,13.7-43s11.4,35.7,8.5,43s-36.7,40.4-25.8,46.5c11,6.1,19.6,7.5,9.5,16.7
			c-10.1,9.2-14.9,16.4-6.2,17.8L428.6,1147.7z"/>
		<path class="st0" d="M386.3,1115.9c0,0-3.6,6.7,2.2,9.1c5.8,2.4,18.8,11.5,14.1,14.9c-4.7,3.4-12.4,11.8-12.4,11.8l-15.4,0
			c-21.2-5.7,12.4-37.1,24.4-48.7c12-11.6-1.5-15.4-8.7-25.1c-7.2-9.7,12-26.4,13.9-31.3c1.9-4.9-18.4-31.4-18.4-31.4"/>
		<path class="st0" d="M458.3,1027.2c0,0-6.7,26.9,2.5,35.7c0,0,5.1,6.2,0,7.5c-5.1,1.2-20.9,4.7-13.2,11.7c4.9,2,11.8,4.6,11.8,4.6
			c4.1,2.4,16.6,8.1,0.8,15.2c-14.9,9.7-2.6,7.2,10.9,10.6c13.5,3.3-9.1,33.3-9.1,33.3s-10.8-3.6-17.6-7.7s2.9-13.7,9.1-22.7
			c6.2-8.9-13.3-19.2-17.6-22.6c-4.3-3.4-4.6-9.1,6.3-13.5c10.9-4.4-5.9-10.6-10.7-13.2c-4.8-2.6,0.7-14.2,10.6-24.6
			c9.9-10.4,0-17.6,0-17.6"/>
		<path class="st0" d="M476.9,1034.6c0,0-20.4,32.7-12.4,34.9c8,2.2,22.5,3.2,15.1,8.2s-23.7,10.8-9.3,15.6
			c14.5,4.8,22.5,9.9,16.7,12.8c-5.8,2.9-18.9,7.4-6.7,20.9c12.2,13.5,23.8,24.5,23.8,24.5s18.9-22.4,4.4-28.1
			c-14.5-5.7-24.8-22.1-17.7-25.6c7.1-3.5,16.3-12.1,10.2-12.9c-6.1-0.9-32.7-10.3-12.9-18c0,0,13.1-3.7,7.3-10.3
			S476.5,1039.5,476.9,1034.6z"/>
		<path class="st0" d="M510.8,1037c0,0-20.2,19.3-12,29.8c8.2,10.5,13.9,3.5,4.1,20.5c0,0,27.3,12.9,23.5,18.5
			c-3.8,5.6-15.1,15.8-12.3,22.5c0,0,3.8,10.6,11,9.6c7.2-1,2.2-14.6,8.8-16.7c6.6-2.1,10.7-4.9,14.4,2.2c3.7,7.2-8.5,17.8,0,18.7
			c8.5,0.9,15.9,3.3,12.9-5.8s-10.7-15.6,5.5-13.1"/>
		<path class="st0" d="M462,1145.8"/>
		<path class="st0" d="M626.7,1046.4c0,0-13.2,5.5-12,12.7s3.9,12.4,3.9,12.4c3.5,14.4-17.2,17.5-24,10.2s4.8-21.3,6.5-25
			c1.7-3.8-0.9-25.6-12.3-15.5c-11.4,10.1,0,18.9,0.1,31s-17.6,16.5-24.4,3.1s18.6-26.7,5.4-36.1c-13.1-9.4-19-0.5-25.1,4
			s2,24.4-5.4,31c-7.4,6.6-14.1-1.8-14.1-1.8c-3.5-6.2,8.6-22.4,6.2-33.4c-2.4-11-8.9-11.2-14.2-4.6c-5.3,6.5,5,21.1,0.9,32.3
			s-11.7,6.6-11.7,6.6"/>
		<path class="st0" d="M525.2,1072.5c0,0-1.7,33.8,3.8,35.7c5.6,1.9,17.5,2.8,16.8-3.9c-0.7-6.7-18.7-21.1-8.3-28.7
			s25.2-9.3,26.8-0.3c1.6,9-11.7,19-6.3,27.9c5.4,9,12.5,9.5,17,6.2c4.5-3.4-7.6-22.7-0.1-24.9s18.6-6.5,21.4-1.3
			c2.7,5.2-9.1,9.7-7.2,21.3c2,11.6,11,15.7,15.1,11.7c11.9-8.9,21.9-19.4,11.8-34"/>
		<path class="st1" d="M526.4,1105.8c0,0-8.1,12.7-1.4,15.3c6.7,2.6,9.8,2.3,9.9-4.7c0.1-6.9,1.4-6.5,6.8-7.2s9.3,0,6.7,5
			c-2.6,5-2.2,11.7,5.8,11.4c8-0.3,0.7-22.7,6.4-18.6c5.7,4,7.9,5.9,6,11c-1.9,5.1,1.4,8.9,6,8.9s5.6-5.7,5-8.9
			c-0.7-3.3-5.8-6.5-2.6-8.3s12.2-7.3,16.6,2s-7.6,4.7-3,15.2c6.4,6.4,12.5-1.8,11.5-9c0,0,13-6.5,14.7-3.2c1.7,3.4-6,6.6,0,14.4
			c6,7.8,39.1,4.4,28.3-16.6"/>
		<path class="st0" d="M566.7,1123.2c0,0,3.8,3,2.4,5.4c-1.4,2.4-5.1,11.1-1,13.5c4.2,2.4,9.2,1.9,9-5.1c-0.3-7-1.8-8,0.5-14.9
			c2.3-6.8,11.3-2.9,10.2,2c-1.1,4.9-5.2,15.8,0.1,17.9c5.3,2.2,8.7,1.9,9.4-5.1c0.7-7-2.8-5,0-9.4c0,0,8.9-9.1,16.5-0.3
			c2.3,5.4-7.1,9.5-1.3,15.7c5.8,6.2,17.3,6.9,14.4-5.5c0,0-2.6-4.3,1.7-4.9c4.4-0.6,12.2-3,11.3,4.5s1.5,14.4,7,13.9
			c5.5-0.5,8.4-2.7,6-13.5s-6.3-19.2,1.8-17.8"/>
		<path class="st0" d="M561.5,1141.7c0,0-2.4,3.5,0,5.7c2.4,2.2,11.2-0.5,6.6-5.3"/>
		<path class="st0" d="M576.8,1140c0,0,3.7,6.2,9.3,0.7"/>
		<path class="st0" d="M596.8,1139.9c0,0,7.2,12.1,14.7,1.7"/>
		<path class="st0" d="M625.1,1146.4c0,0,2.5,4.6,6.9,4.7s11.4,0.6,10-2.4"/>
		<path class="st0" d="M653.1,1148c0,0,11.7,9.8,17.2-1.3"/>
		<path class="st0" d="M518.1,1151.4c0,0,17,6.1,16.1-3.2"/>
		<path class="st0" d="M410.9,1168.9c-4.8,0.4,30.9,9.5,51.1-23.1c0,0,8.5,22.9,21.6,17.1c13.1-5.8,20.6-11.4,20.6-11.4
			s8.8,7.5,13.9,0c5-7.5-1.9-11.8,7-13.5c8.9-1.7,8.4-1.4,8.2,5.3c-0.2,6.7,2.9,7.4,7.5,5.9c4.6-1.5,4.8-4.8,4.5-9.4"/>
		<path class="st0" d="M462,1145.8"/>
		<path class="st0" d="M344.9,1026.8c0,0-26.3,20.8-23.3,40.4c10.3,25.2,25.6,53.9,27.1,45.1c7.7-19,40.2-39.5,40.2-39.5
			s-52.3-38.6-43-48.6c9.3-10,28-16.6,28-16.6"/>
		<path class="st1" d="M471.1,883.4"/>
		<path class="st1" d="M248.2,1103.8"/>
		<path class="st1" d="M242.8,1131.9"/>
		<g>
			<path class="st0" d="M157.3,1136.3c-0.4,6.1-7.1,13-16.7,10.2c-9.6-2.8-7.3-12.1-7.3-12.1s6.8-22.2,11.8-22.2
				c5,0,12.4-4.7,14.8,3.8c0.5,5.8-7.8,19.2-1.1,21.2c4.8,1.5,11.6,6.8,11.5-8.1c0-5.7,4-12.8,7.3-12.2c0,0,9.3-2.1,5.8,6.9
				c-3.5,9.1-10,13.9-3.5,15.3c6.5,1.4,10.7,3,12.3-2.1s-7-21.9-2.1-20.6c0,0,3.3-1.8,5.4,0.6c2.1,2.3,5.1,5.9,3.5,12.3
				c-1.7,6.4-2.5,10.6,0,11.2c2.5,0.7,4.7,3.2,7.6,0c2.9-3.2-5.3-25.1,2.2-24.6c0,0,7.1,1.5,4.8,7.1c-2.3,5.6-5.1,21.3-1.4,21
				c0,0,5,2.4,5.7-3.8c0.8-6.3-1.7-21.5,3.6-20.7c5.3,0.8,7.5,0.2,10.9,2.2c1.5,3.4,0.7,7.2-2.2,12.2c-2.9,5-1.1,7.4,0.7,8.2
				c0,0,7.8,3.8,10.7-1.3c2.9-5.1-6.1-13.1,1.2-21.4c0,0,3.9-8,14.1-6.9c10.3,1.1-6,25.6,3.6,28c9.6,2.3,17.7,4.7,18.1-3.4
				s-11.4-16.4,0.4-24.6"/>
			<path class="st0" d="M168.5,1137.4c0,0,3.8,14.1,10.6,1.6"/>
			<path class="st0" d="M187.7,1140.8c0,0-1.3,4.9,3.1,6.3s10.5,1.1,8.4-6.3"/>
			<path class="st0" d="M206.7,1140.7c0,0-3.8,6.1-0.9,7s6.9-0.1,5.3-4.4"/>
			<path class="st0" d="M217.6,1142.6c0,0-1,2.8,1.3,3c2.2,0.2,15.3,1.6,10.7-4.6"/>
			<path class="st0" d="M262.4,1145.4"/>
			<path class="st0" d="M224.8,1111.1c0,0,19.7-3.8,18.4,5.2c-1.5,10.3-11.6,3.1-17.7,3.7c-6.1,0.6,4.2-12.8-3.9-14.7
				s-0.3,8.9-5.7,11.9c-5.4,2.9-8.1-3.5-7.9-9.2c0.2-5.6-7.3-3-8.6,4c-1.3,7-3.9,5.1-7.7,4c-3.8-1.1,0.6-10.1-4.4-9.2
				s0.5,5.2-2.7,9.1c-3.2,3.9-9.6-1.6-9.3-6.4c0.3-4.8-6.1-1.6-10.9-1.4c-4.8,0.2-4.5,7.9-4.5,7.9"/>
			<path class="st0" d="M237,1084.2"/>
			<path class="st0" d="M208.8,1090.9c0,0-2.5-9.9,2.6-9.9c5,0.1,12.7,3.3,9.7,11.3c0,0-1.4,19.4-8.3,18.2c-7-1.1-4.1-9.9-3.6-14.2
				s-0.2-9.5-5.9-5.8c-5.7,3.7,5,13.4-2,15.9c-12.6,4.7-12.6,1-11.3-4.5c1.8-7.6,2.3-11.9-3.6-11.1s1.8,12.5-2.8,14.6
				c-18.4,8.3-9.8-12.8,0.5-11.1"/>
		</g>
		<path class="st0" d="M281.2,1087.8"/>
		<path class="st1" d="M348.7,1112.4c0,0-7.5,27.9,19.2,31.3"/>
		<path class="st1" d="M309.4,1106.8c0,0,23.6,1.6,18.8,15s-10,28.2-21.5,26.2c-14.6-2.5-11.2-14.5-11.2-14.5s12.5-8.8,14.8-21.1
			c2.3-12.4-17.6-2.5-18.4-21.8c-1.6-36.9,30.6-29,29.7-23.5"/>
		<path class="st1" d="M293.2,1094.8c0,0-17.4,13.1-13.8,17.7c3.5,4.6,19.4,15.7,16.2,21.1"/>
		<path class="st1" d="M327.5,1114.1c0,0,30.2,10.5,20.3,23.4c-9.9,12.9-21.5,18.7-32.7,8.6"/>
		<path class="st0" d="M260.1,1114.3c0,0,10.1-14.7,19.3-1.8"/>
		<path class="st0" d="M269.6,1142.5c0,0-3.8,20.3,13.9,17.3c15.1-2.5,34.4,2.7,23.2-11.7"/>
		<path class="st0" d="M241.9,1140.9"/>
		<path class="st0" d="M189.1,1090.9c0,0-10.9-18,0-17.6s19.9,7,14.1,17.2"/>
	</g>
	<path class="st1" d="M333.2,1149.8c0,0,0.2,19.9,10.5,24.1c10-9.2,25.9-20.1,25.5-25.7"/>
	<path class="st1" d="M343.7,1173.9c0,0,24.4,17.2,31.2,1.3c6.8-16,15.3-23.5,15.3-23.5s-3.8,10.6,5.5,11.7c9.3,1,15.1,5.5,15.1,5.5
		l17.8-21.1"/>
	<path class="st0" d="M241.9,1140.9c0,0-9.5,14.8,3,17.6s20.5-3.8,16-18"/>
	<path class="st0" d="M260.7,1153.9c0,0-1.7,11.9,2.7,11.5c4.4-0.4,16.9-1.5,12.1-6.1"/>
	<path class="st0" d="M444.6,1163.3c0,0,8.4,12.1,16.3,11.5c7.9-0.7,7.4-12.5,15.4-11.8"/>
	<path class="st0" d="M200.8,1076.9c0,0-4.7-4.1,1.3-6.3c6-2.2,14.7-6,11.9,2.2c-2.7,8.2-1.5,8.3-1.5,8.3"/>
	<path class="st0" d="M107.9,1027.7"/>
	<path class="st0" d="M555.9,13.8c0,0,10.3-12.3,18.7-4.9c0,0,11.1,5,12.3,13.9c1.3,9,1.3,9,1.3,9"/>
	<path class="st0" d="M600.3,22.5c0,0,8.8-5,10.1-0.8c1.3,4.3,2.6,8.9,2.6,8.9"/>
	<path class="st0" d="M633.8,670.5c1.2,1.8,11.5,17.4,13.1,8c1.2-6.7-10.4-31.5,1.8-41.5c12.2-10,15.5-3,13.4,11.5
		s-12.6,48.3-7.6,51.9"/>
	<path class="st0" d="M643.6,697.1c0,0,11.8-8.6,3.4-18.6"/>
	<path class="st0" d="M711,794.4c0,0,23,10.1,18,21.3c-5,11.2-13.5,24.4-13.5,24.4"/>
	<path class="st0" d="M189.1,1073.3c1.6-6.7,0.4-13.3-9.9-12c-10.4,1.3-7.6,6.2-5.3,23.6c2.3,17.4-1.7,22.1-9.3,23.3
		c-7.6,1.2-8-9.2-2-27.1c6-17.9-2-22.1-17.4-18.6c-15.4,3.5,0,49.8,0,49.8"/>
	<path class="st0" d="M142,1064.5c0,0-6-14.5,6-15.5s20.4,9.8,16,18.2c1.2,9.3,6.3,4.8,7.7,0.6c1.5-4.2-12.6-16.3-3.2-17.3
		c9.5-1,21.9-1.2,21.1,6.6l0,10.2"/>
	<path class="st0" d="M157.1,1050.7c0,0-5.7-6.8,2.8-10.5s8.6,10.3,8.6,10.3"/>
</g>
</svg>
