<?xml version="1.0" encoding="utf-8"?>
<!-- Generator: Adobe Illustrator 19.1.0, SVG Export Plug-In . SVG Version: 6.00 Build 0)  -->
<svg version="1.1" id="Laag_1" xmlns="http://www.w3.org/2000/svg" xmlns:xlink="http://www.w3.org/1999/xlink" x="0px" y="0px"
	 viewBox="0 0 841.9 1190.6" style="enable-background:new 0 0 841.9 1190.6;" xml:space="preserve">
<style type="text/css">
	.st0{fill:none;stroke:#FFFFFF;stroke-miterlimit:10;}
	.st1{fill:none;stroke:#FFFFFF;stroke-width:2;stroke-miterlimit:10;}
</style>
<g>
	<g>
		<g>
			<path class="st0" d="M592.8,426.5c0,0,11-16.9,0-17.9c-2.2,1.5-5.2,17.4-5.2,17.4"/>
			<path class="st0" d="M592.7,408.6l-2.7-21.1c0,0-0.8-17.6-0.1-25.6c17.1-17.3,6.5,48.2,6.5,48.2l7.9,9.8l0.8-51.8l9.4,6
				c0,0,0.3,44.8,4.1,41.8"/>
			<path class="st0" d="M583.6,425.7c0,0-0.7-16.6-14.4-13.8c-2.3,3.4-5.6,9.3-5.6,9.3l10.5,18.8"/>
			<path class="st0" d="M582.5,420c0,0,5.2-15.2-11.7-18.4c-3.2,2.1-1.6,10.3-1.6,10.3"/>
			<path class="st0" d="M590.2,413.1l-7.7-18.2c0,0,12-30.9-0.5-41.8c-1.9-1.9-7.1,4.1-7.1,4.1s0.9,34.4-2.4,44.5
				c-4.1,0.6-11.2-9.8-11.2-9.8l7.9-49.8l-9.2-2.9l-4.3,24.9l-13.7,28c0,0,1.9-10.3,9.6-39.2c3.6-14.1,7.7-21.5-7.4-25.6
				c0,0-9.3-0.8-9.3,9.2c-0.7,6.7-1.6,14.3-1.6,14.3L520.9,392l0.1-31l8.9-41.9l-21.7-5.7l-2.2,23.7c0,0,0.3,59.3-12.8,40.9
				c-3.6-4.7,3.2-35.4,3.2-35.4l-6.1-32.8l-18.9,15.1c0,0,4.8,54.3-8.4,36.9c0,0-4.9-5.6,2.1-23c1.4-4.6,9.3-21-2.2-27.1
				c-3.5-2-9.1,3.9-9.1,3.9s-1.8,52.7-14.9,38.4l5.8-22.7l0.8-27.5l-11.6,1.3l-19.2,44.4l2.2-48.6"/>
			<path class="st0" d="M458.5,374.5"/>
			<path class="st0" d="M440.4,366.8"/>
			<path class="st1" d="M551.2,410l-5.3-4.4l-10.3,13c0,0,5.4-14.1,5.5-17.7c-3-2.2-22.5,1-22.5,1l-8.2,9.3l1.4-15l-6.8-10l-9,2.8
				l-7,22.5l-0.3-29.8l-20.6-6.3c0,0-1,37.3-11.3,20.8c0.6-6.3-6.5-24.9-6.5-24.9l-7.8,15.2L437,386c0,0,0.5-13.4-6.1-18.4
				c-15.6-2.4-14.1,10.8-14.1,10.8c-8.6,16.4-9.3-0.8-9.3-0.8l7.4-4.4l7-25l10.1-4.1l4.7,22.3l6,4.2l1.7-3.1c0,0,1.3-12.1,3.6-15.5
				c20.3,0.6,10.6,22.4,10.6,22.4s10.3,5.6,9.3,0.8c-2.2-12.7,4.6-13,4.6-13c23.7,5.9,14.9,13.6,14.9,13.6l1.2,8.8
				c9.6,9.3,9.4-0.2,9.4-0.2l10-6.5c0,0,4.6,9.2,4.1,14.5c7.3,16.1,13.9-3.5,13.9-3.5l15.3,8.2l6.2,2.2c0,0,11.5-4.3,13.8,1.3
				c-13.3,14.6,2.4,20.4,2.4,20.4"/>
			<path class="st0" d="M503.3,408.3"/>
			<path class="st0" d="M617.5,332.2l-0.3,21.8l-3.7-0.3c-2.1-14.3-7.1-9.1-10.2-2.6c4.9,13.2-2.7,19.3-2.7,19.3l-1.1,1.5"/>
			<path class="st0" d="M611.5,346.4c0,0,16.2-33.7,1-29.4c-4.3,3-4.6,28-4.6,28"/>
			<polyline class="st0" points="601.1,350.1 593.5,341.5 595.1,359 			"/>
			<polyline class="st1" points="585.7,356.9 583.1,330.8 580,351.5 			"/>
			<path class="st0" d="M566.2,321.2"/>
			<path class="st0" d="M573,346.6"/>
			<polyline class="st1" points="562.2,338 566.2,321.2 573,346.6 			"/>
			<path class="st0" d="M569.5,321.5"/>
			<polyline class="st1" points="553.5,332.4 550.4,315.4 541.3,327.7 			"/>
			<path class="st1" d="M533.2,322.2c0,0,4.1-13.4-13.1-17c-6.7-0.6-12,9.2-12,9.2"/>
			<polyline class="st1" points="503.5,312.8 492.8,297.4 477.9,313.2 			"/>
			<polyline class="st1" points="467.4,315.9 469.3,295.2 458.7,309.9 			"/>
			<path class="st1" d="M448.4,306.1c0,0,11.6-13.7-3.7-23.2c-4.5-2.4-4.4,8-4.4,8l-4.8,9.4"/>
			<polyline class="st1" points="436.2,300.4 414.5,297.6 425.3,273.1 444.6,282.9 			"/>
			<path class="st0" d="M599.3,343.8c0,0,18-38.5,2.9-32.1c-3,2.4-5.6,9.9-5.6,9.9l-1.5,16.6"/>
			<path class="st0" d="M425.3,273.1l-8.4,0.9l1.2-13l20,9.4l4.4,10.1l6.5-2.8c0,0,4.9,2,4.6,7.2c-1.8,10.7,0.2,12.3,2.7,12.5
				c8.9,4.3,10.1-16.9,10.1-16.9s2.6-7.3,7.1-8.2c8.9,2.3,0.9,19.3-0.8,23c3.4,12.3,10.4,3.4,10.4,3.4l7.4-18.3c0,0,6.2-4,12.1-2.4
				c9.3,5.6,0.5,14.2-0.1,20.2c1.4,17.8,7.4,8.9,7.4,8.9l4.3-13.6l9.7-10.2l9,30.6l9.4,3.4l1.6-17.1l5.8-8
				c13.8,3.9,7.3,20.8,6.8,26.2c3.8,11.4,9.8,2.8,9.8,2.8l4.7-15.5l4,20l8.1,5.2l0.7-17.1l7.8-6.2l-1.8,19.4l3.6,14.5"/>
			<path class="st0" d="M619.3,330"/>
			<polyline class="st0" points="619.2,320.3 624.9,305.7 612.7,311.6 619.2,320.3 			"/>
			<path class="st0" d="M612.7,312.6l-2.4-4.8l-0.5-12.5l-8.9,7c0,0-0.4,18.5-8.6,8.5c-0.5-5.8,3-14.5,3-14.5l-5.2-6.1l-2.3,11.7
				c0,0,2.4,7.5-8.2,11.4c-4.2,0-5-12.6-5-12.6s8.6-19.4-2.1-12.5c-1.8,5.8-1.1,12.5-1.1,12.5s-5.4,8.2-13,2.4
				c-1.6-5.2-1.4-18.9-1.4-18.9l-10.2,1.1l-3.8,10l-1.6-0.2c0,0-12.7-2.7-8.9-13.1l-2.9-5.7l-9.9,1.1c0,0,0.4,12.5-10.2,9
				c-2.7-1.4-1.7-11.8-1.7-11.8l-4.7-10.2l-11,5.9c0,0,0.1,13.8-9,11.5c-1.6-0.7-4.2-13-4.2-13l-5.8-12l-3.7,11.4l-13.2,13.1
				l-1.6-8.4c0,0,9.2-13.3,0.3-18.8c-3.6-0.3-7.6,7.2-7.6,7.2l-3.8,17.5l-5-12.7"/>
			<line class="st0" x1="424.2" y1="190.9" x2="424" y2="192.6"/>
			<path class="st0" d="M625.6,250.8l3.7-18.1l-4.2-3.4l-3.7,1.7l-2.8,13.9l-5-1l1.7-13l-2.8-8.3l-10.8,2.5L598,243l-2.1,0.8
				l-3.4-12.9l-1.3-13.7c0,0-8-0.7-10.8,2c-0.9,4.5-2.7,13.4-2.7,13.4l-3,5.8l-4.9-7l3.9-9.7l-12.7-9.7l-7.1,16.5l-2.7,2.3l-4-6.4
				l0.9-10l-11.7-10.6l-4.4,3.6l-1.9,9.4l-3.3,3.2l-2.5-5.3l0.4-9.6l-12.1-5.6l-9.4,9.2l-4.5,4.6l-4-6.4l-7.5-11.8l-6.3,13.6
				l-4.6,5.6l-8.6-5.8l1.7-7.4l-4.4-12.5l-11.7,1.5l-1.5,10.5l-2.6,6.8c0,0-8.6,0.2-11.4-2.5c-1-5.1,0.5-10.6-0.1-15.7
				c-3.6-4.9-13.4,1.4-13.4,1.4l-0.9,4.3c0,0-1.4,5.5,0.9,7.7c3.7-1.7,11.1-0.9,11.1-0.9"/>
			<path class="st1" d="M633.2,188.8l-4.3-47.3l-8.1-2l3.4,24l-0.4,30.8l-10.6-20.6l-1-31.1l-4.8,25.3l-6.2,26.7l-7-14.8l-1.6-38
				L585,159l-3.7,29.7l-4.4-26.2l-2.7-26.2l-6.9,26.4l-10.1,20l-7.3-11.3l1.2-32.7l-6.6,19.3l-9.7,22.6l-9.3-13.2l3.6-36.5
				l-16.3,9.6l-4,35.2l-5.1-24.4l-7.6-30.2L485,134.5l-2.9,37.6l-12-12.7l-0.2-39.1l-15.3,7.7l-5.9,45.4l-13-20.4
				c0,0,15.7-37.2,0.2-41.1c-3.5-0.3-3.5-0.3-3.5-0.3l-6.3,2.7l1,47.8"/>
			<polyline class="st0" points="628.8,144.3 624,123.7 624.8,137.1 			"/>
			<path class="st0" d="M614,141.3l-3.4-17.5l-1.5,17c0,0-4.7,17-12.2,3.7c0.5-5.8-2.9-23.1-2.9-23.1s-9.4,6.7-8.3,18.9
				c-2.7,3.8-6.2-3.6-6.2-3.6l-5.6-12.4l-8,17.5l-8.4-4.1l-4-15.3l-9.2,9l-5.2,10l-4.7-13.9l-9.9-7.7l-8.8,4.7l-7.4,7.4l-2.4-10.4
				l-10.8-6.9l-6.9,5.3l-2,3.5l-10.6,3.8l-4.4-12.1l-15.7,1.9l-6.6,5.9l-6.5-10.4l-7.4-10.3l-0.9,9.6"/>
			<polyline class="st0" points="629.9,134.7 638.6,130.3 630.7,126 630.2,127.6 			"/>
			<polyline class="st0" points="638.6,130.3 636.8,106.3 635.3,122.4 			"/>
			<path class="st0" d="M629.6,123.2l1.5-1.2l-1.4-19.7l-4.2,19.9l-11.5,1.3l5.6-20.6l-11.6,8.9l-5.4,15.2l-4.6-8.7l-5.1-14.7
				l-3.6,17.8l-11.7,3.2l1.9-21.3l-5.7,20.9l-16.2,1.9l1.3-14.2l-6.5-7.3l-4.7,14.7l-13.6,4.7l-5.9-16.7l-11.7,6.1l-6.1,8.4l-6-12.1
				l-13.3-5.8l-1.2,12.7c0,0-22,5-17.9-9.9c0,0,4.4-4.4-13.5-10.4c-5.6,6.5-2.1,17.2-2.1,17.2l-15.6-11.8l-2.6-15.5l-3.3,15.7"/>
			<polyline class="st0" points="634.6,87.6 634.4,85.6 631.4,72.2 627.6,80.9 627.3,101.9 633.2,94.2 641.5,79.8 638.8,109.8 			
				"/>
			<polyline class="st0" points="627.3,101.9 621.4,104.3 619.1,92.7 624,75.5 614,64.7 611,84 603.3,109.7 599.6,89.9 606.1,62.7 
				593.3,72.7 586.3,108.2 586.3,82.9 585.1,63.6 574.4,77.5 572.3,111.5 571.2,111.3 558.3,102.5 563,70.7 549.1,81 544.7,113.5 
				533.5,105.6 536,71.5 517.6,91.9 510.2,112.1 504.4,96.2 499.9,73.3 486.4,77 485.9,110 471.9,100.3 473.6,64.6 454.6,62.6 
				454.7,100.8 440.9,81 442.8,54 437.3,50.4 433.4,66.2 438.3,86.4 			"/>
			<polyline class="st0" points="640,78.9 639.9,48.6 637.6,81.2 			"/>
			<path class="st0" d="M631.4,72.2l4.5-23.4l-5,12.9l-4.9,10l-0.5-11.8l-4.3-12.6l-7.6,14.1l-6.3,2.6l-6-14.5l-6.3,13.8
				c0,0-0.6,7.6-6.5,2.6c-0.7-3.5,1-10.7,1-10.7l-10.8-1.2l-2.6,15l-10.6,2.5l-2.6-12.7L552.7,64l-5.3,14.4l-10.5-9.3l-4.6-11.3
				l-11.7,5.5l-5.1,25.3l-6.4-2.1L504.9,76L502,58.1l-12.5,4.7l-5.1,11.7l-9.6-6.1l-1.2-11.5l-17.1-6.4l-8.7,9.8l-3.7-10.1l0.7-4.1
				l-6.4-7.6L434.9,50l5.6,1"/>
			<polyline class="st0" points="642.9,46.4 646,37.1 641.1,41.4 635.9,48.8 634.5,36 628.9,39.8 625.5,48.8 632.9,49.5 			"/>
			<path class="st0" d="M631.4,33.9l-8.2-0.8l-5.3,5.8c0,0-1.6,6.2-1.4,11.5"/>
			<polyline class="st0" points="614,55.1 605.9,50.6 603,37.7 596.5,48.5 589.4,55.2 587.1,43.6 581,51.5 			"/>
			<polyline class="st0" points="578.4,60.1 565.5,61.1 557.9,51 554.5,57.9 548.7,66.2 537.2,65.1 			"/>
			<path class="st0" d="M439.9,36.3"/>
			<path class="st0" d="M532.2,57.8l-7.2-8.5L522.4,60l-7.3,6.6l-9.6-5.5l-3.4-18.4l-10.6,3.1l-0.1,13.5l-16.9,0.2
				c0,0-4.3-9.3-0.8-17.8c-0.1-4.3-8.9-10.1-8.9-10.1l-6.6,12l-4.4,6.6c0,0-7.4,3.6-10.2-12l12.7-2.4L458,23l10.5-4.5l2.4,12.2
				L485.2,47l7.3-14.3l13.8,6.5l0.2,11.5l10.9,1.9l5-5.4l3.1-9.2l5.8,11.4l6.9,5.1l11.3,2.9l2.6-9.2l0.9-10l6.5,5.8l12.4,11.7
				L580,43l4.5-1.9"/>
			<polyline class="st0" points="642.8,35.4 635.6,32.5 634.5,36 			"/>
			<path class="st0" d="M604.8,32"/>
			<polyline class="st0" points="585.7,19.1 599.9,16.9 599.6,32.9 588.2,31.8 584.5,39.1 598.5,39 599.3,30.9 605,33.4 606.1,35 
				618.5,37.6 613,30.7 608.6,32.3 606.2,34.7 			"/>
			<line class="st0" x1="596.4" y1="44.4" x2="588.7" y2="46.7"/>
			<path class="st0" d="M457.8,20"/>
			<polygon class="st0" points="581.8,37.6 573.4,44.6 558.5,39.4 561.2,24.8 579.6,28.7 			"/>
			<path class="st0" d="M550.4,28.4L549,43.1c0,0-24.2,2.6-18.1-11.4C532,28,550.4,28.4,550.4,28.4z"/>
			<line class="st0" x1="557.3" y1="29" x2="550.4" y2="28.4"/>
			<polyline class="st0" points="597.7,361.2 597.9,359.2 603.4,351.2 			"/>
			<line class="st0" x1="614.4" y1="356.9" x2="604.2" y2="364.8"/>
			<polyline class="st0" points="586.4,427.5 595.4,430.1 593.1,455.3 583.4,453.3 585.8,427 582.6,425.6 575.7,449.7 579.8,456.3 
							"/>
			<path class="st0" d="M582.4,452.8"/>
			<line class="st0" x1="563.8" y1="447" x2="566.7" y2="428.5"/>
			<polyline class="st0" points="536.4,460.1 539.3,437.4 550.8,409.7 556.2,427.6 551.6,445.6 549.5,456.7 			"/>
			<path class="st0" d="M525,451.3l6-14.6l2.8-22.2c0,0-11.6-6.6-17.5-2.7c0,0-7.9,10-7.8,38.9c2.2,10.6,0.1,21.8,0.1,21.8l-0.3,15"
				/>
			<path class="st0" d="M511.3,443.4"/>
			<path class="st0" d="M513,453.4"/>
			<polygon class="st0" points="498.5,474.3 507.7,427 510.2,411.3 499.4,409.5 490.8,435.2 489.7,451.3 482.5,483.9 			"/>
			<path class="st0" d="M490.6,438.1"/>
			<path class="st0" d="M490.3,443.8"/>
			<polyline class="st0" points="463.2,449.8 464.1,433.6 463.2,400.2 465.7,397.2 482.8,404.2 477.1,439 476.1,467.2 			"/>
			<path class="st0" d="M440.8,430.6c0,0-6.8-25.2-1.4-36.9c8.1-3.7,21.2,9.7,21.2,9.7l-9.8,40.8"/>
			<path class="st0" d="M407.4,440.3l3-5.2l0.5-30.8c0,0-0.9-14.5,1.9-20.8c9.1-2.5,21.3,8.6,21.3,8.6l-5.3,41.9l-1.9,7"/>
			<line class="st0" x1="579" y1="27.6" x2="586.6" y2="30.9"/>
			<line class="st0" x1="517.7" y1="25.4" x2="507.6" y2="24.5"/>
			<polyline class="st0" points="493.3,21.4 468.5,18.6 471.6,23.3 488.4,32.3 493.1,23.2 506.3,22.4 505,37.1 524.2,38.8 
				518.1,22.8 531.6,24 530.9,31.7 539.1,17.2 555.9,13.8 558.8,25.6 			"/>
			<path class="st0" d="M439.9,22.5"/>
			<path class="st0" d="M451.5,20"/>
			<path class="st1" d="M421.7,260.1l12-58.3l0.7,60.6l16.5-24.7c0,0-0.3-35.9,4.9-36.9c16.5,2,9.7,34.2,9.7,34.2l-0.5,28.2
				l10.7-34.8l14.4-22.9l-5.3,41.2c0,0-3,18.7,2.4,20.7c17,7.4,12.2-49.6,12.2-49.6l20.3-5.7l-7.6,42.5l4.1,22.1l11-50.2l16.6-3.5
				l-9,40.8l6.5,22.6l10-49.4l16.2-8.7l-7.6,48l9.1,14.2l6-46.4l11.9-9.8l-6,42.1c0,0,0.6,17.2,4,17c12.8-3.1,10.5-43.5,10.5-43.5
				s3.3-11.6,8.6-11.1c18.3,3.7,7.3,15.6,3.7,21.5c-18.8,33.4-8.1,38.5-8.1,38.5l13.7-37l7.5-16.5l1.9,22.4l-7.3,37.1l6.3-11.4
				l2-20.6l6.9-17.3c0,0,3.7-1.2,0.3,35.6l-4.1,6.2l-5.3-0.2"/>
			<path class="st0" d="M630.5,255.5l1.9-21c0,0-1.9-1.3-3.1-1.8l12.2-4.4l-8.8-8.5l-5.9,9.8l1.9-21.3l-5.3,7.8l-4.4,12.8l-2.1-13.4
				c0,0,5.3-10.9-11.6-11.7c-3.9,1.7-1.7,18.6-1.7,18.6l-10.3-8.4l-4.7-14.5l-4.7,7.7l-7.8,14.2l-2.9-12.9c0,0,3.7-15.3-9.4-13.4
				c-3.2,2-4.9,9.1-4.9,9.1l-9,9.9l0.4-17.9c0,0,2.4-9.4-8.6-7.6c-4.7,1.8-6.6,6.2-6.6,6.2l-8.5,13.3l-2.2-14.3l-11-12.1l-4.6,17.1
				l-10.6,6l0-16.9l-3.6-10.4l-10,7.7l-8.6,14.6c0,0-7.2-9.9-3.9-18.2c-0.2-3-1.1-5-9-7c-5.3-0.5-9.3,7.7-9.3,7.7l-8.6,11.8
				l-9.5-12.4l-2.9-18.2l-5.7-1l-1.6,16.5l10.2,2.7l14.6,0.8l6.5-10.5l8.5-7.7l6.5,9.3c-4.9,7.1,7.1,8.3,7.1,8.3l7.6-8.2l9.2-6.5
				l2.6,13.2l12.7,3.1l3-9.7l9.3,8.9l8.5,9.6l8-10.1l7.1-5.4l3.6,8.1l5.6,13.6l7.8-13.4l5.9-6.3l4.2,12.2l7.8,14.7l4.6-16.8l8.5-2.3
				l0.6,4.9c-2.5,8.6,4.9,15.9,4.9,15.9l6.9-14.8c0,0,6.5-4.5,8,0.5c-0.4,15.4,2.6,16.8,2.6,16.8l10.6-6.3c0,0-1.3-10.7,1.3-14.8
				c9.3-4.7,2.6,20.6,2.6,20.6"/>
			<path class="st0" d="M625.5,302"/>
			<line class="st0" x1="424.5" y1="190.5" x2="423.5" y2="178.6"/>
			<line class="st0" x1="414.9" y1="373.2" x2="414.7" y2="349.3"/>
			<g>
				<path class="st0" d="M397.5,464.8c0,0-11,16.9,0,17.9c2.2-1.5,5.2-17.4,5.2-17.4"/>
				<path class="st0" d="M393.8,481.2c0,0-10.5,65.5,6.5,48.2c0.7-8-0.1-25.6-0.1-25.6l-2.7-21.1"/>
				<path class="st0" d="M406.6,465.7c0,0,0.7,16.6,14.4,13.8c2.3-3.4,5.6-9.3,5.6-9.3l-10.5-18.8"/>
				<path class="st0" d="M407.7,471.4c0,0-5.2,15.2,11.7,18.4c3.2-2.1,1.6-10.3,1.6-10.3"/>
				<path class="st0" d="M400,478.2l7.7,18.2c0,0-12,30.9,0.5,41.8c1.9,1.9,7.1-4.1,7.1-4.1s-0.9-34.4,2.4-44.5
					c4.1-0.6,11.2,9.8,11.2,9.8l-7.9,49.8l9.2,2.9l4.3-24.9l13.7-28c0,0-1.9,10.3-9.6,39.2c-3.6,14.1-7.7,21.5,7.4,25.6
					c0,0,9.3,0.8,9.3-9.2c0.7-6.7,1.6-14.3,1.6-14.3l12.5-40.9l-0.1,31l-8.9,41.9l21.7,5.7l2.2-23.7c0,0-0.3-59.3,12.8-40.9
					c3.6,4.7-3.2,35.4-3.2,35.4l6.1,32.8l18.9-15.1c0,0-4.8-54.3,8.4-36.9c0,0,4.9,5.6-2.1,23c-1.4,4.6-9.3,21,2.2,27.1
					c3.5,2,9.1-3.9,9.1-3.9s1.8-52.7,14.9-38.4l-5.8,22.7l-0.8,27.5l11.6-1.3l19.2-44.4l-2.2,48.6"/>
				<path class="st0" d="M531.7,516.8"/>
				<path class="st0" d="M549.8,524.5"/>
				<path class="st0" d="M575.3,518.1l-7,25l-10.1,4.1l-4.7-22.3l-6-4.2l-1.7,3.1c0,0-1.3,12.1-3.6,15.5
					c-20.3-0.6-10.6-22.4-10.6-22.4s-10.3-5.6-9.3-0.8c2.2,12.7-4.6,13-4.6,13c-23.7-5.9-14.9-13.6-14.9-13.6l-1.2-8.8
					c-9.6-9.3-9.4,0.2-9.4,0.2l-10,6.5c0,0-4.6-9.2-4.1-14.5c-7.3-16.1-13.9,3.5-13.9,3.5l-15.3-8.2l-6.2-2.2c0,0-11.5,4.3-13.8-1.3
					c13.3-14.6-2.4-20.4-2.4-20.4"/>
				<path class="st1" d="M439,481.4l5.3,4.4l10.3-13c0,0-5.4,14.1-5.5,17.7c3,2.2,22.5-1,22.5-1l8.2-9.3l-1.4,15l6.8,10l9-2.8
					l7-22.5l0.3,29.8l20.6,6.3c0,0,1-37.3,11.3-20.8c-0.6,6.3,6.5,24.9,6.5,24.9l7.8-15.2l5.3,0.5c0,0-0.5,13.4,6.1,18.4
					c15.6,2.4,14.1-10.8,14.1-10.8"/>
				<path class="st0" d="M487,483.1"/>
				<path class="st0" d="M372.7,559.1l0.3-21.8l3.7,0.3c2.1,14.3,7.1,9.1,10.2,2.6c-4.9-13.2,2.7-19.3,2.7-19.3l1.1-1.5"/>
				<path class="st0" d="M378.7,545c0,0-16.2,33.7-1,29.4c4.3-3,4.6-28,4.6-28"/>
				<polyline class="st0" points="389.1,541.3 396.8,549.8 395.1,532.3 				"/>
				<polyline class="st0" points="404.6,534.4 407.2,560.5 410.2,539.9 				"/>
				<path class="st0" d="M424,570.1"/>
				<path class="st0" d="M417.2,544.8"/>
				<polyline class="st0" points="428,553.3 424,570.1 417.2,544.8 				"/>
				<path class="st0" d="M420.8,569.8"/>
				<polyline class="st0" points="436.7,558.9 439.8,576 448.9,563.6 				"/>
				<path class="st0" d="M457,569.1c0,0-4.1,14.4,13.1,18c6.7,0.6,12-9.2,12-9.2"/>
				<polyline class="st0" points="486.7,578.5 497.4,594 512.3,578.2 				"/>
				<polyline class="st0" points="522.8,575.5 520.9,596.2 531.5,581.5 				"/>
				<path class="st0" d="M541.8,585.2c0,0-11.6,13.7,3.7,23.2c4.5,2.4,4.4-8,4.4-8l4.8-9.4"/>
				<polyline class="st0" points="554.8,591.1 575.7,593.7 564.9,618.3 545.6,608.4 				"/>
				<path class="st0" d="M390.9,547.5c0,0-18,38.5-2.9,32.1c3-2.4,5.6-9.9,5.6-9.9l1.5-16.6"/>
				<path class="st0" d="M396.8,549.8l3.6,14.5l-1.8,19.4l7.8-6.2l0.7-17.1l8.1,5.2l4,20l4.7-15.5c0,0,6-8.5,9.8,2.8
					c-0.5,5.4-7,22.3,6.8,26.2l5.8-8l1.6-17.1l9.4,3.4l9,30.6l9.7-10.2l4.3-13.6c0,0,6-8.9,7.4,8.9c-0.5,6-9.4,14.6-0.1,20.2
					c5.8,1.5,12.1-2.4,12.1-2.4l7.4-18.3c0,0,7-8.9,10.4,3.4c-1.7,3.7-9.7,20.7-0.8,23c4.5-0.9,7.1-8.2,7.1-8.2s1.2-21.2,10.1-16.9
					c2.5,0.2,4.5,1.9,2.7,12.5c-0.3,5.3,4.6,7.2,4.6,7.2l6.5-2.8l4.4,10.1l20,9.4"/>
				<path class="st0" d="M564.9,618.3"/>
				<path class="st0" d="M370.9,561.3"/>
				<polyline class="st0" points="371,571 365.3,585.6 377.5,579.7 371,571 				"/>
				<path class="st1" d="M377.6,578.7l2.4,4.8l0.5,12.5l8.9-7c0,0,0.4-18.5,8.6-8.5c0.5,5.8-3,14.5-3,14.5l5.2,6.1l2.3-11.7
					c0,0-2.4-7.5,8.2-11.4c4.2,0,5,12.6,5,12.6s-8.6,19.4,2.1,12.5c1.8-5.8,1.1-12.5,1.1-12.5s5.4-8.2,13-2.4
					c1.6,5.2,1.4,18.9,1.4,18.9l10.2-1.1l3.8-10l1.6,0.2c0,0,12.7,2.7,8.9,13.1l2.9,5.7l9.9-1.1c0,0-0.4-12.5,10.2-9
					c2.7,1.4,1.7,11.8,1.7,11.8l4.7,10.2l11-5.9c0,0-0.1-13.8,9-11.5c1.6,0.7,4.2,13,4.2,13l5.8,12l3.7-11.4l13.2-13.1l1.6,8.4
					c0,0-9.2,13.3-0.3,18.8c3.6,0.3,7.6-7.2,7.6-7.2l3.8-17.5l6.5,13.1"/>
				<line class="st0" x1="566" y1="700.4" x2="566.2" y2="698.7"/>
				<path class="st0" d="M554.6,689.8"/>
				<path class="st0" d="M364.7,640.5l-3.7,18.1l4.2,3.4l3.7-1.7l2.8-13.9l5,1l-1.7,13l2.8,8.3l10.8-2.5l3.6-17.8l2.1-0.8l3.4,12.9
					l1.3,13.7c0,0,8,0.7,10.8-2c0.9-4.5,2.7-13.4,2.7-13.4l3-5.8l4.9,7l-3.9,9.7l12.7,9.7l7.1-16.5l2.7-2.3l4,6.4l-0.9,10l11.7,10.6
					l4.4-3.6l1.9-9.4l3.3-3.2l2.5,5.3l-0.4,9.6l12.1,5.6l9.4-9.2l4.5-4.6l4,6.4l7.5,11.8l6.3-13.6l4.6-5.6l8.6,5.8l-1.7,7.4
					l4.4,12.5l11.7-1.5l1.5-10.5l2.6-6.8c0,0,8.6-0.2,11.4,2.5c1,5.1-0.5,10.6,0.1,15.7c3.6,4.9,13.4-1.4,13.4-1.4l0.9-4.3
					c0,0,1.4-5.5-0.9-7.7"/>
				<path class="st0" d="M357,702.5l4.3,47.3l8.1,2l-3.4-24l0.4-30.8l10.6,20.6l1,31.1l4.8-25.3l6.2-26.7l7,14.8l1.6,38l7.6-17.2
					l3.7-29.7l4.4,26.2l2.7,26.2l6.9-26.4l10.1-20l7.3,11.3l-1.2,32.7l6.6-19.3l9.7-22.6l9.3,13.2l-3.6,36.5l16.3-9.6l4-35.2
					l5.1,24.4l7.6,30.2l11.1-13.4l2.9-37.6l12,12.7l0.2,39.1l15.3-7.7l5.9-45.4l13,20.4c0,0-15.7,37.2-0.2,41.1
					c3.5,0.3,3.5,0.3,3.5,0.3l6.3-2.7l-1-47.8"/>
				<path class="st1" d="M650,1025.2c0,0,7.3-29.1,14.4-29.9c1.8,5.1,20.4,24.8,20.4,24.8l22.8-19.8l12.8,21.6l-12,32.8l-18.3-24
					l-14.2,8.7l-15.6,10.2l-11.9-21.6l-23.6,18.4l0.9-13.6l8.7-31.9l-13.3-1.5l-6.7,40.1l-13.6,4.9l4.2-27.8l-12-17.5l-4.8,40.4
					l-18.6,0l12.5-36.4l-22-18.3l-14.2,7.9l0.9,48.9l-6.3,2.8c0,0,0,0-3.5-0.3c-15.5-4,0.3-42.1,0.3-42.1l-22.7-28.5l3.7,54.2
					l-15.4,7.9l-0.1-40.1L484,975l4,45.8l-11.1,13.7l-7.5-30.9c0,0-0.5-39.2-5-25c-2.4,7.4-4.1,36.1-4.1,36.1l-16.3,9.9l3.7-37.4
					L432.8,971l-4.2,25.8l-6.6,19.8l1.3-33.5l-5.4-19.8l-12.1,28.8l-7,27l-2.6-26.8l-4.1-31.5l-4.1,35l-7.7,17.7l-1.5-38.9
					l-6.9-11.7l-6.3,24l-4.9,25.9l-0.9-31.9l-10.5-21.1l-0.5,31.5l3.3,24.6l-8.1-2c0,0-9.2-59.3-5.2-59.5"/>
				<path class="st1" d="M634.6,1000.6"/>
				<polyline class="st0" points="361.5,747 366.2,767.6 365.4,754.2 				"/>
				<path class="st0" d="M376.2,750l3.4,17.5l1.5-17c0,0,4.7-17,12.2-3.7c-0.5,5.8,2.9,23.1,2.9,23.1s9.4-6.7,8.3-18.9
					c2.7-3.8,6.2,3.6,6.2,3.6l5.6,12.4l8-17.5l8.4,4.1l4,15.3l9.2-9l5.2-10l4.7,13.9l9.9,7.7l8.8-4.7l7.4-7.4l2.4,10.4l10.8,6.9
					l6.9-5.3l2-3.5l10.6-3.8l4.4,12.1l15.7-1.9l6.6-5.9l6.5,10.4l7.4,10.3l0.9-9.6"/>
				<polyline class="st0" points="360.3,756.7 351.7,761 359.5,765.4 360,763.7 				"/>
				<polyline class="st0" points="351.7,761 353.5,785 354.9,768.9 				"/>
				<path class="st0" d="M360.6,768.1l-1.5,1.2l1.4,19.7l4.2-19.9l11.5-1.3l-5.6,20.6l11.6-8.9l5.4-15.2l4.6,8.7l5.1,14.7l3.6-17.8
					l11.7-3.2l-1.9,21.3l5.7-20.9l16.2-1.9l-1.3,14.2l6.5,7.3l4.7-14.7l13.6-4.7l5.9,16.7l11.7-6.1l6.1-8.4l6,12.1l13.3,5.8
					l1.2-12.7c0,0,22-5,17.9,9.9c0,0-4.4,4.4,13.5,10.4c5.6-6.5,2.1-17.2,2.1-17.2l15.6,11.8l2.6,15.5l3.3-15.7l10.6-5.9l8.3,13.7"
					/>
				<line class="st0" x1="340.9" y1="941.7" x2="339.5" y2="942.9"/>
				<polyline class="st0" points="351.4,781.5 348.7,811.5 357,797.1 363,789.5 362.7,810.4 358.8,819.1 355.8,805.7 355.6,803.7 
									"/>
				<path class="st0" d="M292.1,802.4"/>
				<polyline class="st1" points="363,789.5 368.8,787.1 371.2,798.6 366.2,815.9 376.2,826.6 379.3,807.3 386.9,781.6 390.6,801.4 
					384.1,828.7 396.9,818.6 403.9,783.1 403.9,808.4 405.1,827.7 415.8,813.8 417.9,779.9 419,780 431.9,788.8 427.3,820.6 
					441.1,810.3 445.5,777.8 456.7,785.7 454.2,819.8 472.6,799.4 480,779.2 485.9,795.2 490.3,818 503.8,814.3 504.3,781.4 
					518.3,791.1 516.6,826.7 535.6,828.7 535.5,790.6 549.4,810.3 547.4,837.3 553,840.9 556.8,825.1 569.4,805.5 				"/>
				<path class="st0" d="M352.8,810.4"/>
				<path class="st0" d="M319.7,813.9l-3.4,21.6l12.5,1.6l10.6-26.9c0,0,6.4-2.7,10.9,2.2c-4.3-2.2,1.3,29.4,1.3,29.4"/>
				<path class="st0" d="M316.7,826.4"/>
				<path class="st0" d="M358.8,819.1l-4.5,23.4l5-12.9l4.9-10l0.5,11.8l4.3,12.6l7.6-14.1l6.3-2.6l6,14.5l6.3-13.8
					c0,0,0.6-7.6,6.5-2.6c0.7,3.5-1,10.7-1,10.7l10.8,1.2l2.6-15l10.6-2.5l2.6,12.7l10.1-5.3l5.3-14.4l10.5,9.3l4.6,11.3l11.7-5.5
					l5.1-25.3l6.4,2.1l4.1,10.5l2.9,17.9l12.5-4.7l5.1-11.7l9.6,6.1l1.2,11.5l17.1,6.4l8.7-9.8l3.7,10.1l-0.7,4.1l6.4,7.6l2.5-8.7
					l-4.6-3.9"/>
				<polyline class="st0" points="328.8,837.1 336,859.5 338.5,840.9 344.9,842.1 344.2,854.2 349.1,849.9 354.3,842.5 355.7,855.3 
					361.4,851.5 364.7,842.5 355.3,844.5 				"/>
				<path class="st1" d="M328.8,837.1"/>
				<path class="st1" d="M323.9,854.9"/>
				<path class="st0" d="M358.9,857.5l8.2,0.8l5.3-5.8c0,0,1.6-6.2,1.4-11.5"/>
				<polyline class="st0" points="376.2,836.3 384.3,840.7 387.2,853.6 393.7,842.8 400.8,836.2 403.1,847.7 409.2,839.8 				"/>
				<polyline class="st0" points="411.8,831.3 424.7,830.2 432.3,840.3 435.7,833.4 441.5,825.1 453,826.2 				"/>
				<path class="st0" d="M458,833.5l7.2,8.5l2.6-10.7l7.3-6.6l9.6,5.5l3.4,18.4l10.6-3.1l0.1-13.5l16.9-0.2c0,0,4.3,9.3,0.8,17.8
					c0.1,4.3,8.9,10.1,8.9,10.1l6.6-12l4.4-6.6c0,0,7.4-3.6,10.2,12c-1.1,4.5-1.4,15-1.4,15l5.7-5.8l-0.6-7.4"/>
				<polyline class="st0" points="347.4,855.9 354.6,858.8 355.7,855.3 				"/>
				<path class="st0" d="M385.4,859.3"/>
				<polyline class="st0" points="390.6,858.5 402,859.5 405.7,852.2 391.7,852.3 390.9,860.5 385.2,858 384.1,856.4 371.7,853.7 
					377.2,860.7 381.6,859 384,856.6 				"/>
				<line class="st0" x1="393.8" y1="846.9" x2="401.5" y2="844.6"/>
				<polygon class="st0" points="408.5,853.7 416.8,846.7 431.7,852 429,866.5 410.6,862.7 				"/>
				<path class="st0" d="M439.8,862.9l1.3-14.7c0,0,24.2-2.6,18.1,11.4C458.2,863.3,439.8,862.9,439.8,862.9z"/>
				<line class="st0" x1="432.9" y1="862.3" x2="439.8" y2="862.9"/>
				<polyline class="st0" points="392.5,530.1 392.3,532.1 386.9,540.2 				"/>
				<line class="st0" x1="375.8" y1="534.5" x2="386" y2="526.5"/>
				<polyline class="st0" points="407.4,438 396.6,437.4 395,441.2 396.2,463.3 406.6,465.7 				"/>
				<polyline class="st0" points="410.4,435.1 414.3,440.6 411.6,462.4 405,452.7 407.4,440.3 				"/>
				<line class="st0" x1="426.8" y1="441" x2="423.5" y2="462.8"/>
				<polyline class="st0" points="450.9,444.2 440.3,481.1 433,476 438.7,445.6 				"/>
				<path class="st0" d="M476.1,467.2c0,0,3,5.5-3.1,12.9c-3.4,3.8-13.1,0.1-13.1,0.1l-6.4-12.8l9.6-17.6"/>
				<path class="st0" d="M478.5,434.8"/>
				<path class="st0" d="M514.2,451.1"/>
				<polyline class="st0" points="525,451.3 528.4,485.9 521.1,492.9 508.3,487.4 				"/>
				<path class="st0" d="M549.5,455.3l1.1,41.4l-5.8,2.8l-13.6-9c0,0,3.6-17.4,4.7-27.2c0.1-1.1,0.8-5.4,0.8-5.4"/>
				<polyline class="st0" points="583.7,454.9 579.8,456.3 579.9,502.8 573.9,508.8 554.9,498.3 562.9,454.9 				"/>
				<path class="st0" d="M670.6,484.5"/>
				<path class="st0" d="M681.8,457.5"/>
				<path class="st1" d="M603.7,480.1l11.5-15.8l11.6,18.4l25.9-20.8l18,22.6l11.2-17.8l8.4,22.4l-10.9,24.1c0,0-8.7-21.5-8.7-28.7
					c-3.2,0.2-20.2,24.2-20.2,24.2s-19.3-19.4-23.7-26c-6,0.2-16,20-16,20L603.7,480.1l-23.7,22.7"/>
				<line class="st0" x1="403.6" y1="860.4" x2="411.2" y2="863.8"/>
				<line class="st0" x1="472.5" y1="865.9" x2="482.6" y2="866.8"/>
				<polyline class="st0" points="459.3,859.6 458.6,867.3 472.1,868.6 466,852.5 485.2,854.2 483.9,868.9 497.2,868.1 501.8,859 
					518.6,868 521.7,872.8 496.9,869.9 496,892.5 509.8,902.6 521.8,892.1 522.9,875.5 532.5,873.3 537,873.7 544.2,872.4 
					543.6,863.8 533.9,855.6 532.2,868.3 521.7,872.8 519.3,860.6 505,844.4 497.8,858.6 484,852.1 483.7,840.6 472.8,838.7 
					467.8,844.1 464.7,853.3 458.9,841.9 452,836.8 440.7,833.9 438.1,843.1 437.2,853.1 430.7,847.3 418.3,835.6 410.2,848.4 
					405.7,850.3 				"/>
				<path class="st0" d="M568.5,631.2l8.9-3l6.2,16.4l-5.5,45.8l15.2-19.8l-3-47.2l10.1,3.8l4.5,44.9l20.3,0.9
					c0,0-21.3-22.7-18-48.2c3.4-10.1,17.9-0.5,17.9-0.5l8.8,46.2"/>
				<path class="st0" d="M368.9,594.2l-5.3-0.2l-4.1,6.2c-3.4,36.7,0.3,35.6,0.3,35.6l6.9-17.3l2-20.6l6.3-11.4l-7.3,37.1l1.9,22.4
					l7.5-16.5l13.7-37c0,0,10.7,5.1-8.1,38.5c-3.6,6-14.6,17.9,3.7,21.5c5.2,0.5,8.6-11.1,8.6-11.1s-2.3-40.3,10.5-43.5
					c3.4-0.2,4,17,4,17l-6,42.1l11.9-9.8l6-46.4l9.1,14.2l-7.6,48l16.2-8.7l10-49.4l6.5,22.6l-9,40.8l16.6-3.5l11-50.2L478,637
					l-7.6,42.5l20.3-5.7c0,0-4.8-57.1,12.2-49.6c5.5,2,2.4,20.7,2.4,20.7l-5.3,41.2l14.4-22.9l10.7-34.8l-0.5,28.2
					c0,0-6.8,32.2,9.7,34.2c5.1-1,4.9-36.9,4.9-36.9s21.4-28.7,21.5-16.7l-8.5,49.7l13.4,2.2l2.9-10.7l9.6,12.3l18.1-0.5l-1.6-14.7
					l12.7,0l3.5,11.2l14.4,1l0-14.4l10.6-1l0,13.5"/>
				<path class="st0" d="M337.2,662.7l1.4-28.3l6.8,22.5l5.5,0.9l0.3-25.7l8.4,3.6l-1.9,21c0,0,1.9,1.3,3.1,1.8l-12.2,4.4l8.8,8.5
					l5.9-9.8l-1.9,21.3l5.3-7.8l4.4-12.8l2.1,13.4c0,0-5.3,10.9,11.6,11.7c3.9-1.7,1.7-18.6,1.7-18.6l10.3,8.4l4.7,14.5l4.7-7.7
					l7.8-14.2l2.9,12.9c0,0-3.7,15.3,9.4,13.4c3.2-2,4.9-9.1,4.9-9.1l9-9.9l-0.4,17.9c0,0-2.4,9.4,8.6,7.6c4.7-1.8,6.6-6.2,6.6-6.2
					l8.5-13.3l2.2,14.3l11,12.1l4.6-17.1l10.6-6l0,16.9l3.6,10.4l10-7.7l8.6-14.6c0,0,7.2,9.9,3.9,18.2c0.2,3,1.1,5,9,7
					c5.3,0.5,9.3-7.7,9.3-7.7l8.6-11.8l9.5,12.4l2.9,18.2l5.7,1l1.6-16.5l-10.2-2.7l-14.6-0.8l-6.5,10.5l-8.5,7.7l-6.5-9.3
					c4.9-7.1-7.1-8.3-7.1-8.3l-7.6,8.2l-9.2,6.5l-2.6-13.2l-12.7-3.1l-3,9.7l-9.3-8.9l-8.5-9.6l-8,10.1l-7.1,5.4l-3.6-8.1l-5.6-13.6
					l-7.8,13.4l-5.9,6.3l-4.2-12.2l-7.8-14.7l-4.6,16.8l-8.5,2.3l-0.6-4.9c2.5-8.6-4.9-15.9-4.9-15.9l-6.9,14.8c0,0-6.5,4.5-8-0.5
					c0.4-15.4-2.6-16.8-2.6-16.8l-10.6,6.3c0,0,1.3,10.7-1.3,14.8c-9.3,4.7-2.6-20.6-2.6-20.6l-9.5,13.9l-11.4,5l-1.2-16.7
					l-15.4-4.3l0,18.9"/>
				<path class="st0" d="M364.7,589.3"/>
				<path class="st0" d="M598.4,703.5"/>
				<polyline class="st0" points="665.9,726.9 655.7,712.5 637.5,722 627,715.3 617.6,722.1 603.4,722.1 584.5,722.1 579.6,704.3 
					566.8,712.7 565.7,700.8 578.2,690.4 584.5,704.3 598.3,701.9 596.3,690 610.9,686.4 614,697 627.3,700.3 627.2,686.4 
					637.4,688.9 643.6,697.1 				"/>
				<line class="st0" x1="575.3" y1="518.1" x2="575.5" y2="542"/>
			</g>
			<line class="st0" x1="439.9" y1="427.6" x2="438.1" y2="447.6"/>
			<path class="st0" d="M488.3,448.8"/>
			<path class="st0" d="M489.9,432.1"/>
			<line class="st0" x1="564" y1="444.8" x2="562.1" y2="457.8"/>
		</g>
		<polygon class="st1" points="238.5,824.2 234.4,831.1 241,837.8 282.2,839.2 311.5,841.4 308.7,830.3 279.7,825.6 		"/>
		<polygon class="st1" points="230.8,940.4 228.2,955.9 252.9,960.3 308,961.4 309.6,945.5 286.9,939.8 268.3,938.3 		"/>
		<g>
			<path class="st0" d="M645.1,724.8"/>
			<path class="st0" d="M658,719.2"/>
			<path class="st0" d="M655.6,719.7"/>
			<polyline class="st0" points="610,737.7 617.5,722.1 627.8,739.5 637.4,722 655.3,737.7 665.7,726.9 680.2,739.9 680.2,745.2 
				673.3,752.8 655.3,737.7 647,752.2 627.8,739.5 624.4,763.7 633.6,769.5 630.5,779.8 642.3,787.9 635.8,800.6 655.9,815.8 
				656.4,820.1 648.8,837.7 666.3,864.9 660,883.1 674.7,912.5 681.8,922.3 673,924.8 671.1,931.8 675,943.8 662.1,957.8 			"/>
			<path class="st0" d="M693.1,840.3l15,15.6l7.4-15.6l-11.3-13.2l5.2-28c0,0-1.4-8.7-7.8-12.8c-10.7-3.5,2.2-11,2.2-11l-13.2-8.4
				l5.9-14l-16.2-13.1"/>
			<path class="st0" d="M707.8,719.1"/>
			<path class="st0" d="M578.4,752.3"/>
			<path class="st0" d="M588.3,736.3l-9.8,16l11.3,19.6l11.9,9.3l0.1,23.6l7.7,8.9l-4.4,14.8l13.5,15.5l-6.6,16.1l1.8,10.5
				c0,0,24.2,4.2,15,14.7c-8.7,4.8-21.8,9.7-13.4,22.5c5.9,4.4,16,15.3,16,15.3l-3.8,11l9,8.9l-2.7,15.3l9.1,18.2l-9.2,15.1
				l-8.7-9.5l3.9-26.4l-10-7.4l3.9-17.7l-11.6-5l2.8-14.5l-18.7-19.2l-0.6-12.7l15-8.7L596.9,855l5.7-30.2l-15-7.2l5-14l-6.6-8.7
				l-5.9-8.1"/>
			<path class="st0" d="M643.9,864l4.1-24.9l-15.9-14.4c0,0-5.3-8.6-4.8-7.9"/>
			<path class="st0" d="M627.3,818.2"/>
			<path class="st0" d="M627.1,815.8"/>
			<polyline class="st0" points="621.2,839.8 631.8,855.9 643.9,867.5 629.7,887.1 639.1,905.8 644.8,915.6 633.7,921.2 
				637.5,924.8 649.3,929.3 640.5,935.9 639,944.7 647.5,957.1 642.8,967.6 651,979.4 637.6,998.4 633.6,991.8 			"/>
			<polyline class="st0" points="644.5,867 659.9,877.4 655.3,900.8 646,912.5 655.4,913.7 660.1,917.2 657.8,920.2 648.8,925.4 
				652.4,931.1 657,938.6 649.5,956.2 655.5,975.1 651,979.4 			"/>
			<polyline class="st0" points="671.1,906.6 663.2,912.5 662.3,920.2 669.8,928.5 661.4,932.1 657.6,937.7 660.2,953.5 655,968.6 
							"/>
			<path class="st0" d="M682,921.7"/>
			<path class="st0" d="M664.5,994.6"/>
			<path class="st0" d="M656.2,974.1"/>
			<polyline class="st0" points="642.3,991.8 654.9,993.5 664.5,995.3 671.2,977.9 667.5,970.6 661.5,962.8 			"/>
			<polyline class="st0" points="684.1,923.2 690.1,941.9 676.9,940.4 680.7,950 686.6,964.9 			"/>
			<polyline class="st0" points="698.5,922.3 691.9,941.5 699.8,958 697.5,963.2 685.9,967.5 690.1,974.7 697.9,981.9 687.5,988.5 
				682,994.6 			"/>
			<path class="st0" d="M695.9,883.1"/>
			<polyline class="st0" points="635.9,766.1 653.3,773.7 665.5,767 673.3,752.8 688.4,765.9 682.9,772.5 693.1,790.4 700.2,820 
				692.8,836.1 			"/>
			<polyline class="st0" points="696,999.8 678.9,993.9 671.7,977.1 681,970.6 685.9,967.5 			"/>
			<path class="st0" d="M697.9,981.9"/>
			<polyline class="st0" points="698.7,925.4 704.6,940.5 695.4,950 			"/>
			<polyline class="st0" points="705.1,939.6 708.3,949 710.9,958.4 708.5,967.4 714.7,977 705.9,977.6 698.7,980.8 			"/>
			<line class="st0" x1="699.8" y1="958" x2="707.2" y2="966.4"/>
			<path class="st0" d="M695,1000.3l6.7,0l9.8-1.8c0,0,12.8,0.6,7.1-16.4c-2.7-4.3-3.8-5.1-3.8-5.1"/>
			<path class="st0" d="M708.3,924.1"/>
			<path class="st0" d="M713.5,898.7"/>
			<polyline class="st0" points="537.1,904.5 539.6,915.8 562.8,931.3 556.5,941.4 568.4,960.5 560.3,984.6 572.5,984.6 
				584.4,994.8 			"/>
			<polyline class="st0" points="568.3,920 537.1,904.5 549,887 543.2,875 			"/>
			<path class="st0" d="M555.7,845l6.8-4.6c0,0,4.2,1.3,2,9.8c-7.5-0.1-13.9,35.5-13.9,35.5l13-1.1l4.7,35.4l9.5,1.9l5.6,7.8
				l-5.2,12.1l9.2,16.4l-4.1,16l11.6,6.8l-9.2,15.5l16.4,6l12.5-7.8l-16.9-13.7l8.4-14.4l-9.9-3.7l-6.7-2.5l8.4-24.6l-7.9-7.2
				l-2.3-11.8L573.3,902l-9.9-19.5l8.5-13.6l0.5-10.8l-8-7.9l12.1-20.2l-9.1-1.3l-11.5-6.1"/>
			<polyline class="st0" points="568.3,920 565.5,932.4 572.8,939.9 574.2,958.3 580.8,968.8 565.6,984.6 			"/>
			<polyline class="st0" points="695.6,877.4 692.4,891.7 690,903.1 698.5,922.3 			"/>
			<path class="st0" d="M695.9,878"/>
			<path class="st0" d="M719.6,781.8"/>
			<path class="st0" d="M719.6,781.8"/>
			<polyline class="st0" points="653.3,773.7 659.7,781.9 670.7,792.1 665.6,795.8 665.6,803.5 678.3,820.7 674.9,840.8 687,852 
				688.1,862.2 681.9,887.5 690,903.1 683.7,909.7 684.1,923.2 			"/>
			<polyline class="st0" points="653.3,773.7 645.3,782 645.3,788.4 662,804.8 658.3,821.1 673.9,844 668.9,863 680.6,879.9 
				680.6,885.7 671.7,907.9 			"/>
			<path class="st0" d="M653.3,773.7"/>
			<polyline class="st0" points="695.6,877.4 693.1,840.3 680.4,820 683,807.1 691,796.7 			"/>
			<polyline class="st0" points="665.5,767 679.3,769.5 679.3,769.5 678.7,777.7 673.4,791 691,796.7 			"/>
			<path class="st0" d="M665.5,767"/>
			<line class="st0" x1="647" y1="752.2" x2="665.5" y2="767"/>
			<polyline class="st0" points="647,752.2 640.7,758.4 635.9,766.1 			"/>
			<path class="st0" d="M647,752.2"/>
			<polyline class="st0" points="607.4,742.1 619.4,764 614.8,773.5 625.6,783.7 621,793 633.7,799.8 627.6,817.5 			"/>
			<path class="st0" d="M607.4,742.1"/>
			<polyline class="st0" points="621.4,840.5 628,824.9 614.7,814.1 618.4,798 603.1,780.6 608.8,770.3 598.9,761.4 607.4,742.1 
				607.4,731.3 603.3,722.1 596.7,725.9 592.4,745.9 595.3,763.5 574.1,797 569.2,805.5 584.5,817.6 578.4,833.4 583.5,834.2 
				594.2,837.6 581.4,858.7 572.9,877.7 589.9,891.6 591.2,913.4 606,926.9 602.9,936.8 613.3,949 609.1,970 618.8,972.6 623.9,981 
				614.5,994.8 632.1,998.7 			"/>
			<path class="st0" d="M556.7,825.1"/>
			<path class="st0" d="M719.8,804.6"/>
		</g>
		<path class="st0" d="M343.2,791.3"/>
		<path class="st0" d="M306.2,812.4"/>
		<polygon class="st1" points="272.5,790.1 269.7,803.7 306.3,803.6 321.3,805.8 317,789.8 		"/>
		<path class="st1" d="M219.1,881.2l-4.8,6.5l13.5,19.6l62.6-2.4l32.6,2.2l8.4-29.2c0,0-24,7.1-50,1.1
			C255.4,872.7,245.2,874,219.1,881.2z"/>
		<path class="st0" d="M305.9,788.8l0-16.8l7.1,15.5l6.1-6.1c0,0,14.4-13.7,15-1.8l2.1,10.3l7.6-8l4.6-11.2l1.3,2"/>
		<path class="st0" d="M312.5,757.2"/>
		<polyline class="st0" points="331.7,773.5 343.3,776.1 351.1,760.3 		"/>
		<polyline class="st0" points="310,773.5 311.4,762.6 321.5,765.6 328.6,771.3 327.3,757.2 337.6,759.3 342.7,769.5 		"/>
		<polyline class="st0" points="337.4,757.2 341.4,750.7 344.8,759.3 		"/>
		<polyline class="st0" points="320.4,762 320.3,750.7 326.7,759.3 		"/>
		<path class="st1" d="M228.3,918.1l1,14l80.5-4.4l2.9-12.1l-15.3-1C297.4,914.5,231.4,909.3,228.3,918.1z"/>
		<path class="st1" d="M323.9,854.9c0,0-15.9-7.4-31.6-7.9c-4.4-2-65.9-1.2-65.9-1.2s-9.6-0.5-15.9,15c2.5,6.6,8.5,13.2,8.5,13.2
			l54.6-9c0,0,48.1,11.9,49,5.1C332.4,862.6,323.9,854.9,323.9,854.9z"/>
		<polygon class="st1" points="307.8,980.8 293.2,980.4 225.6,976.7 225.5,968.3 281.7,969 304.7,971.7 		"/>
		<polygon class="st1" points="302.1,991.8 275.2,984.9 227.9,985 230.7,995.3 279.7,996.5 301.4,1001.4 		"/>
		<path class="st0" d="M230.5,1002.1l2.4,12.3l63,2.2c0,0-2.4-13.4-7.6-11.8C269.4,1005.6,230.5,1002.1,230.5,1002.1z"/>
		<polygon class="st0" points="231.5,1019.4 229.3,1026.4 249.8,1032.7 290.7,1032.5 287.8,1022.9 		"/>
		<polygon class="st0" points="233,1034.7 236.8,1042.3 282.6,1044.6 277.4,1037.9 		"/>
		<path class="st0" d="M323.1,751.2l-2.4-51.9l13.6,10.4l7.1,40.9c0,0,4.3-3.7,3.8-49.3c3.5-9,11.7,1.1,11.7,1.1"/>
		<polyline class="st0" points="348.8,667.8 328.8,667.9 342.5,682.8 351.3,680.4 353,674.1 		"/>
		<polyline class="st0" points="343.7,637.5 345.2,609.3 358.4,611.6 		"/>
		<line class="st0" x1="708.1" y1="855.9" x2="695.6" y2="877.4"/>
		<polyline class="st0" points="563.2,729.3 580.5,732.9 578.4,752.3 571.9,785.7 		"/>
		<polyline class="st0" points="603.3,722.1 598.3,703.5 620.7,700.7 626.9,715.3 637.3,698.3 655.6,712.5 		"/>
		<polyline class="st0" points="613.6,616.3 610.5,605.8 597.9,608.7 590.3,623.4 585.4,608.7 574.7,600.5 577.3,618.6 572,630.4 
			564.8,641.9 564.9,681.4 		"/>
		<path class="st0" d="M690.6,684.7"/>
		<polyline class="st1" points="679.2,513.2 665.3,531.7 650.3,508.7 631,529.9 610.6,502.7 582.8,527.5 620.2,542.2 635.9,529.9 
			655.2,539.8 665.3,531.7 		"/>
		<path class="st0" d="M655.3,582.6c0,0,15.7-25.7,10-30.1c-8-10.9-10.1-12.6-10.1-12.6L637,556.9L655.3,582.6l-15,17l21.3,21.6
			l-18.2,18.2l-21.1-19l17.9-20.9L625.6,581l11.4-24.1l-16.8-14.8l-8.2,23.6l13.8,19.2l-15.2,20.8"/>
		<path class="st0" d="M633.8,670.5"/>
		<polyline class="st0" points="655.3,582.6 665.4,596.1 662,618.4 		"/>
		<path class="st0" d="M579.6,456.3"/>
		<polyline class="st0" points="579.6,456.3 588.7,456.7 592.5,470.9 595.6,484.7 		"/>
		<polyline class="st0" points="597,441.1 613.2,462.1 630.8,450.2 650.1,460.8 666.9,448.3 679.5,465 		"/>
		<polyline class="st0" points="592.6,426.5 614.5,425.5 630.8,450.2 650,437 666.9,448.3 		"/>
		<polyline class="st0" points="614.5,425.5 625.1,410.6 650,437 		"/>
		<path class="st0" d="M620.2,543.9"/>
		<path class="st0" d="M601,602.4"/>
		<path class="st0" d="M573.2,590.6l15.9,7.2l2.6-41.9c0,0-0.2-15.5,4.7-16.2c-0.9,0.6,3.8-1.9,11,2.4c10.9,10.2-5,52.1-5,52.1
			l0.3,8l5.8,1.5"/>
		<path class="st0" d="M620.2,542.2"/>
		<path class="st0" d="M620.2,542.2"/>
		<path class="st1" d="M573.3,512.9"/>
		<path class="st1" d="M573.3,512.9"/>
		<polyline class="st1" points="573.3,512.9 577,507.6 587.7,512.8 582.8,527.5 		"/>
		<path class="st0" d="M338.8,954.5"/>
		<path class="st0" d="M338.8,954.5"/>
		<path class="st0" d="M364.7,878.7l0,19.3l14.8-5.3l0-12.5l5.9,6.7l1,8.1l4.5-2.3l1.5-7.3l5.3,0l0,12.6l5.9,2.9l2.2-11l13,0
			l-1.2,13l11.8-2.1l0.1-10.7l10.3,0l-3.4,11.1l6.5,1.5l2.7-11.3l7.5,2.1l-1.5,10.8c0,0,7.2,2.1,8.9-2.7c0-6.3-1.6-11.9-1.6-11.9
			l12.7,4.2l-2.1,11.5l8.2,3.1l1.9-14.6l15.1,4.6L492,913l28.2,2l-1.7-14l12.3,1.7l-6,13.2l14.8,0l-6.3,18.2l22.7,5.9"/>
		<path class="st0" d="M271.9,1084.5c5.4,19-28.1,5.2-28.1,5.2l-4.1-8.7C242.8,1081.2,260.7,1084.1,271.9,1084.5z"/>
		<path class="st0" d="M268,1102.7c-12.9,9.3-28.4,2-28.4,2l-0.7-11.9C238.9,1092.7,272.5,1097.5,268,1102.7z"/>
		<path class="st0" d="M272.6,1070.2l-2.4,9.5l-29.4-4.7l-3.2-12.4C239.1,1063.3,272.6,1070.2,272.6,1070.2"/>
		<polygon class="st0" points="234.9,1052.9 263.7,1064.9 281.6,1057.6 273.9,1053.8 240.8,1047.8 237.3,1046.9 		"/>
		<path class="st0" d="M342.7,919.2l14.1-24.9c0,0,8.9,5.1,4.7,8.8c-5.2,6.5-2.6,19.4-2.6,19.4l21.1-9.2l6.3-18.3l0.1,30l15.2,5.9
			l-1.2-30.3l10.8,14.7l0.7,17.9l12.1-2.4l-6.5-28l15.5,10.3l-3.8,22.7l13-5l-3.8-27.9l15.8,6.5l-6.4,28.5l12.7-4.1l-2.1-29l11,0.8
			c0,0-10.3,30.5-4.8,33.1c3.5,5.3,13.1-1.6,13.1-1.6l-0.1-28.3L492,913c0,0-10.5,17.7-8.1,29.5c5.7,7.3,14.3,5.6,13-2.4
			c-1.3-9.5,1.5-23.2,1.5-23.2l11.9,13.6l-2.2,19.2c0,0,6.8-0.3,9-2.8c5.5-8.2-0.5-30.1-0.5-30.1l12.2,5.9l-5.1,22.4l13.3-0.4l0-8.5
			"/>
		<path class="st1" d="M342.7,919.2l-2.4,19.5l9.1-0.3l9.4-15.9l5.3,12.1l0,10.3l12.1-9.8l6.1-10.1l3,15.5l3.4,9.7
			c0,0,11.7-0.7,8.9-17.1l14.2,0.2l-0.7,16.8l12.8,0l-3.3-14.3l11.7,4.5l3.9,14l6.7-11.7l4.6-4.7l2,14.7l10.7,0l-1.8-14.1l7.7,6.1
			l0.1,13.7l8.6-5.8c0,0-10.9-9.6,3-13.9c4.6,0.2,5.8,0.5,5.8,3.9c1.8,5-3.6,14.4-3.6,14.4l13.5-2.8l2.7-9.6l11.8,5.3l0,13.4
			l10.6-2.6l-4.6-10.9l14.4-1.6l2.3,15l17,0l-3.6-24.9l12.7,11.4l0.8,34.2"/>
		<path class="st0" d="M340.4,938.7l-1.6,15.8l8.7,0l0.3-14l13.7,3.6c0,0-1.6,9.9,2.7,15.2c4.3,5.2,12.1-2,12.1-2l-1.4-15l9.3,2.6
			l-2.7,13.3l12.4,0.4l3.6-13.7l13.7,5.3l6.4,13.4l6.4-13.4l8.5,7.1l0.6,9.5l9.1-5.7l0.6-9.4l7,9.4l0,7.2c0,0,7.5,5.4,8.3-2.6
			c2.2-6.4-1.5-3,0.6-9.1c2.7-3.3,7.7,6.9,7.7,6.9l3.5,8.8l6.7-5.7l-1.3-9.5l6.3,0.9l-1.3,9.9l6.8,4.4l1.6-12.3l16.5,1.2l-1.4,9.5
			l9.4,3.1l3.4-10.3l13-1.5l5.8,14.9l10.6,0l0-10.4l7,4l2.4,10"/>
		<polyline class="st1" points="625,1046.2 642.5,1071.9 664.7,1049.3 678.8,1063.9 702.3,1060 		"/>
		<path class="st1" d="M611.6,1045.9"/>
		<path class="st0" d="M335.9,814.6"/>
		<polyline class="st0" points="322.4,793.7 319.7,813.9 325.3,822 335.9,814.6 336.1,790 340.6,808.2 347.3,808.1 		"/>
		<path class="st1" d="M333.4,859.1"/>
		<path class="st1" d="M336,859.5l7.4,15.3l8.2-4.5l3-11.5l8.5,1.4l1.5,18.5l12.7-2.4L385,858l0.2,14.8l7.6,11.4l4.7-26l5.9,11.1
			l-3.9,17.5l11.5-8.1l7.3-12.2l5.8,6.9l-3.5,15.3l12.3-2.1l-2.1-20.6l5.4,0.6l3.5,12.3l0,11.2l7.6,0l2.2-24.6l4.8,7.1l-1.4,21
			l5.7-3.8l3.6-20.7c0,0,7.5,0.2,10.9,2.2c1.5,3.4-2.2,12.2-2.2,12.2l0.7,8.2l10.7-1.3l1.2-21.4"/>
		<polyline class="st0" points="351.6,873.4 353,892.2 361.4,892.2 		"/>
		<path class="st1" d="M316.7,824.5l-13.9-4.1l-52.4,0.1l-4.5-5.8c0,0,5.2-5.5,13.8-5.3c24,3.5,60,4.3,60,4.3"/>
		<path class="st1" d="M235.6,815.7"/>
		<path class="st1" d="M672.2,1094.4l-16.9-12.8l-12.8-9.7l-10.1,14.9c0,0-3.4-9.6-13.7-14.8"/>
		<polyline class="st1" points="631.8,1085.5 639.9,1110.5 654.7,1119.8 672.2,1094.4 692.4,1119 671.7,1145.7 654.1,1119.1 		"/>
		<line class="st1" x1="672.2" y1="1094.4" x2="686.1" y2="1072.1"/>
		<path class="st0" d="M352.1,1016"/>
		<polygon class="st0" points="428.6,1147.7 438.4,1139.1 423.4,1121.3 431,1095 422.8,1083.9 408.3,1059.7 422,1016.7 
			430.5,1059.6 404.7,1106.1 414.3,1122.8 408,1140.6 		"/>
		<polyline class="st0" points="386.3,1115.9 388.5,1125 402.6,1139.9 390.3,1151.7 374.8,1151.8 399.3,1103.1 390.5,1077.9 
			404.4,1046.6 386.1,1015.2 		"/>
		<path class="st0" d="M458.3,1027.2l2.5,35.7l0,7.5c0,0-20.9,4.7-13.2,11.7c4.9,2,11.8,4.6,11.8,4.6s16.6,8.1,0.8,15.2
			c-14.9,9.7,10.9,10.6,10.9,10.6l-9.1,33.3l-17.6-7.7l9.1-22.7l-17.6-22.6l6.3-13.5l-10.7-13.2l10.6-24.6l0-17.6"/>
		<polygon class="st0" points="476.9,1034.6 464.5,1069.5 479.6,1077.7 470.4,1093.3 487.1,1106.1 480.4,1127 504.2,1151.5 
			508.7,1123.4 490.9,1097.7 501.2,1084.8 488.3,1066.8 495.6,1056.5 		"/>
		<path class="st0" d="M510.8,1037l-12,29.8l4.1,20.5l23.5,18.5l-12.3,22.5l11,9.6l8.8-16.7l14.4,2.2l0,18.7l12.9-5.8
			c0,0-10.7-15.6,5.5-13.1"/>
		<path class="st0" d="M462,1145.8"/>
		<path class="st0" d="M626.7,1046.4l-12,12.7l3.9,12.4l-24,10.2l6.5-25l-12.3-15.5l0.1,31l-24.4,3.1l5.4-36.1l-25.1,4l-5.4,31
			l-14.1-1.8c-3.5-6.2,6.2-33.4,6.2-33.4l-14.2-4.6l0.9,32.3l-11.7,6.6"/>
		<path class="st0" d="M525.2,1072.5l3.8,35.7l16.8-3.9l-8.3-28.7l26.8-0.3l-6.3,27.9l17,6.2l-0.1-24.9l21.4-1.3l-7.2,21.3
			c0,0,11,15.7,15.1,11.7c11.9-8.9,11.8-34,11.8-34"/>
		<path class="st1" d="M526.4,1105.8l-1.4,15.3l9.9-4.7l6.8-7.2l6.7,5l5.8,11.4l6.4-18.6l6,11l6,8.9l5-8.9l-2.6-8.3l16.6,2
			c0,0-7.6,4.7-3,15.2c6.4,6.4,11.5-9,11.5-9l14.7-3.2l0,14.4l28.3-16.6"/>
		<path class="st0" d="M566.7,1123.2l2.4,5.4l-1,13.5l9-5.1l0.5-14.9l10.2,2l0.1,17.9l9.4-5.1l0-9.4c0,0,8.9-9.1,16.5-0.3
			c2.3,5.4-1.3,15.7-1.3,15.7l14.4-5.5l1.7-4.9l11.3,4.5l7,13.9l6-13.5l1.8-17.8"/>
		<polyline class="st0" points="561.5,1141.7 561.5,1147.4 568.1,1142.1 		"/>
		<line class="st0" x1="576.8" y1="1140" x2="586.1" y2="1140.6"/>
		<line class="st0" x1="596.8" y1="1139.9" x2="611.4" y2="1141.6"/>
		<polyline class="st0" points="625.1,1146.4 632,1151.2 642,1148.8 		"/>
		<line class="st0" x1="653.1" y1="1148" x2="670.3" y2="1146.7"/>
		<line class="st0" x1="518.1" y1="1151.4" x2="534.2" y2="1148.3"/>
		<polyline class="st0" points="410.9,1168.9 462,1145.8 483.6,1162.9 504.2,1151.5 518.1,1151.4 525.1,1137.9 533.3,1143.3 
			540.8,1149.2 545.3,1139.8 		"/>
		<path class="st0" d="M462,1145.8"/>
		<path class="st0" d="M344.9,1026.8c0,0-26.3,20.8-23.3,40.4c10.3,25.2,25.6,53.9,27.1,45.1c7.7-19,40.2-39.5,40.2-39.5l-43-48.6
			l28-16.6"/>
		<path class="st1" d="M471.1,883.4"/>
		<path class="st1" d="M248.2,1103.8"/>
		<path class="st1" d="M242.8,1131.9"/>
		<g>
			<path class="st0" d="M157.3,1136.3l-16.7,10.2l-7.3-12.1l11.8-22.2c0,0,12.4-4.7,14.8,3.8c0.5,5.8-1.1,21.2-1.1,21.2l11.5-8.1
				l7.3-12.2l5.8,6.9l-3.5,15.3l12.3-2.1l-2.1-20.6l5.4,0.6l3.5,12.3l0,11.2l7.6,0l2.2-24.6l4.8,7.1l-1.4,21l5.7-3.8l3.6-20.7
				c0,0,7.5,0.2,10.9,2.2c1.5,3.4-2.2,12.2-2.2,12.2l0.7,8.2l10.7-1.3l1.2-21.4l14.1-6.9l3.6,28l18.1-3.4l0.4-24.6"/>
			<path class="st0" d="M168.5,1137.4c0,0,3.8,14.1,10.6,1.6"/>
			<polyline class="st0" points="187.7,1140.8 190.8,1147 199.1,1140.7 			"/>
			<polyline class="st0" points="206.7,1140.7 205.8,1147.7 211.1,1143.2 			"/>
			<polyline class="st0" points="217.6,1142.6 218.8,1145.6 229.6,1140.9 			"/>
			<path class="st0" d="M262.4,1145.4"/>
			<polyline class="st0" points="224.8,1111.1 243.2,1116.3 225.5,1120 221.6,1105.4 215.9,1117.2 208,1108.1 199.5,1112.1 
				191.8,1116.1 187.4,1106.9 184.7,1116 175.4,1109.6 164.5,1108.2 160,1116.1 			"/>
			<path class="st0" d="M237,1084.2"/>
			<path class="st0" d="M208.8,1090.9l2.6-9.9l9.7,11.3l-8.3,18.2l-3.6-14.2l-5.9-5.8l-2,15.9l-11.3-4.5l-3.6-11.1l-2.8,14.6
				c0,0-9.8-12.8,0.5-11.1"/>
		</g>
		<path class="st0" d="M281.2,1087.8"/>
		<line class="st1" x1="348.7" y1="1112.4" x2="368" y2="1143.7"/>
		<path class="st1" d="M309.4,1106.8l18.8,15l-21.5,26.2l-11.2-14.5l14.8-21.1l-18.4-21.8c0,0,30.6-29,29.7-23.5"/>
		<polyline class="st1" points="293.2,1094.8 279.4,1112.5 295.5,1133.6 		"/>
		<polyline class="st1" points="327.5,1114.1 347.8,1137.5 315.1,1146.1 		"/>
		<line class="st0" x1="260.1" y1="1114.3" x2="279.4" y2="1112.5"/>
		<polyline class="st0" points="269.6,1142.5 283.5,1159.8 306.7,1148 		"/>
		<path class="st0" d="M241.9,1140.9"/>
		<polyline class="st0" points="189.1,1090.9 189.1,1073.3 203.2,1090.5 		"/>
	</g>
	<path class="st1" d="M333.2,1149.8c0,0,0.2,19.9,10.5,24.1c10-9.2,25.5-25.7,25.5-25.7"/>
	<path class="st1" d="M343.7,1173.9c0,0,24.4,17.2,31.2,1.3c6.8-16,15.3-23.5,15.3-23.5l5.5,11.7l15.1,5.5l17.8-21.1"/>
	<polyline class="st0" points="241.9,1140.9 244.8,1158.6 260.8,1140.6 	"/>
	<polyline class="st0" points="260.7,1153.9 263.5,1165.4 275.6,1159.3 	"/>
	<path class="st0" d="M444.6,1163.3c0,0,8.4,12.1,16.3,11.5c7.9-0.7,15.4-11.8,15.4-11.8"/>
	<polyline class="st0" points="200.8,1076.9 202.1,1070.6 214.1,1072.8 212.6,1081.1 	"/>
	<path class="st0" d="M107.9,1027.7"/>
	<polyline class="st0" points="555.9,13.8 574.6,8.9 586.9,22.9 588.2,31.8 	"/>
	<polyline class="st0" points="600.3,22.5 610.4,21.7 613,30.7 	"/>
	<polyline class="st0" points="633.8,670.5 647,678.5 648.8,637 662.1,648.5 654.5,700.4 	"/>
	<line class="st0" x1="643.6" y1="697.1" x2="647" y2="678.5"/>
	<polyline class="st0" points="711,794.4 729,815.8 715.5,840.2 	"/>
	<polyline class="st0" points="189.1,1073.3 179.1,1061.3 173.8,1084.9 164.5,1108.2 162.5,1081.1 145.1,1062.5 145.1,1112.2 	"/>
	<path class="st0" d="M142,1064.5l6-15.5c0,0,20.4,9.8,16,18.2c1.2,9.3,7.7,0.6,7.7,0.6l-3.2-17.3l21.1,6.6l0,10.2"/>
	<polyline class="st0" points="157.1,1050.7 160,1040.2 168.5,1050.5 	"/>
</g>
</svg>
